**ABCDEFGHIJKLMNOPQRSTUVWXYZabcdefghijklmnopqrstuvwxyz**************************
**PARASOLID !"#$%&'()*+,-./:;<=>?@[\]^_`{|}~0123456789**************************
**PART1;
MC=AMD64;
MC_MODEL=Intel64 Family 6 Model 26 Stepping 5, GenuineIntel;
MC_ID=unknown;
OS=Windows_NT;
OS_RELEASE=unknown;
FRU=Parasolid Version 24.1, build 231,  7-17-2012;
APPL=SolidWorks 2013-2012270;
SITE=;
USER=unknown;
FORMAT=text;
GUISE=transmit;
KEY=makeProjectedPlanarWire;
FILE=makeProjectedPlanarWire.x_t;
DATE=Sun Mar 29 15:41:24 2015;
**PART2;
SCH=SCH_2401231_20000;
USFLD_SIZE=0;
**PART3;
**END_OF_HEADER*****************************************************************
T51 : TRANSMIT FILE created by modeller version 240123123 SCH_2401231_20000_1300
6189 0 12 27 CCCCCCCCCCCCCCCCCCCCCCCA16 index_map_offset0 0 1 dA9 index_map82 0
 A17 node_id_index_map82 0 A20 schema_embedding_map82 0 Z1 989 0 0 0 0 0 0 1e3 1
e-8 0 2 0 1 0 3 1 3 4 5 6 7 8 9 0 0 0 0 13 255 3 112 0 1 0 10 0 0 7 10 50 255 4
 2 0 10 0 0 0 +0 0 0 0 0 1 1 0 0 134 255 5 77 0 8 11 0 0 +12 13 29 255 6 989 0 9
 14 0 -.03355921062013375 .1528666236129405 0 19 255 7 111 0 1 0 0 3 V16 255 8 7
6 0 ?15 0 16 5 0 0 1 18 255 9 988 0 17 0 18 6 ?1 17 255 17 0 0 0 0 9 19 20 0 19
 +18 18 986 0 21 9 22 14 ?1 17 21 0 0 0 0 18 23 24 0 23 +18 22 984 0 25 18 26 27
 ?1 29 14 987 0 18 27 6 -.0294818333476374 .144963167199911 0 29 27 985 0 22 28
 14 -.02541946536959255 .0190509876164122 0 29 28 110 0 26 29 27 -.0217581077398
9185 .01597111929805805 0 18 26 108 0 30 22 31 28 ?1 29 29 107 0 31 32 28 0 .010
47723581550136 0 18 31 105 0 33 26 34 29 ?1 29 32 104 0 34 35 29 0 0 0 18 34 102
 0 36 31 37 32 ?1 29 35 101 0 37 38 32 -.0305197804024771 .232827230804396 0 18
 37 99 0 39 34 40 35 ?1 29 38 98 0 40 41 35 -.0285395392289089 .232642056969351
 0 18 40 96 0 42 37 43 38 ?1 29 41 95 0 43 44 38 0 .1608479587025055 0 18 43 93
 0 45 40 46 41 ?1 29 44 92 0 46 47 41 0 .1414941473836392 0 18 46 90 0 48 43 49
 44 ?1 29 47 89 0 49 50 44 -.0280274437198516 .1414941473836392 0 18 49 87 0 51
 46 52 47 ?1 29 50 86 0 52 53 47 -.03 .139824331758871 0 18 52 84 0 54 49 55 50
 ?1 29 53 83 0 55 0 50 -.0270801778864751 .0285108139308363 0 18 55 81 0 56 52 0
 53 ?1 17 56 0 57 54 15 55 30 58 0 59 +15 255 57 10 0 56 10 0 17 54 0 57 51 56 5
2 59 60 0 61 +17 15 0 57 56 33 26 62 8 0 0 +17 30 0 0 0 0 26 56 58 0 15 -16 58 3
1 0 ?56 60 63 64 0 0 1 17 59 0 0 0 0 55 54 60 0 0 -16 60 36 0 ?54 65 58 66 0 0 1
 16 65 41 0 ?51 67 60 68 0 0 1 134 66 37 0 60 64 68 0 +69 70 31 255 64 32 0 58 7
1 66 0 +-.02903566481574675 .02028163230445025 0 0 0 1 1 0 0 .00845833076739153
 31 68 42 0 65 66 72 0 --.0280274437198516 .1394941473836392 0 0 0 1 1 0 0 .002
 136 255 69 3 7 3 5 6 FFF1 73 74 75 135 255 70 2 0 45 255 21 73 -.02708017788647
51 .0285108139308363 0 -.02870657859202915 .03492791180845725 0 -.03051549018456
43 .04435223427594565 0 -.03241642455354675 .0699870544320159 0 -.03255280650135
465 .0967007775632764 0 -.03053738986899005 .132674165510386 0 -.03 .13982433175
8871 0 127 255 5 74 4 1 1 1 4 128 255 5 75 .399896913094657 .535865385128787 .58
2419791324176 .865440975048543 .989380589806355 30 255 72 47 0 67 68 76 0 +0 .14
14941473836392 0 1 0 0 16 67 46 0 ?48 77 65 72 0 0 1 30 76 52 0 77 72 78 0 +0 0
 0 0 1 0 16 77 51 0 ?45 79 67 76 0 0 1 134 78 57 0 79 76 80 0 +81 82 16 79 56 0
 ?42 83 77 78 0 0 1 31 80 62 0 83 78 84 0 --.0295394640789128 .232629797509956 0
 0 0 1 1 0 0 .001 136 81 3 7 3 5 6 FFF1 85 86 87 135 82 2 0 45 21 85 10424751719
65726e-49 .1608479587025055 -16940658945086e-34 -.0039093826825229 .160847958702
5055 -16940658945086e-34 -.01148123734029472 .1657286283624755 -16940658945086e-
34 -.0202996716910578 .1786553547982575 -16940658945086e-34 -.0258643334180142 .
1976356605819215 -16940658945086e-34 -.02840267750477645 .2214791308935725 -1694
0658945086e-34 -.0285395392289089 .232642056969351 -16940658945086e-34 127 5 86
 4 1 1 1 4 128 5 87 0 .1190351980548374 .177866096609848 .588308985550104 .90674
0293206814 16 83 61 0 ?88 89 79 80 0 0 1 134 84 67 0 89 80 11 0 +90 91 16 89 66
 0 ?92 16 83 84 0 0 1 30 11 72 0 16 84 5 0 +0 0 0 0 -1 0 136 90 3 12 3 10 6 FFF1
 93 94 95 135 91 2 0 45 36 93 766229580378376e-48 -242737362064585e-50 -16940658
945086e-34 -.01209592251956704 1241810259409216e-50 -16940658945086e-34 -.011859
3911280599 702318024659258e-19 -16940658945086e-34 -.0256932034225227 -.00016354
2724225896 -16940658945086e-34 -.03049551565785805 .00867913181046834 -169406589
45086e-34 -.03782177226636305 .0260536184078372 -16940658945086e-34 -.0422368739
1585365 .0470155920779575 -16940658945086e-34 -.04300185765215455 .0697509019729
535 -16940658945086e-34 -.043651742531915 .0985318707509914 -16940658945086e-34
 -.03956672832129245 .161312036728225 -16940658945086e-34 -.0368192045898363 .20
1548674786586 -16940658945086e-34 -.0305197804024771 .232827230804396 -169406589
45086e-34 127 10 94 4 1 1 1 1 1 1 1 1 4 128 10 95 0 .1321407763084076 .176917225
2473215 .4176703489289355 .470308471780575 .650660330912083 .690470909399167 .82
8603678164332 .859953862951349 .986706161173687 16 16 71 0 ?96 8 89 11 0 0 1 17
 96 0 0 0 0 34 33 16 0 0 +17 33 0 57 15 36 31 96 16 0 62 -17 36 0 57 33 39 34 92
 89 0 96 -17 62 0 0 0 0 31 15 8 0 0 -17 39 0 57 36 42 37 88 83 0 92 -17 92 0 0 0
 0 37 36 89 0 0 +17 42 0 57 39 45 40 97 79 0 88 +17 88 0 0 0 0 40 39 83 0 0 +17
 45 0 57 42 48 43 98 77 0 97 +17 97 0 0 0 0 43 42 79 0 0 -17 48 0 57 45 51 46 99
 67 0 98 +17 98 0 0 0 0 46 45 77 0 0 -17 51 0 57 48 54 49 61 65 0 99 +17 99 0 0
 0 0 49 48 67 0 0 -17 61 0 0 0 0 52 51 65 0 0 -31 71 27 0 63 100 64 0 +-.0249634
067254476 .00908221294287159 0 0 0 1 1 0 0 6e-4 16 63 26 0 ?101 58 20 71 0 0 1 3
1 100 22 0 20 102 71 0 +-.03368786641746625 .153452667711804 0 0 0 1 1 0 0 6e-4
 16 20 21 0 ?17 63 24 100 0 0 1 31 102 17 0 24 103 100 0 +-.03 .1475110100758314
 0 0 0 1 1 0 0 .0026 16 24 16 0 ?21 20 104 102 0 0 1 31 103 12 0 104 0 102 0 +-.
0275 .0206102745212746 0 0 0 1 1 0 0 .0026 16 104 11 0 ?25 24 0 103 0 0 1 17 25
 0 0 0 0 22 105 104 0 105 +17 105 0 106 105 105 22 25 104 0 0 -15 106 6 0 105 10
 107 14 255 10 1 0 ?0 0 106 3 4 +0 0 0 0 3 15 107 7 0 23 10 108 17 23 0 107 23 2
3 18 21 24 0 0 -15 108 8 0 19 10 109 17 19 0 108 19 19 9 17 20 0 0 -15 109 9 0 1
10 10 57 17 110 0 109 110 110 0 101 63 0 0 -17 101 0 0 0 0 0 110 63 0 0 +136 12
 3 6 3 4 6 FFF1 111 112 113 135 13 2 0 45 18 111 0 .01047723581550136 0 -.010899
3393860256 .01047723581550136 0 -.0114872188918058 .0104757816436124 0 -.0162355
5911441425 .01135444194866216 0 -.01942281347024905 .01297359623504612 0 -.02175
810773989185 .01597111929805805 0 127 4 112 4 1 1 4 128 4 113 0 .128416154842598
2 .156586267234339 .2817011239174075 1 0 
