999
DXF generated by OpenJsCad
  0
SECTION
  2
HEADER
  0
ENDSEC
  0
SECTION
  2
TABLES
  0
TABLE
  2
LTYPE
  70
1
  0
LTYPE
  2
CONTINUOUS
  3
Solid Line
  72
65
  73
0
  40
0.0
  0
ENDTAB
  0
TABLE
  2
LAYER
  70
1
  0
LAYER
  2
OpenJsCad
  62
7
  6
continuous
  0
ENDTAB
  0
TABLE
  2
STYLE
  70
0
  0
ENDTAB
  0
TABLE
  2
VIEW
  70
0
  0
ENDTAB
  0
ENDSEC
  0
SECTION
  2
BLOCKS
  0
ENDSEC
  0
SECTION
  2
ENTITIES
  0
LWPOLYLINE
  8
OpenJsCad
  90
613
  70
1
 10
12.485845730612471
 20
2.5915204675072667
 30
0.0
 10
12.399467772944583
 20
2.306770502085862
 30
0.0
 10
12.331898295901286
 20
2.0169808194702403
 30
0.0
 10
12.417464841431087
 20
1.9189571923271145
 30
0.0
 10
12.593617898619822
 20
1.7372973395370255
 30
0.0
 10
12.764512514596273
 20
1.5785938307051346
 30
0.0
 10
12.928268438514374
 20
1.441761367355933
 30
0.0
 10
13.08310648708855
 20
1.325582897484843
 30
0.0
 10
13.227357067592482
 20
1.2287173152397215
 30
0.0
 10
13.359468167066696
 20
1.1497076855017043
 30
0.0
 10
13.478012776538957
 20
1.0869899583164462
 30
0.0
 10
13.581695721171632
 20
1.0389021363751638
 30
0.0
 10
13.669359869641957
 20
1.0036938570338505
 30
0.0
 10
13.73999169843649
 20
0.9795363488261895
 30
0.0
 10
13.79272618925087
 20
0.9645327210438279
 30
0.0
 10
13.798952929992147
 20
0.9631086975702421
 30
0.0
 10
13.82871813998444
 20
0.9657747435361579
 30
0.0
 10
14.032449640916333
 20
0.9667772748968513
 30
0.0
 10
14.216214021276055
 20
0.9501255134837627
 30
0.0
 10
14.378775893373733
 20
0.9179313641691156
 30
0.0
 10
14.519067126770526
 20
0.8723847950029331
 30
0.0
 10
14.636191482348021
 20
0.8157420740452896
 30
0.0
 10
14.729428471433334
 20
0.750313743088401
 30
0.0
 10
14.798236425295608
 20
0.6784523762829029
 30
0.0
 10
14.842254764454324
 20
0.6025401770041576
 30
0.0
 10
14.861305457971635
 20
0.5249764569810513
 30
0.0
 10
14.84225476445437
 20
0.16146756997225964
 30
0.0
 10
14.84225476445437
 20
-0.1614675699722774
 30
0.0
 10
14.861305457972225
 20
-0.5249764569824793
 30
0.0
 10
14.84225476445437
 20
-0.6025401770042293
 30
0.0
 10
14.798236425295586
 20
-0.678452376282872
 30
0.0
 10
14.729428471391188
 20
-0.7503137429040665
 30
0.0
 10
14.636191482348117
 20
-0.8157420740458599
 30
0.0
 10
14.519067126771438
 20
-0.8723847950104417
 30
0.0
 10
14.378775893373671
 20
-0.9179313641681967
 30
0.0
 10
14.216214021276087
 20
-0.9501255134859338
 30
0.0
 10
14.032449640916338
 20
-0.9667772748968733
 30
0.0
 10
13.828718139984439
 20
-0.965774743536163
 30
0.0
 10
13.798952929991163
 20
-0.9631086975692275
 30
0.0
 10
13.792726189250967
 20
-0.9645327210438677
 30
0.0
 10
13.73999169843653
 20
-0.9795363488262461
 30
0.0
 10
13.669359869642001
 20
-1.0036938570339058
 30
0.0
 10
13.581695721171597
 20
-1.0389021363751272
 30
0.0
 10
13.478012776538996
 20
-1.0869899583163205
 30
0.0
 10
13.35946816706684
 20
-1.149707685501776
 30
0.0
 10
13.227357067592267
 20
-1.228717315239746
 30
0.0
 10
13.083106487089097
 20
-1.3255828974845172
 30
0.0
 10
12.928268438513417
 20
-1.4417613673567309
 30
0.0
 10
12.764512514596312
 20
-1.5785938307050997
 30
0.0
 10
12.59361789861979
 20
-1.7372973395370601
 30
0.0
 10
12.41746484143113
 20
-1.9189571923270723
 30
0.0
 10
12.331898295901288
 20
-2.016980819470243
 30
0.0
 10
12.39946777294458
 20
-2.30677050208586
 30
0.0
 10
12.485845730612468
 20
-2.591520467507266
 30
0.0
 10
12.608960346326919
 20
-2.6336281460194053
 30
0.0
 10
12.852343295201699
 20
-2.702873664788998
 30
0.0
 10
13.079694128423235
 20
-2.7548676271189176
 30
0.0
 10
13.289927150231104
 20
-2.791490054482679
 30
0.0
 10
13.482110068704294
 20
-2.814684536476761
 30
0.0
 10
13.655467527053911
 20
-2.826447301201441
 30
0.0
 10
13.809383910189485
 20
-2.8288160979610586
 30
0.0
 10
13.943405417066796
 20
-2.8238589382349835
 30
0.0
 10
14.057241392028509
 20
-2.8136627413324593
 30
0.0
 10
14.150764911275598
 20
-2.8003219314304126
 30
0.0
 10
14.224012623431248
 20
-2.7859270328331114
 30
0.0
 10
14.277183846023318
 20
-2.772553310234373
 30
0.0
 10
14.283288373424837
 20
-2.770673180367446
 30
0.0
 10
14.307732778444183
 20
-2.753481711837158
 30
0.0
 10
14.48366816812199
 20
-2.65074774374476
 30
0.0
 10
14.65113867053076
 20
-2.573286401966392
 30
0.0
 10
14.808018456111427
 20
-2.519886417077267
 30
0.0
 10
14.952287512744395
 20
-2.4891852863320096
 30
0.0
 10
15.08204154055521
 20
-2.4796771438320535
 30
0.0
 10
15.195501307153908
 20
-2.4897212460252787
 30
0.0
 10
15.29102142658381
 20
-2.5175510382983757
 30
0.0
 10
15.367098526167032
 20
-2.561283761751557
 30
0.0
 10
15.422378770724288
 20
-2.6189305669449356
 30
0.0
 10
15.587634829683022
 20
-2.943263844354588
 30
0.0
 10
15.74910239965529
 20
-3.22293387932124
 30
0.0
 10
15.947355227706563
 20
-3.528216463214555
 30
0.0
 10
15.969638703171267
 20
-3.604913961924341
 30
0.0
 10
15.96947380286668
 20
-3.6926650245361854
 30
0.0
 10
15.94581505011364
 20
-3.7893027705330065
 30
0.0
 10
15.897783614600865
 20
-3.8925838619505555
 30
0.0
 10
15.824672307751872
 20
-4.000200075033696
 30
0.0
 10
15.72594982028003
 20
-4.10979017767842
 30
0.0
 10
15.601264184015637
 20
-4.218952064889601
 30
0.0
 10
15.450445443018856
 20
-4.325255103469107
 30
0.0
 10
15.273507521980342
 20
-4.4262526363085914
 30
0.0
 10
15.24639707099372
 20
-4.438826377770206
 30
0.0
 10
15.24171656706725
 20
-4.443172988644928
 30
0.0
 10
15.2035489722575
 20
-4.482533756860612
 30
0.0
 10
15.154458768309514
 20
-4.538770687057841
 30
0.0
 10
15.096143528403623
 20
-4.613094025626079
 30
0.0
 10
15.030395375383213
 20
-4.706580773356117
 30
0.0
 10
14.959091595691348
 20
-4.820168223102421
 30
0.0
 10
14.884184842293461
 20
-4.954648119336391
 30
0.0
 10
14.80769296618945
 20
-5.11066146456432
 30
0.0
 10
14.731688517586608
 20
-5.2886939951343
 30
0.0
 10
14.658287959128387
 20
-5.489072346414943
 30
0.0
 10
14.589640634738712
 20
-5.711960924721411
 30
0.0
 10
14.527917538654044
 20
-5.957359500679633
 30
0.0
 10
14.502826550082712
 20
-6.085033724721633
 30
0.0
 10
14.706238275030442
 20
-6.3022142130997425
 30
0.0
 10
14.923418763408552
 20
-6.505625938047476
 30
0.0
 10
15.051092987450492
 20
-6.480534949476152
 30
0.0
 10
15.296491563408818
 20
-6.4188118533914595
 30
0.0
 10
15.51938014171519
 20
-6.3501645290018125
 30
0.0
 10
15.719758492997052
 20
-6.276763970543145
 30
0.0
 10
15.897791023565308
 20
-6.200759521941048
 30
0.0
 10
16.05380436879392
 20
-6.124267645836551
 30
0.0
 10
16.188284265027754
 20
-6.049360892438995
 30
0.0
 10
16.301871714773938
 20
-5.978057112746942
 30
0.0
 10
16.395358462504092
 20
-5.912308959726512
 30
0.0
 10
16.46968180107237
 20
-5.8539937198207355
 30
0.0
 10
16.5259187312696
 20
-5.8049035158727476
 30
0.0
 10
16.565279499485243
 20
-5.766735921063038
 30
0.0
 10
16.56962611035959
 20
-5.762055417135105
 30
0.0
 10
16.5821998518216
 20
-5.734944966149843
 30
0.0
 10
16.683197384661092
 20
-5.558007045111342
 30
0.0
 10
16.789500423242444
 20
-5.407188304115663
 30
0.0
 10
16.898662310450998
 20
-5.2825026678496405
 30
0.0
 10
17.008252413102532
 20
-5.1837801803828585
 30
0.0
 10
17.115868626180074
 20
-5.1106688735296855
 30
0.0
 10
17.219149717458613
 20
-5.062637437887878
 30
0.0
 10
17.31578746359398
 20
-5.038978685263471
 30
0.0
 10
17.40353852620588
 20
-5.038813784958994
 30
0.0
 10
17.48023602491657
 20
-5.061097260424845
 30
0.0
 10
17.78551860880896
 20
-5.2593500884749025
 30
0.0
 10
18.065188643775613
 20
-5.42081765844717
 30
0.0
 10
18.38952192118678
 20
-5.586073717406099
 30
0.0
 10
18.447168726378713
 20
-5.641353961963147
 30
0.0
 10
18.49090144983177
 20
-5.717431061546376
 30
0.0
 10
18.518731241924193
 20
-5.81295118092061
 30
0.0
 10
18.528775344298673
 20
-5.92641094757518
 30
0.0
 10
18.519267201805132
 20
-6.056164975388755
 30
0.0
 10
18.48856607105209
 20
-6.20043403201835
 30
0.0
 10
18.435166086165687
 20
-6.357313817600482
 30
0.0
 10
18.357704744385444
 20
-6.524784320008202
 30
0.0
 10
18.254970776293028
 20
-6.7007197096860045
 30
0.0
 10
18.237779307761368
 20
-6.7251641147056915
 30
0.0
 10
18.23589917789589
 20
-6.7312686421068015
 30
0.0
 10
18.22252545529714
 20
-6.784439864698929
 30
0.0
 10
18.208130556699842
 20
-6.857687576854576
 30
0.0
 10
18.194789746797674
 20
-6.951211096101686
 30
0.0
 10
18.184593549895112
 20
-7.065047071063291
 30
0.0
 10
18.179636390169257
 20
-7.199068577940612
 30
0.0
 10
18.182005186928656
 20
-7.352984961076468
 30
0.0
 10
18.193767951653413
 20
-7.526342419425253
 30
0.0
 10
18.21696243364772
 20
-7.7185253379003065
 30
0.0
 10
18.253584861011255
 20
-7.928758359706896
 30
0.0
 10
18.3055788233412
 20
-8.156109192928533
 30
0.0
 10
18.374824342110763
 20
-8.39949214180321
 30
0.0
 10
18.416932020622923
 20
-8.522606757517714
 30
0.0
 10
18.70168198604432
 20
-8.608984715185603
 30
0.0
 10
18.991471668659944
 20
-8.676554192228899
 30
0.0
 10
19.08949529580307
 20
-8.590987646699098
 30
0.0
 10
19.27115514859316
 20
-8.414834589510363
 30
0.0
 10
19.42985865742505
 20
-8.243939973533912
 30
0.0
 10
19.56669112077425
 20
-8.080184049615811
 30
0.0
 10
19.682869590645343
 20
-7.925346001041636
 30
0.0
 10
19.77973517289046
 20
-7.781095420537705
 30
0.0
 10
19.85874480262848
 20
-7.648984321063489
 30
0.0
 10
19.921462529813738
 20
-7.530439711591228
 30
0.0
 10
19.96955035175502
 20
-7.426756766958553
 30
0.0
 10
20.004758631096333
 20
-7.339092618488229
 30
0.0
 10
20.028916139303995
 20
-7.2684607896936955
 30
0.0
 10
20.043919767086358
 20
-7.215726298879316
 30
0.0
 10
20.045343790559944
 20
-7.209499558138039
 30
0.0
 10
20.042677744594027
 20
-7.179734348145745
 30
0.0
 10
20.041675213233333
 20
-6.976002847213851
 30
0.0
 10
20.058326974646423
 20
-6.792238466854131
 30
0.0
 10
20.090521123961068
 20
-6.629676594756453
 30
0.0
 10
20.136067693127252
 20
-6.48938536135966
 30
0.0
 10
20.192710414084896
 20
-6.372261005782163
 30
0.0
 10
20.258138745041784
 20
-6.279024016696852
 30
0.0
 10
20.330000111847284
 20
-6.210216062834578
 30
0.0
 10
20.405912311126027
 20
-6.166197723675861
 30
0.0
 10
20.483476031149134
 20
-6.147147030158551
 30
0.0
 10
20.846984918157926
 20
-6.166197723675814
 30
0.0
 10
21.169920058102463
 20
-6.166197723675814
 30
0.0
 10
21.533428945112664
 20
-6.14714703015796
 30
0.0
 10
21.610992665134415
 20
-6.166197723675814
 30
0.0
 10
21.68690486441306
 20
-6.210216062834599
 30
0.0
 10
21.75876623103425
 20
-6.279024016738997
 30
0.0
 10
21.824194562176046
 20
-6.372261005782069
 30
0.0
 10
21.880837283140625
 20
-6.489385361358748
 30
0.0
 10
21.926383852298382
 20
-6.629676594756514
 30
0.0
 10
21.958578001616118
 20
-6.792238466854097
 30
0.0
 10
21.97522976302706
 20
-6.976002847213847
 30
0.0
 10
21.974227231666347
 20
-7.179734348145746
 30
0.0
 10
21.97156118569941
 20
-7.209499558139022
 30
0.0
 10
21.972985209174052
 20
-7.215726298879219
 30
0.0
 10
21.987988836956433
 20
-7.268460789693655
 30
0.0
 10
22.01214634516409
 20
-7.339092618488185
 30
0.0
 10
22.047354624505314
 20
-7.426756766958588
 30
0.0
 10
22.095442446446505
 20
-7.53043971159119
 30
0.0
 10
22.158160173631963
 20
-7.648984321063346
 30
0.0
 10
22.23716980336993
 20
-7.781095420537918
 30
0.0
 10
22.3340353856147
 20
-7.925346001041088
 30
0.0
 10
22.450213855486915
 20
-8.080184049616769
 30
0.0
 10
22.587046318835284
 20
-8.243939973533873
 30
0.0
 10
22.745749827667247
 20
-8.414834589510397
 30
0.0
 10
22.927409680457256
 20
-8.590987646699057
 30
0.0
 10
23.025433307600427
 20
-8.676554192228897
 30
0.0
 10
23.315222990216043
 20
-8.608984715185604
 30
0.0
 10
23.59997295563745
 20
-8.522606757517718
 30
0.0
 10
23.64208063414959
 20
-8.399492141803266
 30
0.0
 10
23.71132615291918
 20
-8.156109192928486
 30
0.0
 10
23.7633201152491
 20
-7.928758359706948
 30
0.0
 10
23.79994254261286
 20
-7.718525337899081
 30
0.0
 10
23.823137024606943
 20
-7.526342419425891
 30
0.0
 10
23.834899789331626
 20
-7.352984961076273
 30
0.0
 10
23.83726858609124
 20
-7.199068577940701
 30
0.0
 10
23.832311426365166
 20
-7.06504707106339
 30
0.0
 10
23.822115229462643
 20
-6.951211096101675
 30
0.0
 10
23.808774419560596
 20
-6.857687576854586
 30
0.0
 10
23.794379520963297
 20
-6.784439864698937
 30
0.0
 10
23.781005798364557
 20
-6.731268642106867
 30
0.0
 10
23.77912566849763
 20
-6.725164114705349
 30
0.0
 10
23.761934199967342
 20
-6.700719709686001
 30
0.0
 10
23.659200231874944
 20
-6.524784320008195
 30
0.0
 10
23.581738890096577
 20
-6.357313817599426
 30
0.0
 10
23.528338905207452
 20
-6.200434032018757
 30
0.0
 10
23.497637774462195
 20
-6.056164975385792
 30
0.0
 10
23.488129631962238
 20
-5.926410947574976
 30
0.0
 10
23.498173734155465
 20
-5.812951180976279
 30
0.0
 10
23.52600352642856
 20
-5.7174310615463755
 30
0.0
 10
23.569736249881743
 20
-5.641353961963153
 30
0.0
 10
23.62738305507512
 20
-5.586073717405897
 30
0.0
 10
23.95171633248477
 20
-5.420817658447163
 30
0.0
 10
24.231386367451424
 20
-5.2593500884748945
 30
0.0
 10
24.53666895134474
 20
-5.0610972604236215
 30
0.0
 10
24.613366450054524
 20
-5.0388137849589185
 30
0.0
 10
24.70111751266637
 20
-5.038978685263506
 30
0.0
 10
24.79775525866319
 20
-5.062637438016545
 30
0.0
 10
24.90103635008074
 20
-5.1106688735293195
 30
0.0
 10
25.00865256316388
 20
-5.1837801803783154
 30
0.0
 10
25.118242665808605
 20
-5.282502667850155
 30
0.0
 10
25.227404553019785
 20
-5.407188304114549
 30
0.0
 10
25.333707591599293
 20
-5.55800704511133
 30
0.0
 10
25.434705124438775
 20
-5.734944966149843
 30
0.0
 10
25.44727886590039
 20
-5.762055417136465
 30
0.0
 10
25.451625476775114
 20
-5.766735921062935
 30
0.0
 10
25.490986244990797
 20
-5.804903515872685
 30
0.0
 10
25.547223175188027
 20
-5.8539937198206715
 30
0.0
 10
25.621546513756265
 20
-5.912308959726561
 30
0.0
 10
25.7150332614863
 20
-5.978057112746973
 30
0.0
 10
25.828620711232606
 20
-6.049360892438838
 30
0.0
 10
25.963100607466576
 20
-6.124267645836724
 30
0.0
 10
26.119113952694505
 20
-6.200759521940737
 30
0.0
 10
26.297146483264484
 20
-6.276763970543577
 30
0.0
 10
26.49752483454513
 20
-6.350164529001798
 30
0.0
 10
26.720413412851595
 20
-6.418811853391473
 30
0.0
 10
26.96581198880982
 20
-6.480534949476141
 30
0.0
 10
27.093486212851815
 20
-6.505625938047473
 30
0.0
 10
27.310666701229927
 20
-6.302214213099742
 30
0.0
 10
27.51407842617766
 20
-6.085033724721632
 30
0.0
 10
27.48898743760634
 20
-5.957359500679692
 30
0.0
 10
27.427264341521646
 20
-5.711960924721366
 30
0.0
 10
27.358617017131998
 20
-5.489072346414994
 30
0.0
 10
27.285216458673332
 20
-5.288693995133133
 30
0.0
 10
27.209212010071234
 20
-5.110661464564875
 30
0.0
 10
27.132720133966735
 20
-4.954648119336262
 30
0.0
 10
27.057813380569183
 20
-4.8201682231024305
 30
0.0
 10
26.986509600877127
 20
-4.7065807733562455
 30
0.0
 10
26.920761447856698
 20
-4.6130940256260935
 30
0.0
 10
26.86244620795092
 20
-4.538770687057815
 30
0.0
 10
26.813356004002934
 20
-4.482533756860583
 30
0.0
 10
26.775188409193227
 20
-4.4431729886449425
 30
0.0
 10
26.77050790526529
 20
-4.438826377770594
 30
0.0
 10
26.74339745428003
 20
-4.426252636308586
 30
0.0
 10
26.566459533241527
 20
-4.3252551034690905
 30
0.0
 10
26.41564079224585
 20
-4.218952064887738
 30
0.0
 10
26.290955155979827
 20
-4.109790177679186
 30
0.0
 10
26.192232668513043
 20
-4.000200075027649
 30
0.0
 10
26.11912136165987
 20
-3.8925838619501087
 30
0.0
 10
26.071089926018065
 20
-3.789302770671572
 30
0.0
 10
26.047431173393655
 20
-3.6926650245362023
 30
0.0
 10
26.047266273089182
 20
-3.6049139619243027
 30
0.0
 10
26.069549748555033
 20
-3.5282164632136137
 30
0.0
 10
26.26780257660509
 20
-3.222933879321225
 30
0.0
 10
26.429270146577355
 20
-2.943263844354573
 30
0.0
 10
26.594526205536283
 20
-2.618930566943404
 30
0.0
 10
26.649806450093333
 20
-2.561283761751471
 30
0.0
 10
26.72588354967656
 20
-2.5175510382984125
 30
0.0
 10
26.821403669050795
 20
-2.48972124620599
 30
0.0
 10
26.934863435705367
 20
-2.4796771438315126
 30
0.0
 10
27.064617463518942
 20
-2.489185286325051
 30
0.0
 10
27.208886520148535
 20
-2.5198864170780935
 30
0.0
 10
27.365766305730666
 20
-2.573286401964495
 30
0.0
 10
27.533236808138387
 20
-2.65074774374474
 30
0.0
 10
27.70917219781619
 20
-2.7534817118371544
 30
0.0
 10
27.733616602835877
 20
-2.7706731803688154
 30
0.0
 10
27.739721130236987
 20
-2.77255331023429
 30
0.0
 10
27.792892352829114
 20
-2.7859270328330425
 30
0.0
 10
27.866140064984762
 20
-2.8003219314303425
 30
0.0
 10
27.959663584231873
 20
-2.813662741332508
 30
0.0
 10
28.07349955919348
 20
-2.8238589382350723
 30
0.0
 10
28.207521066070797
 20
-2.8288160979609245
 30
0.0
 10
28.361437449206655
 20
-2.8264473012015263
 30
0.0
 10
28.534794907555437
 20
-2.8146845364767694
 30
0.0
 10
28.72697782603049
 20
-2.791490054482466
 30
0.0
 10
28.937210847837083
 20
-2.7548676271189283
 30
0.0
 10
29.164561681058718
 20
-2.7028736647889833
 30
0.0
 10
29.407944629933397
 20
-2.6336281460194213
 30
0.0
 10
29.531059245647903
 20
-2.5915204675072614
 30
0.0
 10
29.617437203315788
 20
-2.306770502085863
 30
0.0
 10
29.68500668035908
 20
-2.016980819470241
 30
0.0
 10
29.59944013482928
 20
-1.9189571923271158
 30
0.0
 10
29.42328707764055
 20
-1.7372973395370266
 30
0.0
 10
29.252392461664094
 20
-1.578593830705136
 30
0.0
 10
29.088636537745998
 20
-1.441761367355934
 30
0.0
 10
28.93379848917182
 20
-1.3255828974848438
 30
0.0
 10
28.789547908667892
 20
-1.2287173152397224
 30
0.0
 10
28.657436809193676
 20
-1.1497076855017052
 30
0.0
 10
28.538892199721413
 20
-1.086989958316447
 30
0.0
 10
28.435209255088736
 20
-1.0389021363751647
 30
0.0
 10
28.347545106618412
 20
-1.0036938570338514
 30
0.0
 10
28.27691327782388
 20
-0.9795363488261903
 30
0.0
 10
28.2241787870095
 20
-0.9645327210438288
 30
0.0
 10
28.217952046268223
 20
-0.963108697570243
 30
0.0
 10
28.188186836275932
 20
-0.9657747435361588
 30
0.0
 10
27.984455335344038
 20
-0.9667772748968522
 30
0.0
 10
27.800690954984315
 20
-0.9501255134837636
 30
0.0
 10
27.63812908288664
 20
-0.9179313641691165
 30
0.0
 10
27.497837849489848
 20
-0.872384795002934
 30
0.0
 10
27.38071349391235
 20
-0.8157420740452905
 30
0.0
 10
27.287476504827037
 20
-0.7503137430884019
 30
0.0
 10
27.218668550964765
 20
-0.6784523762829038
 30
0.0
 10
27.174650211806046
 20
-0.6025401770041585
 30
0.0
 10
27.155599518288735
 20
-0.5249764569810522
 30
0.0
 10
27.174650211806
 20
-0.1614675699722603
 30
0.0
 10
27.174650211806
 20
0.16146756997227674
 30
0.0
 10
27.155599518288145
 20
0.5249764569824786
 30
0.0
 10
27.174650211806
 20
0.6025401770042287
 30
0.0
 10
27.218668550964786
 20
0.6784523762828713
 30
0.0
 10
27.287476504869183
 20
0.7503137429040657
 30
0.0
 10
27.380713493912253
 20
0.8157420740458592
 30
0.0
 10
27.49783784948893
 20
0.872384795010441
 30
0.0
 10
27.6381290828867
 20
0.917931364168196
 30
0.0
 10
27.800690954984283
 20
0.9501255134859329
 30
0.0
 10
27.98445533534403
 20
0.9667772748968724
 30
0.0
 10
28.188186836275932
 20
0.9657747435361621
 30
0.0
 10
28.217952046269208
 20
0.9631086975692267
 30
0.0
 10
28.224178787009404
 20
0.9645327210438669
 30
0.0
 10
28.27691327782384
 20
0.9795363488262452
 30
0.0
 10
28.34754510661837
 20
1.0036938570339051
 30
0.0
 10
28.435209255088772
 20
1.0389021363751263
 30
0.0
 10
28.538892199721374
 20
1.0869899583163196
 30
0.0
 10
28.65743680919353
 20
1.1497076855017754
 30
0.0
 10
28.789547908668105
 20
1.228717315239745
 30
0.0
 10
28.933798489171274
 20
1.3255828974845163
 30
0.0
 10
29.088636537746954
 20
1.4417613673567298
 30
0.0
 10
29.25239246166406
 20
1.5785938307050986
 30
0.0
 10
29.42328707764058
 20
1.7372973395370592
 30
0.0
 10
29.599440134829244
 20
1.9189571923270712
 30
0.0
 10
29.68500668035908
 20
2.0169808194702417
 30
0.0
 10
29.617437203315788
 20
2.306770502085862
 30
0.0
 10
29.531059245647903
 20
2.5915204675072676
 30
0.0
 10
29.407944629933453
 20
2.633628146019407
 30
0.0
 10
29.16456168105867
 20
2.7028736647889993
 30
0.0
 10
28.937210847837136
 20
2.754867627118919
 30
0.0
 10
28.726977826029266
 20
2.7914900544826806
 30
0.0
 10
28.534794907556076
 20
2.8146845364767623
 30
0.0
 10
28.361437449206456
 20
2.826447301201443
 30
0.0
 10
28.207521066070885
 20
2.8288160979610604
 30
0.0
 10
28.073499559193575
 20
2.823858938234985
 30
0.0
 10
27.959663584231862
 20
2.8136627413324606
 30
0.0
 10
27.86614006498477
 20
2.800321931430414
 30
0.0
 10
27.79289235282912
 20
2.785927032833113
 30
0.0
 10
27.73972113023705
 20
2.772553310234375
 30
0.0
 10
27.733616602835532
 20
2.7706731803674467
 30
0.0
 10
27.709172197816187
 20
2.75348171183716
 30
0.0
 10
27.53323680813838
 20
2.6507477437447617
 30
0.0
 10
27.36576630572961
 20
2.5732864019663935
 30
0.0
 10
27.20888652014894
 20
2.5198864170772683
 30
0.0
 10
27.064617463515976
 20
2.4891852863320114
 30
0.0
 10
26.93486343570516
 20
2.4796771438320544
 30
0.0
 10
26.821403669106463
 20
2.48972124602528
 30
0.0
 10
26.72588354967656
 20
2.5175510382983766
 30
0.0
 10
26.649806450093337
 20
2.5612837617515583
 30
0.0
 10
26.59452620553608
 20
2.618930566944937
 30
0.0
 10
26.42927014657735
 20
2.9432638443545893
 30
0.0
 10
26.267802576605078
 20
3.2229338793212405
 30
0.0
 10
26.069549748553804
 20
3.528216463214557
 30
0.0
 10
26.0472662730891
 20
3.6049139619243418
 30
0.0
 10
26.04743117339369
 20
3.6926650245361867
 30
0.0
 10
26.07108992614673
 20
3.789302770533007
 30
0.0
 10
26.119121361659506
 20
3.8925838619505573
 30
0.0
 10
26.1922326685085
 20
4.000200075033698
 30
0.0
 10
26.29095515598034
 20
4.109790177678422
 30
0.0
 10
26.415640792244734
 20
4.218952064889602
 30
0.0
 10
26.566459533241513
 20
4.325255103469108
 30
0.0
 10
26.74339745428003
 20
4.426252636308592
 30
0.0
 10
26.770507905266648
 20
4.438826377770207
 30
0.0
 10
26.77518840919312
 20
4.443172988644929
 30
0.0
 10
26.81335600400287
 20
4.482533756860613
 30
0.0
 10
26.862446207950857
 20
4.538770687057843
 30
0.0
 10
26.920761447856744
 20
4.613094025626081
 30
0.0
 10
26.986509600877156
 20
4.706580773356118
 30
0.0
 10
27.057813380569023
 20
4.820168223102422
 30
0.0
 10
27.13272013396691
 20
4.954648119336392
 30
0.0
 10
27.20921201007092
 20
5.110661464564321
 30
0.0
 10
27.285216458673762
 20
5.2886939951343015
 30
0.0
 10
27.358617017131984
 20
5.489072346414945
 30
0.0
 10
27.427264341521656
 20
5.711960924721413
 30
0.0
 10
27.488987437606323
 20
5.957359500679635
 30
0.0
 10
27.514078426177658
 20
6.085033724721635
 30
0.0
 10
27.310666701229934
 20
6.302214213099742
 30
0.0
 10
27.093486212851822
 20
6.505625938047475
 30
0.0
 10
26.965811988809882
 20
6.480534949476151
 30
0.0
 10
26.720413412851556
 20
6.418811853391458
 30
0.0
 10
26.49752483454518
 20
6.350164529001811
 30
0.0
 10
26.29714648326332
 20
6.276763970543144
 30
0.0
 10
26.119113952695066
 20
6.200759521941046
 30
0.0
 10
25.96310060746645
 20
6.12426764583655
 30
0.0
 10
25.82862071123262
 20
6.049360892438995
 30
0.0
 10
25.715033261486433
 20
5.97805711274694
 30
0.0
 10
25.621546513756282
 20
5.912308959726509
 30
0.0
 10
25.547223175188
 20
5.853993719820734
 30
0.0
 10
25.490986244990772
 20
5.804903515872747
 30
0.0
 10
25.45162547677513
 20
5.766735921063036
 30
0.0
 10
25.447278865900785
 20
5.762055417135104
 30
0.0
 10
25.434705124438775
 20
5.7349449661498415
 30
0.0
 10
25.33370759159928
 20
5.558007045111341
 30
0.0
 10
25.227404553017927
 20
5.407188304115661
 30
0.0
 10
25.118242665809376
 20
5.28250266784964
 30
0.0
 10
25.00865256315784
 20
5.183780180382858
 30
0.0
 10
24.901036350080297
 20
5.1106688735296855
 30
0.0
 10
24.79775525880176
 20
5.062637437887877
 30
0.0
 10
24.70111751266639
 20
5.038978685263469
 30
0.0
 10
24.613366450054492
 20
5.038813784958994
 30
0.0
 10
24.536668951343803
 20
5.0610972604248445
 30
0.0
 10
24.231386367451414
 20
5.259350088474902
 30
0.0
 10
23.95171633248476
 20
5.420817658447171
 30
0.0
 10
23.627383055073594
 20
5.586073717406099
 30
0.0
 10
23.569736249881657
 20
5.641353961963147
 30
0.0
 10
23.526003526428603
 20
5.7174310615463755
 30
0.0
 10
23.498173734336177
 20
5.81295118092061
 30
0.0
 10
23.4881296319617
 20
5.92641094757518
 30
0.0
 10
23.49763777445524
 20
6.0561649753887545
 30
0.0
 10
23.528338905208283
 20
6.200434032018349
 30
0.0
 10
23.581738890094684
 20
6.357313817600482
 30
0.0
 10
23.659200231874927
 20
6.524784320008201
 30
0.0
 10
23.761934199967342
 20
6.7007197096860045
 30
0.0
 10
23.779125668499006
 20
6.7251641147056915
 30
0.0
 10
23.78100579836448
 20
6.7312686421068015
 30
0.0
 10
23.794379520963233
 20
6.784439864698928
 30
0.0
 10
23.80877441956053
 20
6.857687576854576
 30
0.0
 10
23.822115229462696
 20
6.951211096101686
 30
0.0
 10
23.832311426365262
 20
7.065047071063291
 30
0.0
 10
23.837268586091113
 20
7.199068577940612
 30
0.0
 10
23.834899789331715
 20
7.352984961076468
 30
0.0
 10
23.823137024606957
 20
7.526342419425253
 30
0.0
 10
23.799942542612655
 20
7.7185253379003065
 30
0.0
 10
23.76332011524912
 20
7.928758359706896
 30
0.0
 10
23.711326152919174
 20
8.156109192928533
 30
0.0
 10
23.64208063414961
 20
8.39949214180321
 30
0.0
 10
23.59997295563745
 20
8.522606757517714
 30
0.0
 10
23.31522299021605
 20
8.608984715185603
 30
0.0
 10
23.025433307600427
 20
8.676554192228899
 30
0.0
 10
22.927409680457302
 20
8.590987646699096
 30
0.0
 10
22.74574982766721
 20
8.414834589510363
 30
0.0
 10
22.58704631883532
 20
8.243939973533912
 30
0.0
 10
22.45021385548612
 20
8.080184049615811
 30
0.0
 10
22.33403538561503
 20
7.9253460010416354
 30
0.0
 10
22.23716980336991
 20
7.781095420537705
 30
0.0
 10
22.15816017363189
 20
7.648984321063488
 30
0.0
 10
22.095442446446633
 20
7.530439711591228
 30
0.0
 10
22.04735462450535
 20
7.426756766958553
 30
0.0
 10
22.012146345164037
 20
7.339092618488228
 30
0.0
 10
21.987988836956376
 20
7.268460789693695
 30
0.0
 10
21.972985209174016
 20
7.215726298879315
 30
0.0
 10
21.97156118570043
 20
7.209499558138038
 30
0.0
 10
21.974227231666344
 20
7.179734348145745
 30
0.0
 10
21.975229763027038
 20
6.97600284721385
 30
0.0
 10
21.95857800161395
 20
6.79223846685413
 30
0.0
 10
21.926383852299303
 20
6.629676594756452
 30
0.0
 10
21.88083728313312
 20
6.48938536135966
 30
0.0
 10
21.824194562175474
 20
6.372261005782162
 30
0.0
 10
21.758766231218587
 20
6.279024016696852
 30
0.0
 10
21.68690486441309
 20
6.210216062834578
 30
0.0
 10
21.610992665134344
 20
6.166197723675861
 30
0.0
 10
21.533428945111236
 20
6.147147030158551
 30
0.0
 10
21.169920058102445
 20
6.166197723675814
 30
0.0
 10
20.846984918157908
 20
6.166197723675814
 30
0.0
 10
20.483476031147706
 20
6.14714703015796
 30
0.0
 10
20.405912311125956
 20
6.166197723675814
 30
0.0
 10
20.330000111847315
 20
6.210216062834599
 30
0.0
 10
20.25813874522612
 20
6.2790240167389975
 30
0.0
 10
20.192710414084328
 20
6.372261005782069
 30
0.0
 10
20.136067693119745
 20
6.489385361358748
 30
0.0
 10
20.090521123961988
 20
6.629676594756514
 30
0.0
 10
20.058326974644253
 20
6.792238466854097
 30
0.0
 10
20.04167521323331
 20
6.976002847213847
 30
0.0
 10
20.042677744594023
 20
7.179734348145747
 30
0.0
 10
20.04534379056096
 20
7.209499558139022
 30
0.0
 10
20.04391976708632
 20
7.215726298879219
 30
0.0
 10
20.02891613930394
 20
7.268460789693655
 30
0.0
 10
20.00475863109628
 20
7.339092618488185
 30
0.0
 10
19.96955035175506
 20
7.426756766958588
 30
0.0
 10
19.921462529813866
 20
7.53043971159119
 30
0.0
 10
19.85874480262841
 20
7.648984321063346
 30
0.0
 10
19.77973517289044
 20
7.781095420537918
 30
0.0
 10
19.68286959064567
 20
7.925346001041088
 30
0.0
 10
19.566691120773456
 20
8.080184049616769
 30
0.0
 10
19.429858657425086
 20
8.243939973533873
 30
0.0
 10
19.271155148593127
 20
8.414834589510397
 30
0.0
 10
19.089495295803115
 20
8.590987646699057
 30
0.0
 10
18.991471668659944
 20
8.676554192228897
 30
0.0
 10
18.701681986044324
 20
8.608984715185604
 30
0.0
 10
18.416932020622916
 20
8.522606757517718
 30
0.0
 10
18.374824342110777
 20
8.399492141803266
 30
0.0
 10
18.305578823341186
 20
8.156109192928486
 30
0.0
 10
18.253584861011266
 20
7.928758359706949
 30
0.0
 10
18.216962433647506
 20
7.71852533789908
 30
0.0
 10
18.193767951653424
 20
7.52634241942589
 30
0.0
 10
18.18200518692874
 20
7.352984961076272
 30
0.0
 10
18.179636390169126
 20
7.1990685779407
 30
0.0
 10
18.1845935498952
 20
7.065047071063389
 30
0.0
 10
18.194789746797724
 20
6.951211096101675
 30
0.0
 10
18.20813055669977
 20
6.857687576854585
 30
0.0
 10
18.222525455297074
 20
6.784439864698936
 30
0.0
 10
18.23589917789581
 20
6.731268642106866
 30
0.0
 10
18.23777930776274
 20
6.725164114705348
 30
0.0
 10
18.254970776293025
 20
6.700719709686001
 30
0.0
 10
18.357704744385423
 20
6.5247843200081945
 30
0.0
 10
18.435166086163793
 20
6.357313817599426
 30
0.0
 10
18.488566071052915
 20
6.200434032018756
 30
0.0
 10
18.519267201798172
 20
6.056164975385792
 30
0.0
 10
18.528775344298133
 20
5.9264109475749756
 30
0.0
 10
18.518731242104906
 20
5.812951180976278
 30
0.0
 10
18.49090144983181
 20
5.717431061546374
 30
0.0
 10
18.447168726378628
 20
5.641353961963153
 30
0.0
 10
18.38952192118525
 20
5.586073717405896
 30
0.0
 10
18.065188643775596
 20
5.420817658447163
 30
0.0
 10
17.785518608808946
 20
5.259350088474893
 30
0.0
 10
17.480236024915627
 20
5.061097260423621
 30
0.0
 10
17.403538526205843
 20
5.038813784958917
 30
0.0
 10
17.315787463594
 20
5.038978685263504
 30
0.0
 10
17.21914971759718
 20
5.062637438016544
 30
0.0
 10
17.115868626179626
 20
5.1106688735293195
 30
0.0
 10
17.008252413096486
 20
5.183780180378314
 30
0.0
 10
16.898662310451762
 20
5.282502667850153
 30
0.0
 10
16.789500423240582
 20
5.407188304114548
 30
0.0
 10
16.683197384661078
 20
5.558007045111328
 30
0.0
 10
16.582199851821592
 20
5.7349449661498415
 30
0.0
 10
16.569626110359977
 20
5.762055417136464
 30
0.0
 10
16.565279499485257
 20
5.766735921062934
 30
0.0
 10
16.52591873126957
 20
5.804903515872684
 30
0.0
 10
16.46968180107234
 20
5.8539937198206715
 30
0.0
 10
16.395358462504106
 20
5.91230895972656
 30
0.0
 10
16.301871714774066
 20
5.978057112746972
 30
0.0
 10
16.188284265027765
 20
6.049360892438836
 30
0.0
 10
16.05380436879379
 20
6.124267645836723
 30
0.0
 10
15.897791023565865
 20
6.200759521940736
 30
0.0
 10
15.719758492995883
 20
6.276763970543576
 30
0.0
 10
15.51938014171524
 20
6.3501645290017965
 30
0.0
 10
15.296491563408772
 20
6.418811853391471
 30
0.0
 10
15.05109298745055
 20
6.480534949476137
 30
0.0
 10
14.92341876340855
 20
6.505625938047472
 30
0.0
 10
14.706238275030447
 20
6.302214213099746
 30
0.0
 10
14.502826550082712
 20
6.085033724721636
 30
0.0
 10
14.527917538654036
 20
5.957359500679695
 30
0.0
 10
14.589640634738728
 20
5.71196092472137
 30
0.0
 10
14.658287959128376
 20
5.489072346414997
 30
0.0
 10
14.731688517587042
 20
5.288693995133135
 30
0.0
 10
14.80769296618914
 20
5.110661464564879
 30
0.0
 10
14.884184842293637
 20
4.954648119336267
 30
0.0
 10
14.959091595691191
 20
4.820168223102434
 30
0.0
 10
15.030395375383245
 20
4.706580773356248
 30
0.0
 10
15.096143528403676
 20
4.613094025626098
 30
0.0
 10
15.154458768309453
 20
4.538770687057818
 30
0.0
 10
15.20354897225744
 20
4.482533756860588
 30
0.0
 10
15.241716567067149
 20
4.443172988644947
 30
0.0
 10
15.246397070995084
 20
4.438826377770597
 30
0.0
 10
15.273507521980346
 20
4.426252636308589
 30
0.0
 10
15.450445443018845
 20
4.325255103469093
 30
0.0
 10
15.601264184014525
 20
4.21895206488774
 30
0.0
 10
15.725949820280546
 20
4.109790177679189
 30
0.0
 10
15.824672307747328
 20
4.000200075027653
 30
0.0
 10
15.8977836146005
 20
3.8925838619501114
 30
0.0
 10
15.94581505024231
 20
3.7893027706715747
 30
0.0
 10
15.969473802866716
 20
3.692665024536205
 30
0.0
 10
15.969638703171192
 20
3.6049139619243062
 30
0.0
 10
15.94735522770534
 20
3.5282164632136173
 30
0.0
 10
15.749102399655284
 20
3.2229338793212285
 30
0.0
 10
15.587634829683015
 20
2.943263844354577
 30
0.0
 10
15.422378770724087
 20
2.6189305669434075
 30
0.0
 10
15.367098526167041
 20
2.5612837617514748
 30
0.0
 10
15.29102142658381
 20
2.517551038298416
 30
0.0
 10
15.195501307209575
 20
2.4897212462059928
 30
0.0
 10
15.082041540555007
 20
2.479677143831516
 30
0.0
 10
14.952287512741432
 20
2.4891852863250543
 30
0.0
 10
14.808018456111837
 20
2.519886417078098
 30
0.0
 10
14.651138670529704
 20
2.5732864019644994
 30
0.0
 10
14.483668168121985
 20
2.650747743744743
 30
0.0
 10
14.307732778444182
 20
2.753481711837159
 30
0.0
 10
14.283288373424494
 20
2.77067318036882
 30
0.0
 10
14.277183846023386
 20
2.7725533102342945
 30
0.0
 10
14.224012623431257
 20
2.785927032833047
 30
0.0
 10
14.15076491127561
 20
2.800321931430347
 30
0.0
 10
14.0572413920285
 20
2.8136627413325126
 30
0.0
 10
13.943405417066895
 20
2.8238589382350767
 30
0.0
 10
13.809383910189574
 20
2.8288160979609294
 30
0.0
 10
13.655467527053718
 20
2.8264473012015308
 30
0.0
 10
13.482110068704934
 20
2.8146845364767734
 30
0.0
 10
13.28992715022988
 20
2.7914900544824706
 30
0.0
 10
13.079694128423291
 20
2.754867627118933
 30
0.0
 10
12.852343295201656
 20
2.7028736647889886
 30
0.0
 10
12.608960346326976
 20
2.6336281460194266
 30
0.0
 10
12.485845730612471
 20
2.5915204675072667
 30
0.0
  0
ENDSEC
  0
EOF
