999
DXF generated by OpenJsCad
  0
SECTION
  2
HEADER
  0
ENDSEC
  0
SECTION
  2
TABLES
  0
TABLE
  2
LTYPE
  70
1
  0
LTYPE
  2
CONTINUOUS
  3
Solid Line
  72
65
  73
0
  40
0.0
  0
ENDTAB
  0
TABLE
  2
LAYER
  70
1
  0
LAYER
  2
OpenJsCad
  62
7
  6
continuous
  0
ENDTAB
  0
TABLE
  2
STYLE
  70
0
  0
ENDTAB
  0
TABLE
  2
VIEW
  70
0
  0
ENDTAB
  0
ENDSEC
  0
SECTION
  2
BLOCKS
  0
ENDSEC
  0
SECTION
  2
ENTITIES
  0
LWPOLYLINE
  8
OpenJsCad
  90
1408
  70
1
 10
13.876247565701497
 20
-4.654032679506819
 30
0.0
 10
13.99174046830515
 20
-4.315880356865642
 30
0.0
 10
14.086803740040287
 20
-3.971426327673865
 30
0.0
 10
14.043940601689407
 20
-3.926556480767616
 30
0.0
 10
13.89342289193045
 20
-3.7781465474296967
 30
0.0
 10
13.74683116047775
 20
-3.6420122285434218
 30
0.0
 10
13.604757706894006
 20
-3.5177788839193154
 30
0.0
 10
13.467775726924716
 20
-3.4050476491847337
 30
0.0
 10
13.336438400109003
 20
-3.3033962493603406
 30
0.0
 10
13.211278009281052
 20
-3.212379845243097
 30
0.0
 10
13.092805092819445
 20
-3.1315319111898794
 30
0.0
 10
12.981507630942792
 20
-3.0603651432692915
 30
0.0
 10
12.877850267027084
 20
-2.9983723964435116
 30
0.0
 10
12.78227356493518
 20
-2.9450276495170895
 30
0.0
 10
12.695193303362023
 20
-2.899786996538703
 30
0.0
 10
12.61699980805175
 20
-2.8620896632782387
 30
0.0
 10
12.548057322794001
 20
-2.8313590474100305
 30
0.0
 10
12.488703401571549
 20
-2.8070038228118626
 30
0.0
 10
12.439248220093273
 20
-2.7884184013602
 30
0.0
 10
12.399984293409403
 20
-2.774989680952686
 30
0.0
 10
12.371128837424239
 20
-2.7660753727320717
 30
0.0
 10
12.352961985785255
 20
-2.76105325258838
 30
0.0
 10
12.345644960983453
 20
-2.7592642952163304
 30
0.0
 10
12.31244334089257
 20
-2.752192185547309
 30
0.0
 10
12.188743852962476
 20
-2.720903157803244
 30
0.0
 10
12.077969816763446
 20
-2.685033271864897
 30
0.0
 10
11.980273898916671
 20
-2.645328662189801
 30
0.0
 10
11.895775674977637
 20
-2.602540177022995
 30
0.0
 10
11.824561636954726
 20
-2.5574216846264997
 30
0.0
 10
11.766684369842457
 20
-2.510730712826933
 30
0.0
 10
11.722164047286682
 20
-2.46322307286741
 30
0.0
 10
11.690986808356152
 20
-2.4156558452920964
 30
0.0
 10
11.673105735840462
 20
-2.3687836655838383
 30
0.0
 10
11.668440720870885
 20
-2.323358038780656
 30
0.0
 10
11.73638409092835
 20
-1.9489592107462153
 30
0.0
 10
11.789435287634262
 20
-1.5969875182992583
 30
0.0
 10
11.834866442731593
 20
-1.2191955198200362
 30
0.0
 10
11.85271364272618
 20
-1.1771630634621069
 30
0.0
 10
11.883616126865453
 20
-1.1376438218329354
 30
0.0
 10
11.92742893499401
 20
-1.1013795251052545
 30
0.0
 10
11.983974472025164
 20
-1.0691051646617715
 30
0.0
 10
12.053042790777868
 20
-1.0415477063189889
 30
0.0
 10
12.1343919225313
 20
-1.0194248147218292
 30
0.0
 10
12.22774825487222
 20
-1.0034435906103962
 30
0.0
 10
12.33280695635261
 20
-0.9942993226445722
 30
0.0
 10
12.449232447417486
 20
-0.9926742554541085
 30
0.0
 10
12.576658917002913
 20
-0.9992363755630279
 30
0.0
 10
12.610470023188743
 20
-1.0022648092043263
 30
0.0
 10
12.61798927755084
 20
-1.0027120611105667
 30
0.0
 10
12.63683842606715
 20
-1.003268101737864
 30
0.0
 10
12.667020575593567
 20
-1.0032551543933437
 30
0.0
 10
12.708508418358035
 20
-1.0019956571405824
 30
0.0
 10
12.761244256662815
 20
-0.9988134758295889
 30
0.0
 10
12.825140072938643
 20
-0.9930351155689368
 30
0.0
 10
12.90007764506164
 20
-0.9839909290143009
 30
0.0
 10
12.985908706810308
 20
-0.9710163198478354
 30
0.0
 10
13.082455153249413
 20
-0.9534529398334364
 30
0.0
 10
13.189509290787107
 20
-0.9306498776807018
 30
0.0
 10
13.306834131804337
 20
-0.901964839189798
 30
0.0
 10
13.434163732812884
 20
-0.8667653138774253
 30
0.0
 10
13.571203576904281
 20
-0.8244297318491863
 30
0.0
 10
13.71763099880535
 20
-0.7743486040237753
 30
0.0
 10
13.87309565277452
 20
-0.7159256473555444
 30
0.0
 10
14.037220022485942
 20
-0.6485788924716247
 30
0.0
 10
14.209599972316934
 20
-0.5717417723672447
 30
0.0
 10
14.389805339353057
 20
-0.4848641906767479
 30
0.0
 10
14.577380565373183
 20
-0.3874135680624682
 30
0.0
 10
14.631565034302566
 20
-0.3571712943794836
 30
0.0
 10
14.64225476445437
 20
-8.797773179207941e-16
 30
0.0
 10
14.631565034302564
 20
0.357171294379488
 30
0.0
 10
14.577380565373172
 20
0.3874135680624744
 30
0.0
 10
14.389805339352973
 20
0.48486419067679387
 30
0.0
 10
14.209599972317035
 20
0.5717417723671998
 30
0.0
 10
14.03722002248596
 20
0.6485788924716167
 30
0.0
 10
13.873095652788818
 20
0.7159256473496782
 30
0.0
 10
13.717630998814723
 20
0.7743486040197354
 30
0.0
 10
13.571203576908136
 20
0.8244297318467851
 30
0.0
 10
13.434163732812634
 20
0.8667653138774217
 30
0.0
 10
13.306834131799592
 20
0.9019648391910854
 30
0.0
 10
13.189509290819421
 20
0.9306498778338365
 30
0.0
 10
13.08245515324947
 20
0.9534529398335508
 30
0.0
 10
12.98590870681031
 20
0.9710163198479619
 30
0.0
 10
12.900077645062433
 20
0.9839909290143413
 30
0.0
 10
12.825140072946827
 20
0.9930351155765925
 30
0.0
 10
12.76124425143563
 20
0.9988134304795201
 30
0.0
 10
12.708508075768286
 20
1.001995983160651
 30
0.0
 10
12.667030350354967
 20
1.003254857640816
 30
0.0
 10
12.636829322842665
 20
1.0032678331972174
 30
0.0
 10
12.617989277550834
 20
1.002712061110574
 30
0.0
 10
12.610470023188757
 20
1.0022648092043915
 30
0.0
 10
12.576658917002922
 20
0.9992363755630324
 30
0.0
 10
12.449232447417405
 20
0.9926742554553746
 30
0.0
 10
12.332806956352584
 20
0.9942993226446649
 30
0.0
 10
12.22774825487219
 20
1.0034435906103807
 30
0.0
 10
12.1343919225307
 20
1.0194248147020029
 30
0.0
 10
12.0530428153103
 20
1.041548112876214
 30
0.0
 10
11.9839744672484
 20
1.0691051118415043
 30
0.0
 10
11.927428935007155
 20
1.1013795252141463
 30
0.0
 10
11.883616126865439
 20
1.137643821833138
 30
0.0
 10
11.852713642726227
 20
1.1771630634622536
 30
0.0
 10
11.834866442731618
 20
1.2191955198201778
 30
0.0
 10
11.789435287635467
 20
1.5969875182994442
 30
0.0
 10
11.736384090927144
 20
1.9489592107460376
 30
0.0
 10
11.66844072087082
 20
2.3233580387807846
 30
0.0
 10
11.67310573584037
 20
2.3687836655839645
 30
0.0
 10
11.690986808356106
 20
2.415655845292294
 30
0.0
 10
11.722164047242025
 20
2.46322307296759
 30
0.0
 10
11.76668438997605
 20
2.510730663761298
 30
0.0
 10
11.824561493677352
 20
2.5574220658904667
 30
0.0
 10
11.895775674984053
 20
2.602540177004226
 30
0.0
 10
11.980273898916703
 20
2.645328662189795
 30
0.0
 10
12.07796981676344
 20
2.6850332718649934
 30
0.0
 10
12.188743852962181
 20
2.7209031578044787
 30
0.0
 10
12.312443340892559
 20
2.752192185547311
 30
0.0
 10
12.34564496098342
 20
2.759264295216388
 30
0.0
 10
12.352961985785258
 20
2.761053252588389
 30
0.0
 10
12.371137615371746
 20
2.766077799344454
 30
0.0
 10
12.399975040382568
 20
2.774986516222539
 30
0.0
 10
12.439248451366616
 20
2.7884188138762127
 30
0.0
 10
12.488703419933671
 20
2.8070037810173103
 30
0.0
 10
12.548057322783922
 20
2.8313590474149333
 30
0.0
 10
12.616999808050979
 20
2.8620896632780433
 30
0.0
 10
12.695193303361982
 20
2.8997869965388237
 30
0.0
 10
12.78227356493509
 20
2.945027649517182
 30
0.0
 10
12.87785026695107
 20
2.9983723965803186
 30
0.0
 10
12.981507630946947
 20
3.06036514327192
 30
0.0
 10
13.092805092819685
 20
3.1315319111899496
 30
0.0
 10
13.211278009278075
 20
3.212379845239666
 30
0.0
 10
13.336438400101235
 20
3.303396249353717
 30
0.0
 10
13.467775726912782
 20
3.4050476491749135
 30
0.0
 10
13.604757706893988
 20
3.517778883919302
 30
0.0
 10
13.746831160477665
 20
3.6420122285433485
 30
0.0
 10
13.893422891930516
 20
3.778146547429764
 30
0.0
 10
14.043940601689412
 20
3.926556480767625
 30
0.0
 10
14.086803740040287
 20
3.9714263276738695
 30
0.0
 10
13.99174046830515
 20
4.31588035686564
 30
0.0
 10
13.876247565701497
 20
4.654032679506815
 30
0.0
 10
13.815556294042597
 20
4.666960221233775
 30
0.0
 10
13.607590433753371
 20
4.704792617650196
 30
0.0
 10
13.409783468813565
 20
4.734694007755554
 30
0.0
 10
13.222413737754602
 20
4.757307588024857
 30
0.0
 10
13.045730148825129
 20
4.773285808329116
 30
0.0
 10
12.87995188444365
 20
4.78328918575978
 30
0.0
 10
12.725268150480986
 20
4.787985109311794
 30
0.0
 10
12.581837970288923
 20
4.788046637069786
 30
0.0
 10
12.44979002396625
 20
4.7841512874818335
 30
0.0
 10
12.329222532914287
 20
4.776979826375928
 30
0.0
 10
12.220203189788727
 20
4.7672150513206715
 30
0.0
 10
12.122769133936782
 20
4.755540574981203
 30
0.0
 10
12.036926972251011
 20
4.742639609090929
 30
0.0
 10
11.962652845418141
 20
4.729193750681409
 30
0.0
 10
11.89989254776166
 20
4.7158817272522535
 30
0.0
 10
11.848561218542187
 20
4.703378627390733
 30
0.0
 10
11.808555172324393
 20
4.692355799421507
 30
0.0
 10
11.779692067114448
 20
4.683466289378567
 30
0.0
 10
11.761852848872127
 20
4.6773820078504516
 30
0.0
 10
11.75479948369755
 20
4.6747382869606335
 30
0.0
 10
11.723383156578969
 20
4.661878399627992
 30
0.0
 10
11.60355210636255
 20
4.618048204837566
 30
0.0
 10
11.491820076237904
 20
4.585284058926541
 30
0.0
 10
11.38873351779294
 20
4.563055476845164
 30
0.0
 10
11.294814196865053
 20
4.550809437968614
 30
0.0
 10
11.210558245618373
 20
4.547971789791268
 30
0.0
 10
11.136435842433595
 20
4.553946255632318
 30
0.0
 10
11.072889419192494
 20
4.56811971915599
 30
0.0
 10
11.020334002112326
 20
4.589858842920817
 30
0.0
 10
10.979155927678681
 20
4.618513688424708
 30
0.0
 10
10.949712344699705
 20
4.653418206133576
 30
0.0
 10
10.794943421951572
 20
5.001034898079907
 30
0.0
 10
10.64050366346789
 20
5.321732361049926
 30
0.0
 10
10.465222834851982
 20
5.659471039747115
 30
0.0
 10
10.456291157744374
 20
5.704253570707005
 30
0.0
 10
10.459562006873753
 20
5.754313889632234
 30
0.0
 10
10.47533344202296
 20
5.808957491330854
 30
0.0
 10
10.50387276263363
 20
5.867477054549139
 30
0.0
 10
10.54541601663019
 20
5.929153664483673
 30
0.0
 10
10.60016755496277
 20
5.993258052944005
 30
0.0
 10
10.668299632476387
 20
6.059051854520797
 30
0.0
 10
10.749952055657316
 20
6.125788877094919
 30
0.0
 10
10.845231877749809
 20
6.192716385005301
 30
0.0
 10
10.954213141676263
 20
6.259076393175298
 30
0.0
 10
10.983855166024169
 20
6.275620658175211
 30
0.0
 10
10.990319811501871
 20
6.279486868112241
 30
0.0
 10
11.006206937707342
 20
6.289645549222531
 30
0.0
 10
11.031137306439405
 20
6.306658457044303
 30
0.0
 10
11.064706670728576
 20
6.331070036505694
 30
0.0
 10
11.106486478571165
 20
6.363406433587622
 30
0.0
 10
11.156024613257284
 20
6.404174533821462
 30
0.0
 10
11.212846169303308
 20
6.453861028914523
 30
0.0
 10
11.276454262971763
 20
6.512931512777375
 30
0.0
 10
11.346330876292669
 20
6.58182960816723
 30
0.0
 10
11.421937733381364
 20
6.660976125264642
 30
0.0
 10
11.502717208672005
 20
6.750768252562705
 30
0.0
 10
11.588093263500673
 20
6.851578783446658
 30
0.0
 10
11.6774724137889
 20
6.9637553757822195
 30
0.0
 10
11.770244723552187
 20
7.087619849260466
 30
0.0
 10
11.86578482535454
 20
7.223467519270695
 30
0.0
 10
11.963452965548683
 20
7.371566568955639
 30
0.0
 10
12.062596073055053
 20
7.532157460240451
 30
0.0
 10
12.162548850277826
 20
7.705452384674109
 30
0.0
 10
12.26263488472733
 20
7.891634754872217
 30
0.0
 10
12.29036811455543
 20
7.947145292196022
 30
0.0
 10
12.097998629805318
 20
8.24827580409478
 30
0.0
 10
11.887964605978407
 20
8.537362837173948
 30
0.0
 10
11.826159217416148
 20
8.531826978130855
 30
0.0
 10
11.616281402187738
 20
8.506679573903046
 30
0.0
 10
11.418448856240534
 20
8.476947902692402
 30
0.0
 10
11.232737966816792
 20
8.443328627281602
 30
0.0
 10
11.059194270894533
 20
8.406518578018762
 30
0.0
 10
10.897832522401893
 20
8.367213532226218
 30
0.0
 10
10.748636804964118
 20
8.326106998087878
 30
0.0
 10
10.61156068961854
 20
8.283889004561917
 30
0.0
 10
10.486527437499873
 20
8.241244898977698
 30
0.0
 10
10.373430247057806
 20
8.198854153913835
 30
0.0
 10
10.272132545436847
 20
8.157389184919277
 30
0.0
 10
10.182468323616881
 20
8.117514180681287
 30
0.0
 10
10.104242514771116
 20
8.079883947168668
 30
0.0
 10
10.037231415336716
 20
8.045142767313239
 30
0.0
 10
9.981183169400763
 20
8.013923237252534
 30
0.0
 10
9.93581770049414
 20
7.986845440140007
 30
0.0
 10
9.900838046241962
 20
7.96452033635934
 30
0.0
 10
9.875877476895928
 20
7.9475182126953445
 30
0.0
 10
9.860624178530067
 20
7.936446036839961
 30
0.0
 10
9.854663424991934
 20
7.931840753169347
 30
0.0
 10
9.828433355473372
 20
7.9102920695696115
 30
0.0
 10
9.726845239307686
 20
7.833088305249192
 30
0.0
 10
9.629734551327724
 20
7.768846184385132
 30
0.0
 10
9.537779829023936
 20
7.717219859323117
 30
0.0
 10
9.451642663332247
 20
7.677834671773435
 30
0.0
 10
9.371966379078708
 20
7.650288214737902
 30
0.0
 10
9.299376021574826
 20
7.6341492899462216
 30
0.0
 10
9.234475085907729
 20
7.628962429187625
 30
0.0
 10
9.177846839332329
 20
7.634244763551211
 30
0.0
 10
9.130052027224682
 20
7.64948910415714
 30
0.0
 10
9.091628252820062
 20
7.674164263642563
 30
0.0
 10
8.841273460398346
 20
7.960718380485801
 30
0.0
 10
8.599167790428298
 20
8.221646237036722
 30
0.0
 10
8.332123974082576
 20
8.492715202652331
 30
0.0
 10
8.31038922360484
 20
8.532875513368241
 30
0.0
 10
8.298759220048831
 20
8.581675892487775
 30
0.0
 10
8.297723490236518
 20
8.6385405443993
 30
0.0
 10
8.307745944844832
 20
8.70287236004134
 30
0.0
 10
8.329264048709483
 20
8.774053940325215
 30
0.0
 10
8.362688029613922
 20
8.851448649899943
 30
0.0
 10
8.408400126628724
 20
8.93440169986652
 30
0.0
 10
8.466753879018464
 20
9.022241258013253
 30
0.0
 10
8.538073456683179
 20
9.114279585110165
 30
0.0
 10
8.622653033049444
 20
9.20981419576532
 30
0.0
 10
8.646101637709204
 20
9.234360585547519
 30
0.0
 10
8.651139491742446
 20
9.239960518330088
 30
0.0
 10
8.66332647368404
 20
9.254350690397317
 30
0.0
 10
8.682134613470375
 20
9.277956117642896
 30
0.0
 10
8.707017145730848
 20
9.311177902948405
 30
0.0
 10
8.737409473574495
 20
9.354392499184495
 30
0.0
 10
8.772730159435092
 20
9.407951008640914
 30
0.0
 10
8.812381941648106
 20
9.472178519829313
 30
0.0
 10
8.855752775412048
 20
9.547373482576475
 30
0.0
 10
8.902216896738722
 20
9.633807122248127
 30
0.0
 10
8.951135907852574
 20
9.731722894006941
 30
0.0
 10
9.001859883563519
 20
9.84133597735477
 30
0.0
 10
9.053728494209945
 20
9.962832813135877
 30
0.0
 10
9.106072148590957
 20
10.096370681249404
 30
0.0
 10
9.158213150447327
 20
10.242077322053015
 30
0.0
 10
9.209466869924514
 20
10.400050600614188
 30
0.0
 10
9.259142927465772
 20
10.570358214753204
 30
0.0
 10
9.306546388710535
 20
10.753037447266609
 30
0.0
 10
9.350978968811448
 20
10.948094962719331
 30
0.0
 10
9.39174024457039
 20
11.155506649137708
 30
0.0
 10
9.40187934670022
 20
11.216725522033874
 30
0.0
 10
9.129296521854753
 20
11.447775749167931
 30
0.0
 10
8.84338382154074
 20
11.662110841158459
 30
0.0
 10
8.785955996077359
 20
11.638603466715011
 30
0.0
 10
8.592814790826433
 20
11.552710719066175
 30
0.0
 10
8.412534953753067
 20
11.465987776001889
 30
0.0
 10
8.244984133468662
 20
11.379122865066995
 30
0.0
 10
8.090000449520275
 20
11.292795280652296
 30
0.0
 10
7.9473929163944135
 20
11.207674237442568
 30
0.0
 10
7.816941909710498
 20
11.12441774156512
 30
0.0
 10
7.698399673608481
 20
11.0436714807506
 30
0.0
 10
7.591490868843955
 20
10.966067735091848
 30
0.0
 10
7.495913160701406
 20
10.892224309797673
 30
0.0
 10
7.411337845911713
 20
10.822743491324998
 30
0.0
 10
7.337410517717379
 20
10.758211028303602
 30
0.0
 10
7.273751768115878
 20
10.699195138553796
 30
0.0
 10
7.219957926338062
 20
10.646245543541768
 30
0.0
 10
7.175601864737721
 20
10.599892499100058
 30
0.0
 10
7.14023317713938
 20
10.56064598583893
 30
0.0
 10
7.11338801063881
 20
10.529002289689835
 30
0.0
 10
7.094547833280739
 20
10.505398265704924
 30
0.0
 10
7.083235777289139
 20
10.490322006936468
 30
0.0
 10
7.078897274497652
 20
10.484164360149144
 30
0.0
 10
7.060184119364599
 20
10.455841575384994
 30
0.0
 10
6.98586548718307
 20
10.352124134797585
 30
0.0
 10
6.912004852138047
 20
10.262112233341167
 30
0.0
 10
6.839352546588779
 20
10.185675390838671
 30
0.0
 10
6.7686512013117195
 20
10.122650601368692
 30
0.0
 10
6.7006341715608615
 20
10.072842959068218
 30
0.0
 10
6.6360258315596345
 20
10.036024657936053
 30
0.0
 10
6.575537116413625
 20
10.011938348235752
 30
0.0
 10
6.519867708560185
 20
10.000294534608749
 30
0.0
 10
6.469702937578382
 20
10.000773843755189
 30
0.0
 10
6.425713092723921
 20
10.013027148811739
 30
0.0
 10
6.102017552599204
 20
10.213057099748331
 30
0.0
 10
5.793758122382861
 20
10.39103076476257
 30
0.0
 10
5.458679333292129
 20
10.571344350135087
 30
0.0
 10
5.426072737405594
 20
10.603314020759289
 30
0.0
 10
5.40057525801758
 20
10.64651833223142
 30
0.0
 10
5.382824392382793
 20
10.700551360487095
 30
0.0
 10
5.373439441913983
 20
10.764979264417578
 30
0.0
 10
5.373020417687708
 20
10.839341019267348
 30
0.0
 10
5.382146973781927
 20
10.923149190369669
 30
0.0
 10
5.401377369873915
 20
11.015890746203034
 30
0.0
 10
5.43124746449141
 20
11.117027909703491
 30
0.0
 10
5.4722697402720275
 20
11.225999046720824
 30
0.0
 10
5.524932362546604
 20
11.342219590457699
 30
0.0
 10
5.540104036091691
 20
11.372587050569972
 30
0.0
 10
5.543267463241361
 20
11.379423127595452
 30
0.0
 10
5.550671434091876
 20
11.396766160681214
 30
0.0
 10
5.561686159174307
 20
11.42486666154912
 30
0.0
 10
5.575670937219545
 20
11.46394675128295
 30
0.0
 10
5.591975293360805
 20
11.514199740153495
 30
0.0
 10
5.609940132454892
 20
11.57578975022964
 30
0.0
 10
5.628898905976286
 20
11.648851381286502
 30
0.0
 10
5.6481787909260195
 20
11.733489420490226
 30
0.0
 10
5.667101879174151
 20
11.82977859625107
 30
0.0
 10
5.68498637549815
 20
11.937763376654226
 30
0.0
 10
5.701147803788978
 20
12.057457812567275
 30
0.0
 10
5.714900216575581
 20
12.188845426206306
 30
0.0
 10
5.725557411651281
 20
12.331879144494627
 30
0.0
 10
5.732434148768778
 20
12.48648127816514
 30
0.0
 10
5.734847368022009
 20
12.65254354622278
 30
0.0
 10
5.732117407198051
 20
12.829927145916963
 30
0.0
 10
5.723569216622945
 20
13.018462868175536
 30
0.0
 10
5.708533569870868
 20
13.21795125840354
 30
0.0
 10
5.6863482687101525
 20
13.428162822492721
 30
0.0
 10
5.677992339422759
 20
13.489650465449824
 30
0.0
 10
5.34941635467949
 20
13.630090581191098
 30
0.0
 10
5.013029576008492
 20
13.750629118575565
 30
0.0
 10
4.9650820279542724
 20
13.71123896211148
 30
0.0
 10
4.805838876353593
 20
13.57223281860433
 30
0.0
 10
4.659130402823069
 20
13.436224317755029
 30
0.0
 10
4.5246272773449325
 20
13.30383209983299
 30
0.0
 10
4.401974585823926
 20
13.175657564984046
 30
0.0
 10
4.29079257320593
 20
13.05228390259386
 30
0.0
 10
4.190677421694552
 20
12.93427515000113
 30
0.0
 10
4.101202062727797
 20
12.82217528152055
 30
0.0
 10
4.021917021782301
 20
12.716507329147472
 30
0.0
 10
3.9523512947435986
 20
12.617772536016908
 30
0.0
 10
3.8920132546568915
 20
12.526449543698961
 30
0.0
 10
3.8403915876229964
 20
12.442993614429664
 30
0.0
 10
3.7969562565296706
 20
12.367835889233906
 30
0.0
 10
3.761159491320785
 20
12.30138268294757
 30
0.0
 10
3.732436844782616
 20
12.244014795540487
 30
0.0
 10
3.7102076015986007
 20
12.196086791064493
 30
0.0
 10
3.6938822337012875
 20
12.157936183815893
 30
0.0
 10
3.682836480768197
 20
12.129827580625678
 30
0.0
 10
3.6764707929678555
 20
12.112086830696796
 30
0.0
 10
3.6741400359352396
 20
12.104923954732206
 30
0.0
 10
3.664606541142597
 20
12.072343672522429
 30
0.0
 10
3.6241609295564996
 20
11.951328305420715
 30
0.0
 10
3.5801131890022244
 20
11.843544575827062
 30
0.0
 10
3.533218776384921
 20
11.749088964777991
 30
0.0
 10
3.484235376318101
 20
11.668024602511856
 30
0.0
 10
3.4339212126511063
 20
11.600381402542075
 30
0.0
 10
3.383035624690673
 20
11.546155192699473
 30
0.0
 10
3.332333817856829
 20
11.505309608375368
 30
0.0
 10
3.2825697199143002
 20
11.47777425069657
 30
0.0
 10
3.2344923501045435
 20
11.46344593966245
 30
0.0
 10
3.188845125561816
 20
11.462188630363103
 30
0.0
 10
2.8205706069886594
 20
11.557920876435356
 30
0.0
 10
2.473547619674972
 20
11.63712660875183
 30
0.0
 10
2.100207078718988
 20
11.710663160527771
 30
0.0
 10
2.05962587655986
 20
11.731601545528719
 30
0.0
 10
2.0225264842773103
 20
11.765370896680146
 30
0.0
 10
1.9896377251300932
 20
11.811771229599419
 30
0.0
 10
1.9616792636184908
 20
11.87057051981692
 30
0.0
 10
1.939360343442652
 20
11.941505080982994
 30
0.0
 10
1.9233785401664454
 20
12.024279989824366
 30
0.0
 10
1.9144185302516432
 20
12.118569557299114
 30
0.0
 10
1.9131508781073792
 20
12.224017845343147
 30
0.0
 10
1.920230842777498
 20
12.340239228544954
 30
0.0
 10
1.9362972058651777
 20
12.466819000027069
 30
0.0
 10
1.9418438785213192
 20
12.50030924837304
 30
0.0
 10
1.9428517944026984
 20
12.507774054198086
 30
0.0
 10
1.9448148788602746
 20
12.526528943704067
 30
0.0
 10
1.9470574825779041
 20
12.556627665375165
 30
0.0
 10
1.948901897507399
 20
12.598093622064319
 30
0.0
 10
1.949669568352632
 20
12.650919804976558
 30
0.0
 10
1.9486823058893021
 20
12.71506877299386
 30
0.0
 10
1.9452635004924952
 20
12.790472677374092
 30
0.0
 10
1.9387393342418544
 20
12.877033331823213
 30
0.0
 10
1.9284399899779907
 20
12.974622327848808
 30
0.0
 10
1.9137008555289312
 20
13.083081195274085
 30
0.0
 10
1.8938637225727435
 20
13.202221607851099
 30
0.0
 10
1.8682779752719612
 20
13.331825633291178
 30
0.0
 10
1.8363017724915451
 20
13.471646028191243
 30
0.0
 10
1.7973032165992149
 20
13.621406576691745
 30
0.0
 10
1.7506615105076007
 20
13.780802472976672
 30
0.0
 10
1.6957681003178733
 20
13.949500746958087
 30
0.0
 10
1.6320278021686123
 20
14.127140732663765
 30
0.0
 10
1.5588599117603161
 20
14.31333457875491
 30
0.0
 10
1.475699295046665
 20
14.507667800547319
 30
0.0
 10
1.4495907953286238
 20
14.56396076665454
 30
0.0
 10
1.0942170688639434
 20
14.601312050408126
 30
0.0
 10
0.7372456533299419
 20
14.617343655165264
 30
0.0
 10
0.7030387327438508
 20
14.565570704943225
 30
0.0
 10
0.5918430876401981
 20
14.38580247144679
 30
0.0
 10
0.49174166934523544
 20
14.21259336497641
 30
0.0
 10
0.4022374316293443
 20
14.046437469623275
 30
0.0
 10
0.32281396242983146
 20
13.887804854246095
 30
0.0
 10
0.2529364800550336
 20
13.737140863995219
 30
0.0
 10
0.19205285427608537
 20
13.59486545022795
 30
0.0
 10
0.13959465074493332
 20
13.461372539337983
 30
0.0
 10
0.09497819744314658
 20
13.337029441535101
 30
0.0
 10
0.05760567163984528
 20
13.222176300228297
 30
0.0
 10
0.026866205906955626
 20
13.117125582696882
 30
0.0
 10
0.0021370116874140717
 20
13.022161612735575
 30
0.0
 10
-0.01721548111728212
 20
12.937540145801748
 30
0.0
 10
-0.03183447007691233
 20
12.86348798724474
 30
0.0
 10
-0.04237156836073409
 20
12.80020264542323
 30
0.0
 10
-0.04948620132209791
 20
12.747851763258645
 30
0.0
 10
-0.053841190035781916
 20
12.70658409378576
 30
0.0
 10
-0.0561110549222964
 20
12.676468484136265
 30
0.0
 10
-0.056964755234959585
 20
12.657639586532138
 30
0.0
 10
-0.057080668517995536
 20
12.650107934353498
 30
0.0
 10
-0.05658741012084955
 20
12.616165055748649
 30
0.0
 10
-0.05956623102944768
 20
12.488604508566805
 30
0.0
 10
-0.06988724204440176
 20
12.372626008211425
 30
0.0
 10
-0.08685698737595379
 20
12.268544424169107
 30
0.0
 10
-0.10977005217648714
 20
12.17664341343926
 30
0.0
 10
-0.13791071551773534
 20
12.097175050964777
 30
0.0
 10
-0.17055214363936586
 20
12.030359169124056
 30
0.0
 10
-0.20696196412264217
 20
11.976383619591239
 30
0.0
 10
-0.24639899366591927
 20
11.935403355227333
 30
0.0
 10
-0.2881170770119706
 20
11.907540557326788
 30
0.0
 10
-0.33136572502279754
 20
11.892884351120408
 30
0.0
 10
-0.7114964149230635
 20
11.875812662150755
 30
0.0
 10
-1.0664484440259776
 20
11.849212684864517
 30
0.0
 10
-1.4448777914052966
 20
11.809438157708747
 30
0.0
 10
-1.489827781937507
 20
11.817484789692514
 30
0.0
 10
-1.5352326433022854
 20
11.838818625479082
 30
0.0
 10
-1.5803369853817606
 20
11.873463389857566
 30
0.0
 10
-1.6243847259371627
 20
11.921409491389822
 30
0.0
 10
-1.6666204080599736
 20
11.982614011821406
 30
0.0
 10
-1.7062905173505263
 20
12.05700074449957
 30
0.0
 10
-1.742644797070833
 20
12.144460281762612
 30
0.0
 10
-1.7749375595208383
 20
12.244850151205322
 30
0.0
 10
-1.8024289918920717
 20
12.357995000664982
 30
0.0
 10
-1.8243864548577013
 20
12.48368683170997
 30
0.0
 10
-1.8289576292971763
 20
12.517324112754569
 30
0.0
 10
-1.8301947824333153
 20
12.524754366622863
 30
0.0
 10
-1.8338470130375868
 20
12.543254658311978
 30
0.0
 10
-1.8405757958665754
 20
12.57267719727973
 30
0.0
 10
-1.8510356284133904
 20
12.612844588702023
 30
0.0
 10
-1.8658728537876506
 20
12.663550127480319
 30
0.0
 10
-1.8857244952060008
 20
12.724558136117329
 30
0.0
 10
-1.911217103658323
 20
12.795604346012164
 30
0.0
 10
-1.942965620307136
 20
12.876396321693703
 30
0.0
 10
-1.981572255147223
 20
12.96661392742492
 30
0.0
 10
-2.027625383591916
 20
13.06590983553768
 30
0.0
 10
-2.0816984614781386
 20
13.173910076282102
 30
0.0
 10
-2.144348962937428
 20
13.290214627104982
 30
0.0
 10
-2.2161173376316667
 20
13.414398042938222
 30
0.0
 10
-2.2975259937004466
 20
13.546010124321102
 30
0.0
 10
-2.389078304866909
 20
13.684576623951031
 30
0.0
 10
-2.491257644031287
 20
13.829599990256249
 30
0.0
 10
-2.604526444544449
 20
13.980560147118844
 30
0.0
 10
-2.7293252904541894
 20
14.136915308749696
 30
0.0
 10
-2.866072036981413
 20
14.298102828671778
 30
0.0
 10
-2.9076132523548903
 20
14.34419924085288
 30
0.0
 10
-3.2582082054126773
 20
14.27514286714386
 30
0.0
 10
-3.60404578099623
 20
14.185243060837463
 30
0.0
 10
-3.6214726391055208
 20
14.12568757068655
 30
0.0
 10
-3.6747405566706366
 20
13.92113044364688
 30
0.0
 10
-3.7193404694266925
 20
13.726111120780958
 30
0.0
 10
-3.755892975076403
 20
13.540955228461993
 30
0.0
 10
-3.7850300981718923
 20
13.365959736580606
 30
0.0
 10
-3.8073941293422098
 20
13.201392575180863
 30
0.0
 10
-3.8236364520548776
 20
13.047492295117646
 30
0.0
 10
-3.8344163585576494
 20
12.904467772774854
 30
0.0
 10
-3.8403998565437836
 20
12.772497959452648
 30
0.0
 10
-3.842258468187432
 20
12.651731675599427
 30
0.0
 10
-3.8406680231382135
 20
12.54228745011469
 30
0.0
 10
-3.8363074471147143
 20
12.44425340493495
 30
0.0
 10
-3.8298575477180674
 20
12.35768718495532
 30
0.0
 10
-3.8219997991050025
 20
12.282615933387973
 30
0.0
 10
-3.8134150817106653
 20
12.219036317496025
 30
0.0
 10
-3.8047829380887075
 20
12.166914163261238
 30
0.0
 10
-3.7967805877599985
 20
12.126196245096919
 30
0.0
 10
-3.7900728771436327
 20
12.096749533065676
 30
0.0
 10
-3.7853387349494354
 20
12.078505517967686
 30
0.0
 10
-3.783229505079017
 20
12.071274309923181
 30
0.0
 10
-3.772753321665297
 20
12.038984808643164
 30
0.0
 10
-3.738000670586327
 20
11.916213395788544
 30
0.0
 10
-3.71367788494027
 20
11.802345323391274
 30
0.0
 10
-3.6992151266428617
 20
11.697885871852382
 30
0.0
 10
-3.6940219298172523
 20
11.60331402076311
 30
0.0
 10
-3.697488671401617
 20
11.51908160853095
 30
0.0
 10
-3.7089856055512893
 20
11.445612939010324
 30
0.0
 10
-3.727868267352194
 20
11.383303388712585
 30
0.0
 10
-3.753474075354746
 20
11.332519493991231
 30
0.0
 10
-3.785126037455002
 20
11.293597941091603
 30
0.0
 10
-3.822133276764601
 20
11.266845106217325
 30
0.0
 10
-4.180343858018281
 20
11.138486376688594
 30
0.0
 10
-4.511685883443305
 20
11.0084442145136
 30
0.0
 10
-4.861578929021469
 20
10.85889274971155
 30
0.0
 10
-4.906903704008189
 20
10.853332650114318
 30
0.0
 10
-4.956579613266984
 20
10.860335365604389
 30
0.0
 10
-5.0098918195478115
 20
10.880146222091012
 30
0.0
 10
-5.06611500409834
 20
10.912978913408883
 30
0.0
 10
-5.124514622463273
 20
10.959015102874016
 30
0.0
 10
-5.184348174468299
 20
11.018404071749716
 30
0.0
 10
-5.244866486702832
 20
11.091262415105376
 30
0.0
 10
-5.305315005800442
 20
11.17767378549309
 30
0.0
 10
-5.364935100802679
 20
11.277688684808119
 30
0.0
 10
-5.422965372878384
 20
11.391324304638124
 30
0.0
 10
-5.437248225504259
 20
11.422119798345754
 30
0.0
 10
-5.440620521172613
 20
11.428855289593969
 30
0.0
 10
-5.449563550121992
 20
11.445457151362445
 30
0.0
 10
-5.464665837614466
 20
11.471589185920884
 30
0.0
 10
-5.486500515613588
 20
11.506888963076747
 30
0.0
 10
-5.515624284620746
 20
11.550968448083058
 30
0.0
 10
-5.552576399536604
 20
11.603414668043142
 30
0.0
 10
-5.597877680910982
 20
11.663790415922268
 30
0.0
 10
-5.65202955292765
 20
11.731634991247173
 30
0.0
 10
-5.715513109415992
 20
11.806464976501351
 30
0.0
 10
-5.788788209293183
 20
11.88777504811286
 30
0.0
 10
-5.872292601843455
 20
11.9750388216833
 30
0.0
 10
-5.9664410854693966
 20
12.067709728154254
 30
0.0
 10
-6.07162469703555
 20
12.165221923453942
 30
0.0
 10
-6.188209936933066
 20
12.266991226718224
 30
0.0
 10
-6.316538028556536
 20
12.372416088111967
 30
0.0
 10
-6.4569242140041645
 20
12.480878584220209
 30
0.0
 10
-6.60965708688369
 20
12.591745439824745
 30
0.0
 10
-6.774997963165079
 20
12.704369074731078
 30
0.0
 10
-6.953180290973719
 20
12.818088674277975
 30
0.0
 10
-7.006463102716077
 20
12.849892664019897
 30
0.0
 10
-7.321127382227185
 20
12.680564594701217
 30
0.0
 10
-7.6251019315864905
 20
12.492721369640408
 30
0.0
 10
-7.624200274399462
 20
12.430675106215492
 30
0.0
 10
-7.614807376187973
 20
12.219504884054235
 30
0.0
 10
-7.599942885433252
 20
12.020003667457608
 30
0.0
 10
-7.580295808481778
 20
11.832299691748604
 30
0.0
 10
-7.55655762422005
 20
11.656490440771737
 30
0.0
 10
-7.52942106187347
 20
11.492642622704587
 30
0.0
 10
-7.4995788798685785
 20
11.340792191609296
 30
0.0
 10
-7.467722647343358
 20
11.200944414276613
 30
0.0
 10
-7.434541529959623
 20
11.07307398248875
 30
0.0
 10
-7.400721081642698
 20
10.957125170383573
 30
0.0
 10
-7.3669420438335464
 20
10.853012036667906
 30
0.0
 10
-7.333879153882767
 20
10.760618671399275
 30
0.0
 10
-7.302199964151087
 20
10.679799486908635
 30
0.0
 10
-7.272563673412759
 20
10.610379552477466
 30
0.0
 10
-7.245619930154162
 20
10.552154990401629
 30
0.0
 10
-7.222008013791233
 20
10.504892846234704
 30
0.0
 10
-7.202359368364571
 20
10.468342645095493
 30
0.0
 10
-7.187270091769892
 20
10.442181300271246
 30
0.0
 10
-7.177368756378231
 20
10.426143228483392
 30
0.0
 10
-7.173221797684546
 20
10.41985498914141
 30
0.0
 10
-7.153693544124536
 20
10.3920879290751
 30
0.0
 10
-7.084297346615861
 20
10.285014429353305
 30
0.0
 10
-7.027491950552232
 20
10.183374462848448
 30
0.0
 10
-6.982881768169357
 20
10.087818824494963
 30
0.0
 10
-6.95004374804553
 20
9.99897925703728
 30
0.0
 10
-6.928528532669695
 20
9.917467214522125
 30
0.0
 10
-6.917859419794747
 20
9.843873771020448
 30
0.0
 10
-6.9175371155470735
 20
9.778766696942695
 30
0.0
 10
-6.927036513598635
 20
9.72269154377134
 30
0.0
 10
-6.945809938718139
 20
9.676169586652179
 30
0.0
 10
-6.9732875137102575
 20
9.639697229891464
 30
0.0
 10
-7.27774940419172
 20
9.411456696215293
 30
0.0
 10
-7.55604023290931
 20
9.189527165941422
 30
0.0
 10
-7.846307444106359
 20
8.943487067436546
 30
0.0
 10
-7.887979698385522
 20
8.924814275507622
 30
0.0
 10
-7.937512733001553
 20
8.916863648698994
 30
0.0
 10
-7.994295779998916
 20
8.92008031575641
 30
0.0
 10
-8.057698731865873
 20
8.93488226815241
 30
0.0
 10
-8.127073224098702
 20
8.96165960919062
 30
0.0
 10
-8.201753745147336
 20
9.000773843755056
 30
0.0
 10
-8.281058772273818
 20
9.052557209662613
 30
0.0
 10
-8.364291931823253
 20
9.117312051526326
 30
0.0
 10
-8.450743182377067
 20
9.19531023798443
 30
0.0
 10
-8.539690019227267
 20
9.286792623095845
 30
0.0
 10
-8.562415455904466
 20
9.312010014706793
 30
0.0
 10
-8.567623250835826
 20
9.317452265379305
 30
0.0
 10
-8.581062450762325
 20
9.330680548952948
 30
0.0
 10
-8.60319633839928
 20
9.351200133153005
 30
0.0
 10
-8.63446575489058
 20
9.378495755931622
 30
0.0
 10
-8.675288292846798
 20
9.412032531483504
 30
0.0
 10
-8.726057523688203
 20
9.451256885966764
 30
0.0
 10
-8.787142260333125
 20
9.495597521676512
 30
0.0
 10
-8.85888585624739
 20
9.544466408396152
 30
0.0
 10
-8.941605541797
 20
9.597259800597476
 30
0.0
 10
-9.03559179892012
 20
9.653359279021682
 30
0.0
 10
-9.141107774403359
 20
9.71213281618564
 30
0.0
 10
-9.258388734261972
 20
9.772935861585147
 30
0.0
 10
-9.387641557221711
 20
9.835112449873687
 30
0.0
 10
-9.52904427075717
 20
9.897996325817108
 30
0.0
 10
-9.682745628738349
 20
9.960912087390447
 30
0.0
 10
-9.848864731817581
 20
10.023176344542671
 30
0.0
 10
-10.02749069105095
 20
10.0840988922375
 30
0.0
 10
-10.218682335259903
 20
10.142983896217206
 30
0.0
 10
-10.422467962583895
 20
10.199131089918936
 30
0.0
 10
-10.482757959044056
 20
10.213816733163595
 30
0.0
 10
-10.733532262892467
 20
9.95926251027822
 30
0.0
 10
-10.968634313346609
 20
9.690166561346068
 30
0.0
 10
-10.949484257061188
 20
9.631142607437997
 30
0.0
 10
-10.87826514329924
 20
9.43212269109943
 30
0.0
 10
-10.805257024269045
 20
9.245866139363383
 30
0.0
 10
-10.7311560937233
 20
9.07229240223141
 30
0.0
 10
-10.656651843949316
 20
8.911290815634551
 30
0.0
 10
-10.582425890737174
 20
8.762720938569565
 30
0.0
 10
-10.509150812846116
 20
8.626412933629656
 30
0.0
 10
-10.437489007351543
 20
8.502167990034955
 30
0.0
 10
-10.368091562490418
 20
8.389758788795932
 30
0.0
 10
-10.30159714946447
 20
8.28893000922733
 30
0.0
 10
-10.238630934641597
 20
8.199398876104333
 30
0.0
 10
-10.179803513629766
 20
8.120855746712532
 30
0.0
 10
-10.125709868592548
 20
8.052964736922018
 30
0.0
 10
-10.076928350217777
 20
7.995364385445606
 30
0.0
 10
-10.034019650924115
 20
7.947668385040598
 30
0.0
 10
-9.997525984208249
 20
7.909465699857272
 30
0.0
 10
-9.967976912056457
 20
7.880330861512301
 30
0.0
 10
-9.945846817927102
 20
7.859779434189856
 30
0.0
 10
-9.931658066438816
 20
7.847372358772408
 30
0.0
 10
-9.92584185440043
 20
7.842585825793965
 30
0.0
 10
-9.898996701721265
 20
7.821808432081992
 30
0.0
 10
-9.801123114471727
 20
7.739946795827618
 30
0.0
 10
-9.716882516717156
 20
7.659566092278778
 30
0.0
 10
-9.646088720722094
 20
7.581404804917419
 30
0.0
 10
-9.588523679495326
 20
7.5061913065259604
 30
0.0
 10
-9.543938228463404
 20
7.434642336414986
 30
0.0
 10
-9.512051066063403
 20
7.36746321934689
 30
0.0
 10
-9.492552433913968
 20
7.3053436707386235
 30
0.0
 10
-9.485101358810237
 20
7.248959782558297
 30
0.0
 10
-9.489328145741304
 20
7.198971101267889
 30
0.0
 10
-9.504834553294538
 20
7.156019951575229
 30
0.0
 10
-9.728494977925504
 20
6.8481777867858264
 30
0.0
 10
-9.92900724854492
 20
6.554080301099615
 30
0.0
 10
-10.13385710982932
 20
6.2334133113732575
 30
0.0
 10
-10.168174080732545
 20
6.203286986619726
 30
0.0
 10
-10.213163013208034
 20
6.1810894655950985
 30
0.0
 10
-10.26837147800792
 20
6.167426128239141
 30
0.0
 10
-10.333320566678658
 20
6.1628821232855895
 30
0.0
 10
-10.407505704699549
 20
6.16802133163521
 30
0.0
 10
-10.490397502766552
 20
6.183385360497336
 30
0.0
 10
-10.581442645100417
 20
6.209492569648343
 30
0.0
 10
-10.680064813613006
 20
6.246837131116525
 30
0.0
 10
-10.785665646721627
 20
6.295888123561494
 30
0.0
 10
-10.897625731555415
 20
6.357088662573342
 30
0.0
 10
-10.926774497506234
 20
6.374487276178269
 30
0.0
 10
-10.933355056266915
 20
6.378152718419904
 30
0.0
 10
-10.950096295280108
 20
6.386832032751827
 30
0.0
 10
-10.977295090012037
 20
6.399915911488619
 30
0.0
 10
-11.01522082011669
 20
6.416782044021241
 30
0.0
 10
-11.064114865377796
 20
6.436796220437192
 30
0.0
 10
-11.12419014318739
 20
6.459313453414545
 30
0.0
 10
-11.195630688186004
 20
6.4836791168864325
 30
0.0
 10
-11.2785912746593
 20
6.509230099958189
 30
0.0
 10
-11.373197082199733
 20
6.535295974529587
 30
0.0
 10
-11.479543405171498
 20
6.56120017491999
 30
0.0
 10
-11.597695406116785
 20
6.586261188977032
 30
0.0
 10
-11.72768791424562
 20
6.609793755891576
 30
0.0
 10
-11.869525268062299
 20
6.631110074442066
 30
0.0
 10
-12.023181203602489
 20
6.649521014725709
 30
0.0
 10
-12.18859878777745
 20
6.664337334961583
 30
0.0
 10
-12.365690397178014
 20
6.67487090066762
 30
0.0
 10
-12.554337742400232
 20
6.680435904735862
 30
0.0
 10
-12.754391937918072
 20
6.68035008677276
 30
0.0
 10
-12.965673617471184
 20
6.67393595007102
 30
0.0
 10
-13.027613767885374
 20
6.670198362969247
 30
0.0
 10
-13.192215698669253
 20
6.353036246313347
 30
0.0
 10
-13.33755540130703
 20
6.026597929480594
 30
0.0
 10
-13.301858512462813
 20
5.975840822416455
 30
0.0
 10
-13.175141313948089
 20
5.806655004851781
 30
0.0
 10
-13.050476658409103
 20
5.650192829971471
 30
0.0
 10
-12.928506067134654
 20
5.506172119676507
 30
0.0
 10
-12.80985578139735
 20
5.37428389497261
 30
0.0
 10
-12.695135738997775
 20
5.25419304447518
 30
0.0
 10
-12.584938577453554
 20
5.145539030107392
 30
0.0
 10
-12.479838664890474
 20
5.0479366287290155
 30
0.0
 10
-12.380391160073543
 20
4.960976708868576
 30
0.0
 10
-12.287131102741855
 20
4.884227041381029
 30
0.0
 10
-12.200572535414953
 20
4.817233142929583
 30
0.0
 10
-12.121207657858855
 20
4.759519151141923
 30
0.0
 10
-12.049506015263708
 20
4.710588730206215
 30
0.0
 10
-11.98591372123426
 20
4.6699260056882155
 30
0.0
 10
-11.930852692139503
 20
4.636996565900474
 30
0.0
 10
-11.88471989750822
 20
4.611247815929008
 30
0.0
 10
-11.847895963365948
 20
4.592117098621361
 30
0.0
 10
-11.820691407681627
 20
4.579001673306769
 30
0.0
 10
-11.803475972932768
 20
4.57132801735812
 30
0.0
 10
-11.796507303513314
 20
4.568468495203707
 30
0.0
 10
-11.76473056133855
 20
4.556526930457468
 30
0.0
 10
-11.647076082086437
 20
4.5071509232955895
 30
0.0
 10
-11.542885429435188
 20
4.455171660957988
 30
0.0
 10
-11.452198359275558
 20
4.401349697975972
 30
0.0
 10
-11.375021203478871
 20
4.346445318051821
 30
0.0
 10
-11.311327129775076
 20
4.291216860326872
 30
0.0
 10
-11.261055232163773
 20
4.236421229054556
 30
0.0
 10
-11.224112811147387
 20
4.182808800416768
 30
0.0
 10
-11.200373323609837
 20
4.13112613312891
 30
0.0
 10
-11.18967790378469
 20
4.082112441371621
 30
0.0
 10
-11.19183533153919
 20
4.036498896885225
 30
0.0
 10
-11.314821080073589
 20
3.6764082282672197
 30
0.0
 10
-11.419738397416687
 20
3.3362746393974456
 30
0.0
 10
-11.520969099644512
 20
2.9694734277107013
 30
0.0
 10
-11.5448815737095
 20
2.930570426294111
 30
0.0
 10
-11.581328939963322
 20
2.8960983582087376
 30
0.0
 10
-11.630057308189906
 20
2.8667690639240537
 30
0.0
 10
-11.690781522111648
 20
2.8432828564021086
 30
0.0
 10
-11.763185630851329
 20
2.8263272908482318
 30
0.0
 10
-11.846923405913783
 20
2.8165759526197194
 30
0.0
 10
-11.941618903013637
 20
2.814687264911509
 30
0.0
 10
-12.04686706802078
 20
2.8213033178138023
 30
0.0
 10
-12.162234386240886
 20
2.837048720310168
 30
0.0
 10
-12.28725957419204
 20
2.862529476757101
 30
0.0
 10
-12.320241673644496
 20
2.8705633691846533
 30
0.0
 10
-12.327610284710309
 20
2.872126312366714
 30
0.0
 10
-12.346166030256152
 20
2.875485462289981
 30
0.0
 10
-12.376012999811177
 20
2.879971075520087
 30
0.0
 10
-12.417225175975059
 20
2.8849090879153882
 30
0.0
 10
-12.469846278051623
 20
2.889622317790085
 30
0.0
 10
-12.53388965076001
 20
2.893431674296244
 30
0.0
 10
-12.60933819817752
 20
2.8956573694038408
 30
0.0
 10
-12.696144363035156
 20
2.8956201318531454
 30
0.0
 10
-12.794230151395695
 20
2.8926424214507422
 30
0.0
 10
-12.903487202726913
 20
2.8860496419239445
 30
0.0
 10
-13.023776905348745
 20
2.8751713517966517
 30
0.0
 10
-13.154930556937826
 20
2.8593424683849076
 30
0.0
 10
-13.296749570281861
 20
2.8379044687490143
 30
0.0
 10
-13.449005723646067
 20
2.8102065805335967
 30
0.0
 10
-13.611441455737753
 20
2.7756069643586954
 30
0.0
 10
-13.783770204810686
 20
2.7334738850797744
 30
0.0
 10
-13.96567679153352
 20
2.6831868704883473
 30
0.0
 10
-14.15681784516511
 20
2.6241378558850657
 30
0.0
 10
-14.356822272524667
 20
2.555732312973782
 30
0.0
 10
-14.414908922708712
 20
2.5339035965416974
 30
0.0
 10
-14.478712876534239
 20
2.1823148320231676
 30
0.0
 10
-14.521376160963502
 20
1.8275396242913615
 30
0.0
 10
-14.472304264787514
 20
1.7895593557776985
 30
0.0
 10
-14.301348360697313
 20
1.6652405393372698
 30
0.0
 10
-14.136104170376006
 20
1.5524750921737591
 30
0.0
 10
-13.977101540666713
 20
1.4508042808499897
 30
0.0
 10
-13.824847817542047
 20
1.3597482655859365
 30
0.0
 10
-13.679827065162858
 20
1.2788070407327756
 30
0.0
 10
-13.542499321360955
 20
1.2074614029339752
 30
0.0
 10
-13.413299890183968
 20
1.1451739454554757
 30
0.0
 10
-13.2926386726324
 20
1.0913900774705418
 30
0.0
 10
-13.18089953635391
 20
1.045539066830686
 30
0.0
 10
-13.078439725085993
 20
1.0070351049260844
 30
0.0
 10
-12.985589308643519
 20
0.9752783921865792
 30
0.0
 10
-12.902650674092493
 20
0.9496562427334297
 30
0.0
 10
-12.829898058803073
 20
0.9295442066926948
 30
0.0
 10
-12.767577113973633
 20
0.9143072527558261
 30
0.0
 10
-12.71590429268036
 20
0.9033003274277126
 30
0.0
 10
-12.675077464695324
 20
0.8958735793439435
 30
0.0
 10
-12.645215691613817
 20
0.8913595191325036
 30
0.0
 10
-12.626503240530509
 20
0.8891011206589755
 30
0.0
 10
-12.61900131058941
 20
0.888422690420818
 30
0.0
 10
-12.58511648191121
 20
0.8863780150727106
 30
0.0
 10
-12.458135227456248
 20
0.8738749119226993
 30
0.0
 10
-12.343252316629535
 20
0.854915676362268
 30
0.0
 10
-12.240729916462671
 20
0.8302153553643409
 30
0.0
 10
-12.150798175074971
 20
0.8004985890076618
 30
0.0
 10
-12.073654976664724
 20
0.7664979345036943
 30
0.0
 10
-12.00946522255947
 20
0.7289546213323711
 30
0.0
 10
-11.958361508902586
 20
0.6886130122237967
 30
0.0
 10
-11.92044296657795
 20
0.6462237976225832
 30
0.0
 10
-11.895775674984131
 20
0.6025401770040922
 30
0.0
 10
-11.884392426016193
 20
0.5583172013233183
 30
0.0
 10
-11.895775674982678
 20
0.17797366501529183
 30
0.0
 10
-11.895775674981461
 20
-0.17797366501529682
 30
0.0
 10
-11.884392426016147
 20
-0.558317201323456
 30
0.0
 10
-11.895775674984062
 20
-0.6025401770042312
 30
0.0
 10
-11.920442966577932
 20
-0.6462237976227861
 30
0.0
 10
-11.958361508873358
 20
-0.6886130123295141
 30
0.0
 10
-12.009465235155334
 20
-0.7289545698140031
 30
0.0
 10
-12.073654891812087
 20
-0.7664983328636427
 30
0.0
 10
-12.150798175078519
 20
-0.8004985889881467
 30
0.0
 10
-12.2407299164627
 20
-0.8302153553643307
 30
0.0
 10
-12.343252316629545
 20
-0.8549156763623639
 30
0.0
 10
-12.45813522745614
 20
-0.8738749119239647
 30
0.0
 10
-12.585116481911202
 20
-0.8863780150727145
 30
0.0
 10
-12.619001310589384
 20
-0.8884226904208811
 30
0.0
 10
-12.626503240530512
 20
-0.8891011206589847
 30
0.0
 10
-12.645224733186712
 20
-0.8913606103564417
 30
0.0
 10
-12.675067843338601
 20
-0.8958718290533064
 30
0.0
 10
-12.715904582852893
 20
-0.9033007008667595
 30
0.0
 10
-12.76757712590151
 20
-0.9143072086913522
 30
0.0
 10
-12.829898058793837
 20
-0.9295442066990451
 30
0.0
 10
-12.902650674091701
 20
-0.9496562427333518
 30
0.0
 10
-12.985589308643497
 20
-0.9752783921867048
 30
0.0
 10
-13.078439725085918
 20
-1.0070351049261899
 30
0.0
 10
-13.180899536299135
 20
-1.045539066977295
 30
0.0
 10
-13.2926386726369
 20
-1.0913900774725225
 30
0.0
 10
-13.413299890184215
 20
-1.1451739454555103
 30
0.0
 10
-13.5424993213575
 20
-1.207461402931027
 30
0.0
 10
-13.67982706515419
 20
-1.2788070407273846
 30
0.0
 10
-13.824847817528783
 20
-1.359748265578006
 30
0.0
 10
-13.977101540666695
 20
-1.45080428084998
 30
0.0
 10
-14.136104170375914
 20
-1.5524750921737
 30
0.0
 10
-14.301348360697387
 20
-1.6652405393373282
 30
0.0
 10
-14.472304264787525
 20
-1.789559355777707
 30
0.0
 10
-14.521376160963502
 20
-1.827539624291367
 30
0.0
 10
-14.47871287653424
 20
-2.182314832023164
 30
0.0
 10
-14.41490892270871
 20
-2.5339035965416965
 30
0.0
 10
-14.356822272524656
 20
-2.5557323129737815
 30
0.0
 10
-14.15681784516502
 20
-2.6241378558850927
 30
0.0
 10
-13.965676791533628
 20
-2.683186870488312
 30
0.0
 10
-13.783770204810708
 20
-2.733473885079764
 30
0.0
 10
-13.611441455752765
 20
-2.77560696435502
 30
0.0
 10
-13.44900572365594
 20
-2.810206580530994
 30
0.0
 10
-13.296749570286034
 20
-2.8379044687472095
 30
0.0
 10
-13.15493055693758
 20
-2.8593424683848623
 30
0.0
 10
-13.023776905343865
 20
-2.8751713517972126
 30
0.0
 10
-12.903487202736041
 20
-2.88604964208018
 30
0.0
 10
-12.794230151395736
 20
-2.8926424214508595
 30
0.0
 10
-12.69614436303514
 20
-2.8956201318532666
 30
0.0
 10
-12.6093381981783
 20
-2.895657369403994
 30
0.0
 10
-12.533889650766962
 20
-2.8934316743050292
 30
0.0
 10
-12.4698462796419
 20
-2.8896222721674625
 30
0.0
 10
-12.417224788620986
 20
-2.8849093592337245
 30
0.0
 10
-12.37602270962524
 20
-2.8799722389346254
 30
0.0
 10
-12.346157068731072
 20
-2.8754838399835005
 30
0.0
 10
-12.327610284710303
 20
-2.872126312366716
 30
0.0
 10
-12.320241673644503
 20
-2.8705633691847154
 30
0.0
 10
-12.28725957419205
 20
-2.8625294767571026
 30
0.0
 10
-12.162234386240616
 20
-2.8370487203114036
 30
0.0
 10
-12.046867068020743
 20
-2.8213033178138867
 30
0.0
 10
-11.941618903013614
 20
-2.814687264911485
 30
0.0
 10
-11.846923405916147
 20
-2.81657595260002
 30
0.0
 10
-11.763185594515546
 20
-2.826327696520914
 30
0.0
 10
-11.69078152526069
 20
-2.843282803459856
 30
0.0
 10
-11.630057308186675
 20
-2.8667690640336843
 30
0.0
 10
-11.58132893996328
 20
-2.8960983582089317
 30
0.0
 10
-11.544881573709528
 20
-2.93057042629426
 30
0.0
 10
-11.520969099644516
 20
-2.9694734277108417
 30
0.0
 10
-11.41973839741785
 20
-3.336274639397805
 30
0.0
 10
-11.314821080072424
 20
-3.6764082282668604
 30
0.0
 10
-11.191835331539107
 20
-4.036498896885337
 30
0.0
 10
-11.189677903784583
 20
-4.082112441371728
 30
0.0
 10
-11.20037332360976
 20
-4.1311261331290945
 30
0.0
 10
-11.224112811088299
 20
-4.182808800509169
 30
0.0
 10
-11.261055259385346
 20
-4.236421183537696
 30
0.0
 10
-11.31132693127355
 20
-4.2912172159780475
 30
0.0
 10
-11.375021203488016
 20
-4.346445318034214
 30
0.0
 10
-11.452198359275592
 20
-4.4013496979759665
 30
0.0
 10
-11.542885429435174
 20
-4.4551716609580785
 30
0.0
 10
-11.647076082085963
 20
-4.507150923296762
 30
0.0
 10
-11.764730561338542
 20
-4.556526930457464
 30
0.0
 10
-11.796507303513275
 20
-4.568468495203755
 30
0.0
 10
-11.80347597293277
 20
-4.571328017358125
 30
0.0
 10
-11.820699725918908
 20
-4.57900538110108
 30
0.0
 10
-11.847887285366333
 20
-4.592112590146542
 30
0.0
 10
-11.884720064716113
 20
-4.611248258307056
 30
0.0
 10
-11.930852716525692
 20
-4.636996527309459
 30
0.0
 10
-11.985913721223564
 20
-4.669926005691556
 30
0.0
 10
-12.049506015262976
 20
-4.7105887302059015
 30
0.0
 10
-12.1212076578588
 20
-4.759519151142031
 30
0.0
 10
-12.200572535414851
 20
-4.817233142929656
 30
0.0
 10
-12.2871311026463
 20
-4.884227041504975
 30
0.0
 10
-12.380391160077261
 20
-4.960976708871789
 30
0.0
 10
-12.479838664890703
 20
-5.047936628729116
 30
0.0
 10
-12.584938577451123
 20
-5.145539030103551
 30
0.0
 10
-12.695135738991084
 20
-5.254193044467468
 30
0.0
 10
-12.809855781387013
 20
-5.374283894961116
 30
0.0
 10
-12.928506067134643
 20
-5.506172119676488
 30
0.0
 10
-13.050476658409034
 20
-5.650192829971381
 30
0.0
 10
-13.175141313948147
 20
-5.806655004851853
 30
0.0
 10
-13.301858512462822
 20
-5.975840822416459
 30
0.0
 10
-13.337555401307032
 20
-6.026597929480593
 30
0.0
 10
-13.192215698669255
 20
-6.353036246313343
 30
0.0
 10
-13.027613767885372
 20
-6.670198362969249
 30
0.0
 10
-12.965673617471172
 20
-6.673935950071022
 30
0.0
 10
-12.754391937917978
 20
-6.6803500867727665
 30
0.0
 10
-12.554337742400344
 20
-6.680435904735865
 30
0.0
 10
-12.365690397178035
 20
-6.674870900667621
 30
0.0
 10
-12.188598787792875
 20
-6.664337334962501
 30
0.0
 10
-12.023181203612687
 20
-6.649521014726137
 30
0.0
 10
-11.869525268066816
 20
-6.631110074441577
 30
0.0
 10
-11.727687914245397
 20
-6.609793755891466
 30
0.0
 10
-11.597695406111953
 20
-6.586261188976133
 30
0.0
 10
-11.479543405134168
 20
-6.5612001750719795
 30
0.0
 10
-11.373197082199734
 20
-6.535295974529716
 30
0.0
 10
-11.278591274659247
 20
-6.509230099958304
 30
0.0
 10
-11.195630688186702
 20
-6.483679116886814
 30
0.0
 10
-11.124190143191443
 20
-6.459313453424994
 30
0.0
 10
-11.064114880344924
 20
-6.4367961773102005
 30
0.0
 10
-11.015220369999186
 20
-6.416782189111053
 30
0.0
 10
-10.977304025523846
 20
-6.399919885233857
 30
0.0
 10
-10.950088210073671
 20
-6.386827841063988
 30
0.0
 10
-10.93335505626691
 20
-6.378152718419909
 30
0.0
 10
-10.926774497506221
 20
-6.374487276178334
 30
0.0
 10
-10.897625731555422
 20
-6.357088662573349
 30
0.0
 10
-10.785665646721004
 20
-6.2958881235626
 30
0.0
 10
-10.680064813612946
 20
-6.246837131116599
 30
0.0
 10
-10.581442645100397
 20
-6.209492569648316
 30
0.0
 10
-10.490397502774616
 20
-6.183385360479214
 30
0.0
 10
-10.40750555040394
 20
-6.168021708574839
 30
0.0
 10
-10.3333205852928
 20
-6.162882073623614
 30
0.0
 10
-10.268371477972519
 20
-6.167426128342954
 30
0.0
 10
-10.213163013207932
 20
-6.181089465595276
 30
0.0
 10
-10.168174080732525
 20
-6.20328698661988
 30
0.0
 10
-10.133857109829282
 20
-6.233413311373398
 30
0.0
 10
-9.929007248545926
 20
-6.554080301100306
 30
0.0
 10
-9.728494977924495
 20
-6.848177786785144
 30
0.0
 10
-9.504834553294426
 20
-7.156019951575314
 30
0.0
 10
-9.489328145741167
 20
-7.198971101267964
 30
0.0
 10
-9.48510135881011
 20
-7.2489597825584555
 30
0.0
 10
-9.492552433830266
 20
-7.305343670809505
 30
0.0
 10
-9.512051105491928
 20
-7.367463183875919
 30
0.0
 10
-9.543937933950717
 20
-7.4346426177562295
 30
0.0
 10
-9.588523679509253
 20
-7.506191306511835
 30
0.0
 10
-9.646088720722126
 20
-7.581404804917427
 30
0.0
 10
-9.716882516717112
 20
-7.659566092278863
 30
0.0
 10
-9.801123114470927
 20
-7.739946795828602
 30
0.0
 10
-9.898996701721256
 20
-7.82180843208199
 30
0.0
 10
-9.925841854400375
 20
-7.8425858257940035
 30
0.0
 10
-9.931658066438816
 20
-7.847372358772418
 30
0.0
 10
-9.945853673716877
 20
-7.859785429100754
 30
0.0
 10
-9.967969948492295
 20
-7.880323995451083
 30
0.0
 10
-9.997526013594344
 20
-7.909466171867101
 30
0.0
 10
-10.034019685601796
 20
-7.947668355352033
 30
0.0
 10
-10.076928350206572
 20
-7.995364385445651
 30
0.0
 10
-10.12570986859194
 20
-8.052964736921508
 30
0.0
 10
-10.17980351362968
 20
-8.120855746712621
 30
0.0
 10
-10.23863093464148
 20
-8.199398876104375
 30
0.0
 10
-10.301597149336628
 20
-8.288930009317607
 30
0.0
 10
-10.368091562493023
 20
-8.389758788800103
 30
0.0
 10
-10.43748900735173
 20
-8.50216799003512
 30
0.0
 10
-10.509150812844924
 20
-8.626412933625272
 30
0.0
 10
-10.582425890733052
 20
-8.762720938560225
 30
0.0
 10
-10.656651843942827
 20
-8.911290815620523
 30
0.0
 10
-10.73115609372329
 20
-9.072292402231389
 30
0.0
 10
-10.805257024269002
 20
-9.245866139363278
 30
0.0
 10
-10.878265143299272
 20
-9.43212269109952
 30
0.0
 10
-10.949484257061192
 20
-9.631142607438008
 30
0.0
 10
-10.968634313346609
 20
-9.690166561346071
 30
0.0
 10
-10.733532262892476
 20
-9.959262510278212
 30
0.0
 10
-10.48275795904406
 20
-10.213816733163593
 30
0.0
 10
-10.42246796258389
 20
-10.199131089918929
 30
0.0
 10
-10.218682335259818
 20
-10.142983896217178
 30
0.0
 10
-10.027490691051062
 20
-10.084098892237533
 30
0.0
 10
-9.848864731817606
 20
-10.023176344542673
 30
0.0
 10
-9.682745628752826
 20
-9.960912087395867
 30
0.0
 10
-9.529044270766796
 20
-9.897996325820518
 30
0.0
 10
-9.387641557226178
 20
-9.835112449874547
 30
0.0
 10
-9.2583887342618
 20
-9.77293586158497
 30
0.0
 10
-9.14110777439901
 20
-9.712132816183354
 30
0.0
 10
-9.035591798839654
 20
-9.653359279155913
 30
0.0
 10
-8.941605541796969
 20
-9.597259800597596
 30
0.0
 10
-8.858885856247312
 20
-9.544466408396243
 30
0.0
 10
-8.787142260333685
 20
-9.495597521677077
 30
0.0
 10
-8.726057523689
 20
-9.451256885977937
 30
0.0
 10
-8.675288319860886
 20
-9.412032494684158
 30
0.0
 10
-8.634465282004568
 20
-9.378495761901032
 30
0.0
 10
-8.603203705649408
 20
-9.35120656414423
 30
0.0
 10
-8.58105596028061
 20
-9.3306741603336
 30
0.0
 10
-8.567623250835823
 20
-9.317452265379304
 30
0.0
 10
-8.56241545590444
 20
-9.312010014706846
 30
0.0
 10
-8.539690019227276
 20
-9.286792623095852
 30
0.0
 10
-8.450743182376153
 20
-9.195310237985298
 30
0.0
 10
-8.364291931823178
 20
-9.117312051526374
 30
0.0
 10
-8.281058772273813
 20
-9.052557209662577
 30
0.0
 10
-8.201753745160389
 20
-9.00077384374011
 30
0.0
 10
-8.127072965553113
 20
-8.961659923904445
 30
0.0
 10
-8.057698764291171
 20
-8.934882226183387
 30
0.0
 10
-7.9942957799344905
 20
-8.92008031584517
 30
0.0
 10
-7.937512733001408
 20
-8.916863648699131
 30
0.0
 10
-7.887979698385462
 20
-8.92481427550776
 30
0.0
 10
-7.846307444106286
 20
-8.943487067436664
 30
0.0
 10
-7.556040232910072
 20
-9.189527165942376
 30
0.0
 10
-7.27774940419096
 20
-9.411456696214339
 30
0.0
 10
-6.973287513710127
 20
-9.63969722989151
 30
0.0
 10
-6.945809938717992
 20
-9.676169586652207
 30
0.0
 10
-6.9270365135984715
 20
-9.72269154377145
 30
0.0
 10
-6.917537115446201
 20
-9.778766696985755
 30
0.0
 10
-6.917859467926826
 20
-9.843873748747109
 30
0.0
 10
-6.928528168314597
 20
-9.917467396555024
 30
0.0
 10
-6.9500437480630035
 20
-9.998979257027884
 30
0.0
 10
-6.98288176816939
 20
-10.087818824494978
 30
0.0
 10
-7.027491950552169
 20
-10.183374462848514
 30
0.0
 10
-7.084297346614809
 20
-10.285014429354009
 30
0.0
 10
-7.153693544124532
 20
-10.392087929075092
 30
0.0
 10
-7.173221797684486
 20
-10.419854989141426
 30
0.0
 10
-7.177368756378231
 20
-10.426143228483397
 30
0.0
 10
-7.187274875945161
 20
-10.442189049624579
 30
0.0
 10
-7.202354737979102
 20
-10.468334031527537
 30
0.0
 10
-7.2220079027444495
 20
-10.50489330593616
 30
0.0
 10
-7.24561997204207
 20
-10.552154972253467
 30
0.0
 10
-7.272563673402042
 20
-10.610379552474202
 30
0.0
 10
-7.30219996415066
 20
-10.679799486907962
 30
0.0
 10
-7.33387915388266
 20
-10.760618671399333
 30
0.0
 10
-7.366942043833424
 20
-10.853012036667913
 30
0.0
 10
-7.400721081493928
 20
-10.957125170432155
 30
0.0
 10
-7.434541529960885
 20
-11.073073982493499
 30
0.0
 10
-7.467722647343491
 20
-11.200944414276824
 30
0.0
 10
-7.499578879868735
 20
-11.340792191604752
 30
0.0
 10
-7.529421061872287
 20
-11.492642622694444
 30
0.0
 10
-7.556557624217987
 20
-11.656490440756418
 30
0.0
 10
-7.58029580848178
 20
-11.83229969174858
 30
0.0
 10
-7.599942885433246
 20
-12.020003667457495
 30
0.0
 10
-7.61480737618798
 20
-12.219504884054325
 30
0.0
 10
-7.624200274399467
 20
-12.430675106215501
 30
0.0
 10
-7.625101931586492
 20
-12.49272136964041
 30
0.0
 10
-7.321127382227199
 20
-12.68056459470121
 30
0.0
 10
-7.006463102716089
 20
-12.849892664019888
 30
0.0
 10
-6.953180290973726
 20
-12.818088674277961
 30
0.0
 10
-6.774997963165016
 20
-12.70436907473102
 30
0.0
 10
-6.609657086883797
 20
-12.591745439824802
 30
0.0
 10
-6.456924214004197
 20
-12.480878584220212
 30
0.0
 10
-6.3165380285687815
 20
-12.372416088121408
 30
0.0
 10
-6.188209936941267
 20
-12.266991226724315
 30
0.0
 10
-6.0716246970395735
 20
-12.165221923456075
 30
0.0
 10
-5.966441085469291
 20
-12.067709728154028
 30
0.0
 10
-5.872292601839983
 20
-11.975038821679828
 30
0.0
 10
-5.788788209176736
 20
-11.887775048217405
 30
0.0
 10
-5.715513109415936
 20
-11.806464976501452
 30
0.0
 10
-5.652029552927557
 20
-11.731634991247232
 30
0.0
 10
-5.597877680911359
 20
-11.66379041592297
 30
0.0
 10
-5.5525763995340816
 20
-11.603414668054052
 30
0.0
 10
-5.515624321281481
 20
-11.550968420881143
 30
0.0
 10
-5.486500061977067
 20
-11.506888829395349
 30
0.0
 10
-5.464670981990409
 20
-11.471597502736303
 30
0.0
 10
-5.449559231072786
 20
-11.445449133468458
 30
0.0
 10
-5.440620521172618
 20
-11.428855289593962
 30
0.0
 10
-5.4372482255042245
 20
-11.422119798345793
 30
0.0
 10
-5.422965372878399
 20
-11.391324304638127
 30
0.0
 10
-5.364935100801556
 20
-11.277688684808675
 30
0.0
 10
-5.305315005800364
 20
-11.177673785493107
 30
0.0
 10
-5.244866486702845
 20
-11.091262415105339
 30
0.0
 10
-5.1843481744851845
 20
-11.018404071739278
 30
0.0
 10
-5.124514282640619
 20
-10.959015327398333
 30
0.0
 10
-5.066115047453666
 20
-10.912978882861944
 30
0.0
 10
-5.009891819460095
 20
-10.880146222156837
 30
0.0
 10
-4.956579613266816
 20
-10.860335365604474
 30
0.0
 10
-4.9069037040081005
 20
-10.853332650114428
 30
0.0
 10
-4.8615789290213725
 20
-10.858892749711636
 30
0.0
 10
-4.511685883443761
 20
-11.008444214514734
 30
0.0
 10
-4.180343858017846
 20
-11.138486376687457
 30
0.0
 10
-3.822133276764472
 20
-11.266845106217326
 30
0.0
 10
-3.7851260374548623
 20
-11.293597941091583
 30
0.0
 10
-3.7534740753545663
 20
-11.332519493991287
 30
0.0
 10
-3.727868267243122
 20
-11.383303388723997
 30
0.0
 10
-3.708985658110187
 20
-11.445612931913704
 30
0.0
 10
-3.697488269578664
 20
-11.519081675081086
 30
0.0
 10
-3.6940219298367296
 20
-11.603314020759278
 30
0.0
 10
-3.6992151266428985
 20
-11.697885871852403
 30
0.0
 10
-3.7136778849402003
 20
-11.802345323391314
 30
0.0
 10
-3.7380006705851256
 20
-11.916213395788903
 30
0.0
 10
-3.772753321665306
 20
-12.038984808643153
 30
0.0
 10
-3.7832295050789653
 20
-12.071274309923176
 30
0.0
 10
-3.7853387349494447
 20
-12.07850551796769
 30
0.0
 10
-3.7900751646094344
 20
-12.096758348297397
 30
0.0
 10
-3.7967787019832997
 20
-12.126186649375539
 30
0.0
 10
-3.804782696476049
 20
-12.166914569807831
 30
0.0
 10
-3.813415127086887
 20
-12.219036312500808
 30
0.0
 10
-3.8219997990957335
 20
-12.282615933381692
 30
0.0
 10
-3.829857547717867
 20
-12.357687184954553
 30
0.0
 10
-3.8363074471146064
 20
-12.444253404934972
 30
0.0
 10
-3.8406680231381047
 20
-12.542287450114655
 30
0.0
 10
-3.8422584680309626
 20
-12.651731675601997
 30
0.0
 10
-3.8403998565436006
 20
-12.772497959457557
 30
0.0
 10
-3.834416358557725
 20
-12.904467772775092
 30
0.0
 10
-3.8236364520563773
 20
-13.047492295113349
 30
0.0
 10
-3.8073941293440794
 20
-13.201392575170821
 30
0.0
 10
-3.785030098174447
 20
-13.365959736565356
 30
0.0
 10
-3.7558929750764234
 20
-13.540955228461968
 30
0.0
 10
-3.719340469426731
 20
-13.726111120780844
 30
0.0
 10
-3.674740556670628
 20
-13.921130443646968
 30
0.0
 10
-3.6214726391055354
 20
-14.125687570686557
 30
0.0
 10
-3.6040457809962447
 20
-14.185243060837461
 30
0.0
 10
-3.2582082054126795
 20
-14.27514286714386
 30
0.0
 10
-2.907613252354885
 20
-14.344199240852882
 30
0.0
 10
-2.8660720369814037
 20
-14.29810282867177
 30
0.0
 10
-2.729325290454126
 20
-14.136915308749625
 30
0.0
 10
-2.604526444544515
 20
-13.980560147118933
 30
0.0
 10
-2.4912576440312977
 20
-13.829599990256265
 30
0.0
 10
-2.389078304875809
 20
-13.684576623963665
 30
0.0
 10
-2.297525993706471
 20
-13.546010124329342
 30
0.0
 10
-2.216117337634865
 20
-13.414398042941448
 30
0.0
 10
-2.1443489629373755
 20
-13.290214627104739
 30
0.0
 10
-2.0816984614758267
 20
-13.173910076277764
 30
0.0
 10
-2.02762538344981
 20
-13.065909835603257
 30
0.0
 10
-1.9815722551471229
 20
-12.966613927425
 30
0.0
 10
-1.942965620307012
 20
-12.876396321693733
 30
0.0
 10
-1.9112171036584593
 20
-12.795604346012947
 30
0.0
 10
-1.8857244952003582
 20
-12.724558136127014
 30
0.0
 10
-1.86587289683754
 20
-12.66355011229285
 30
0.0
 10
-1.8510352343339347
 20
-12.612844327248004
 30
0.0
 10
-1.8405782602679335
 20
-12.572686660933806
 30
0.0
 10
-1.8338452491873436
 20
-12.54324572356842
 30
0.0
 10
-1.8301947824333062
 20
-12.524754366622858
 30
0.0
 10
-1.828957629297116
 20
-12.517324112754597
 30
0.0
 10
-1.8243864548576987
 20
-12.483686831709981
 30
0.0
 10
-1.8024289918908185
 20
-12.357995000665182
 30
0.0
 10
-1.7749375595207424
 20
-12.244850151205316
 30
0.0
 10
-1.742644797070841
 20
-12.144460281762582
 30
0.0
 10
-1.706290517369722
 20
-12.057000744494573
 30
0.0
 10
-1.666620017154966
 20
-11.982614126206252
 30
0.0
 10
-1.6243847763701857
 20
-11.921409474979207
 30
0.0
 10
-1.5803369852785236
 20
-11.873463389894612
 30
0.0
 10
-1.535232643302084
 20
-11.838818625479114
 30
0.0
 10
-1.4898277819373738
 20
-11.817484789692596
 30
0.0
 10
-1.4448777914051638
 20
-11.809438157708803
 30
0.0
 10
-1.066448444026064
 20
-11.849212684865732
 30
0.0
 10
-0.7114964149229674
 20
-11.87581266214954
 30
0.0
 10
-0.33136572502265765
 20
-11.89288435112037
 30
0.0
 10
-0.28811707701182726
 20
-11.90754055732673
 30
0.0
 10
-0.246398993665716
 20
-11.935403355227333
 30
0.0
 10
-0.20696196401503636
 20
-11.976383619569994
 30
0.0
 10
-0.17055219595496832
 20
-12.030359177834725
 30
0.0
 10
-0.13791031193063655
 20
-12.097174996118882
 30
0.0
 10
-0.10977005219621308
 20
-12.176643413441338
 30
0.0
 10
-0.0868569873759664
 20
-12.26854442416914
 30
0.0
 10
-0.06988724204430687
 20
-12.372626008211443
 30
0.0
 10
-0.059566231028178165
 20
-12.488604508566793
 30
0.0
 10
-0.05658741012084512
 20
-12.616165055748638
 30
0.0
 10
-0.057080668517931255
 20
-12.650107934353478
 30
0.0
 10
-0.05696475523495104
 20
-12.657639586532143
 30
0.0
 10
-0.05611064242723052
 20
-12.676477581974355
 30
0.0
 10
-0.05384221642736309
 20
-12.706574368532921
 30
0.0
 10
-0.04948585061188282
 20
-12.747852080526933
 30
0.0
 10
-0.042371613193366346
 20
-12.800202654024813
 30
0.0
 10
-0.031834470069889584
 20
-12.863487987236006
 30
0.0
 10
-0.017215481117300743
 20
-12.937540145800954
 30
0.0
 10
0.002137011687540567
 20
-13.022161612735562
 30
0.0
 10
0.02686620590706626
 20
-13.117125582696817
 30
0.0
 10
0.05760567179013757
 20
-13.22217630018463
 30
0.0
 10
0.09497819744478513
 20
-13.337029441539736
 30
0.0
 10
0.13959465074494898
 20
-13.461372539338232
 30
0.0
 10
0.1920528542734034
 20
-13.594865450224285
 30
0.0
 10
0.25293648005030483
 20
-13.737140863986172
 30
0.0
 10
0.3228139624229133
 20
-13.887804854232277
 30
0.0
 10
0.40223743162933573
 20
-14.046437469623257
 30
0.0
 10
0.49174166934518315
 20
-14.21259336497631
 30
0.0
 10
0.5918430876402501
 20
-14.385802471446867
 30
0.0
 10
0.7030387327438588
 20
-14.565570704943235
 30
0.0
 10
0.737245653329947
 20
-14.617343655165266
 30
0.0
 10
1.094217068863946
 20
-14.601312050408124
 30
0.0
 10
1.449590795328632
 20
-14.563960766654539
 30
0.0
 10
1.4756992950466743
 20
-14.507667800547306
 30
0.0
 10
1.5588599117603588
 20
-14.313334578754823
 30
0.0
 10
1.6320278021685781
 20
-14.127140732663872
 30
0.0
 10
1.6957681003178706
 20
-13.949500746958108
 30
0.0
 10
1.7506615105028231
 20
-13.78080247299137
 30
0.0
 10
1.7973032165958895
 20
-13.621406576701396
 30
0.0
 10
1.836301772489442
 20
-13.471646028195268
 30
0.0
 10
1.8682779752719423
 20
-13.33182563329093
 30
0.0
 10
1.8938637225736756
 20
-13.202221607846273
 30
0.0
 10
1.9137008556840551
 20
-13.083081195294863
 30
0.0
 10
1.9284399899781124
 20
-12.974622327848857
 30
0.0
 10
1.9387393342419843
 20
-12.877033331823208
 30
0.0
 10
1.9452635004925982
 20
-12.79047267737488
 30
0.0
 10
1.9486823058975515
 20
-12.71506877300145
 30
0.0
 10
1.949669522738746
 20
-12.650919803153005
 30
0.0
 10
1.9489021970140883
 20
-12.598093256069012
 30
0.0
 10
1.9470579171239943
 20
-12.556637434980695
 30
0.0
 10
1.9448139307857073
 20
-12.52651988600211
 30
0.0
 10
1.9428517944027088
 20
-12.507774054198078
 30
0.0
 10
1.9418438785213883
 20
-12.500309248373052
 30
0.0
 10
1.9362972058651857
 20
-12.466819000027078
 30
0.0
 10
1.9202308427787573
 20
-12.340239228544776
 30
0.0
 10
1.9131508781074722
 20
-12.224017845343116
 30
0.0
 10
1.9144185302516281
 20
-12.118569557299086
 30
0.0
 10
1.9233785401466321
 20
-12.024279989825251
 30
0.0
 10
1.9393607506963748
 20
-11.941505075064772
 30
0.0
 10
1.9616792105889547
 20
-11.870570519000776
 30
0.0
 10
1.989637725239666
 20
-11.81177122960439
 30
0.0
 10
2.022526484277514
 20
-11.765370896680118
 30
0.0
 10
2.059625876560013
 20
-11.731601545528758
 30
0.0
 10
2.100207078719135
 20
-11.710663160527785
 30
0.0
 10
2.4735476196752506
 20
-11.637126608753018
 30
0.0
 10
2.8205706069883956
 20
-11.557920876434165
 30
0.0
 10
3.188845125561942
 20
-11.462188630363029
 30
0.0
 10
3.2344923501046656
 20
-11.46344593966235
 30
0.0
 10
3.282569719914497
 20
-11.477774250696509
 30
0.0
 10
3.3323338179533946
 20
-11.50530960832335
 30
0.0
 10
3.3830355772668237
 20
-11.546155216443447
 30
0.0
 10
3.433921582141854
 20
-11.600381231173444
 30
0.0
 10
3.484235376299867
 20
-11.668024602519658
 30
0.0
 10
3.533218776384921
 20
-11.749088964778025
 30
0.0
 10
3.580113189002323
 20
-11.843544575827051
 30
0.0
 10
3.6241609295577115
 20
-11.95132830542033
 30
0.0
 10
3.6646065411426014
 20
-12.07234367252242
 30
0.0
 10
3.674140035935298
 20
-12.104923954732167
 30
0.0
 10
3.6764707929678684
 20
-12.112086830696798
 30
0.0
 10
3.68283955657212
 20
-12.129836152687293
 30
0.0
 10
3.693878386340809
 20
-12.157927193162978
 30
0.0
 10
3.7102080302442166
 20
-12.196086990863789
 30
0.0
 10
3.732436804477136
 20
-12.244014816974577
 30
0.0
 10
3.7611594913249244
 20
-12.301382682937152
 30
0.0
 10
3.796956256529421
 20
-12.36783588923315
 30
0.0
 10
3.8403915876231167
 20
-12.442993614429616
 30
0.0
 10
3.892013254656981
 20
-12.526449543698867
 30
0.0
 10
3.9523512948743456
 20
-12.617772535930882
 30
0.0
 10
4.021917021785236
 20
-12.716507329151419
 30
0.0
 10
4.101202062727888
 20
-12.822175281520783
 30
0.0
 10
4.1906774216909115
 20
-12.934275149998415
 30
0.0
 10
4.290792573198747
 20
-13.052283902586607
 30
0.0
 10
4.401974585813245
 20
-13.17565756497288
 30
0.0
 10
4.524627277344922
 20
-13.303832099832974
 30
0.0
 10
4.659130402822994
 20
-13.43622431775495
 30
0.0
 10
4.805838876353669
 20
-13.572232818604391
 30
0.0
 10
4.965082027954287
 20
-13.711238962111484
 30
0.0
 10
5.0130295760085
 20
-13.750629118575565
 30
0.0
 10
5.349416354679485
 20
-13.630090581191102
 30
0.0
 10
5.677992339422761
 20
-13.489650465449822
 30
0.0
 10
5.686348268710154
 20
-13.428162822492713
 30
0.0
 10
5.7085335698708795
 20
-13.217951258403447
 30
0.0
 10
5.723569216622938
 20
-13.01846286817565
 30
0.0
 10
5.732117407198049
 20
-12.829927145916987
 30
0.0
 10
5.734847368021771
 20
-12.652543546238237
 30
0.0
 10
5.732434148768442
 20
-12.486481278175345
 30
0.0
 10
5.725557411650454
 20
-12.331879144499098
 30
0.0
 10
5.714900216575485
 20
-12.188845426206077
 30
0.0
 10
5.701147803788442
 20
-12.05745781256239
 30
0.0
 10
5.684986375652504
 20
-11.93776337662836
 30
0.0
 10
5.667101879174276
 20
-11.829778596251083
 30
0.0
 10
5.648178790926138
 20
-11.733489420490185
 30
0.0
 10
5.628898905976612
 20
-11.648851381287226
 30
0.0
 10
5.609940132465007
 20
-11.575789750234465
 30
0.0
 10
5.591975249235909
 20
-11.51419975185589
 30
0.0
 10
5.575671115540978
 20
-11.463946313266643
 30
0.0
 10
5.561689454056511
 20
-11.42487586903378
 30
0.0
 10
5.550667858333077
 20
-11.39675778483743
 30
0.0
 10
5.543267463241365
 20
-11.379423127595444
 30
0.0
 10
5.540104036091756
 20
-11.372587050569964
 30
0.0
 10
5.524932362546609
 20
-11.342219590457706
 30
0.0
 10
5.472269740273174
 20
-11.225999046720288
 30
0.0
 10
5.431247464491486
 20
-11.117027909703435
 30
0.0
 10
5.401377369873888
 20
-11.015890746203013
 30
0.0
 10
5.38214697376325
 20
-10.923149190376355
 30
0.0
 10
5.3730208051038595
 20
-10.839340893571913
 30
0.0
 10
5.373439390999834
 20
-10.764979279268427
 30
0.0
 10
5.382824392488959
 20
-10.700551360459551
 30
0.0
 10
5.400575258017762
 20
-10.646518332231333
 30
0.0
 10
5.426072737405748
 20
-10.603314020759283
 30
0.0
 10
5.458679333292269
 20
-10.571344350135059
 30
0.0
 10
5.7937581223834735
 20
-10.391030764763626
 30
0.0
 10
6.102017552598597
 20
-10.213057099747276
 30
0.0
 10
6.425713092724015
 20
-10.01302714881163
 30
0.0
 10
6.469702937578465
 20
-10.000773843755061
 30
0.0
 10
6.519867708560351
 20
-10.000294534608635
 30
0.0
 10
6.575537116490564
 20
-10.011938348157583
 30
0.0
 10
6.636025793241349
 20
-10.036024694603576
 30
0.0
 10
6.700634474124377
 20
-10.072842686403705
 30
0.0
 10
6.768651201296591
 20
-10.122650601381524
 30
0.0
 10
6.839352546588784
 20
-10.185675390838705
 30
0.0
 10
6.912004852138134
 20
-10.26211223334113
 30
0.0
 10
6.9858654871841095
 20
-10.352124134796862
 30
0.0
 10
7.060184119364595
 20
-10.455841575384985
 30
0.0
 10
7.078897274497691
 20
-10.484164360149093
 30
0.0
 10
7.083235777289148
 20
-10.49032200693647
 30
0.0
 10
7.0945532990948355
 20
-10.505405550324774
 30
0.0
 10
7.113381684164292
 20
-10.528994832495815
 30
0.0
 10
7.140233645633347
 20
-10.560646050416194
 30
0.0
 10
7.175601832540705
 20
-10.599892531462144
 30
0.0
 10
7.219957926338942
 20
-10.646245543530597
 30
0.0
 10
7.273751768115413
 20
-10.699195138553153
 30
0.0
 10
7.337410517717476
 20
-10.758211028303526
 30
0.0
 10
7.411337845911766
 20
-10.822743491324882
 30
0.0
 10
7.495913160800982
 20
-10.892224309676934
 30
0.0
 10
7.591490868847918
 20
-10.966067735094756
 30
0.0
 10
7.698399673608631
 20
-11.043671480750799
 30
0.0
 10
7.816941909706213
 20
-11.124417741563603
 30
0.0
 10
7.947392916385408
 20
-11.207674237437757
 30
0.0
 10
8.090000449506771
 20
-11.292795280644778
 30
0.0
 10
8.24498413346864
 20
-11.379122865066986
 30
0.0
 10
8.412534953752965
 20
-11.465987776001839
 30
0.0
 10
8.592814790826518
 20
-11.552710719066214
 30
0.0
 10
8.785955996077366
 20
-11.638603466715018
 30
0.0
 10
8.84338382154074
 20
-11.662110841158457
 30
0.0
 10
9.129296521854751
 20
-11.447775749167933
 30
0.0
 10
9.40187934670022
 20
-11.216725522033869
 30
0.0
 10
9.391740244570386
 20
-11.155506649137697
 30
0.0
 10
9.35097896881143
 20
-10.948094962719237
 30
0.0
 10
9.306546388710562
 20
-10.753037447266717
 30
0.0
 10
9.259142927465776
 20
-10.570358214753224
 30
0.0
 10
9.20946686992884
 20
-10.400050600629024
 30
0.0
 10
9.158213150450013
 20
-10.242077322062865
 30
0.0
 10
9.106072148591483
 20
-10.096370681253916
 30
0.0
 10
9.053728494209786
 20
-9.962832813135687
 30
0.0
 10
9.001859883561563
 20
-9.841335977350258
 30
0.0
 10
8.951135907992445
 20
-9.731722893936727
 30
0.0
 10
8.902216896738846
 20
-9.633807122248102
 30
0.0
 10
8.855752775412146
 20
-9.547373482576399
 30
0.0
 10
8.812381941648631
 20
-9.47217851982991
 30
0.0
 10
8.77273015944618
 20
-9.407951008642542
 30
0.0
 10
8.737409434859284
 20
-9.354392523373024
 30
0.0
 10
8.707017187022387
 20
-9.311177431830766
 30
0.0
 10
8.682140475923955
 20
-9.277963944881266
 30
0.0
 10
8.663320587962877
 20
-9.254343740642177
 30
0.0
 10
8.651139491742448
 20
-9.23996051833008
 30
0.0
 10
8.646101637709265
 20
-9.23436058554749
 30
0.0
 10
8.622653033049453
 20
-9.209814195765325
 30
0.0
 10
8.538073456684117
 20
-9.11427958510931
 30
0.0
 10
8.46675387901852
 20
-9.022241258013176
 30
0.0
 10
8.408400126628694
 20
-8.934401699866505
 30
0.0
 10
8.362688029598047
 20
-8.851448649911836
 30
0.0
 10
8.32926438186444
 20
-8.77405370602116
 30
0.0
 10
8.30774590057002
 20
-8.702872389239616
 30
0.0
 10
8.297723490329847
 20
-8.638540544341684
 30
0.0
 10
8.298759220048982
 20
-8.581675892487636
 30
0.0
 10
8.310389223604986
 20
-8.53287551336819
 30
0.0
 10
8.332123974082702
 20
-8.492715202652262
 30
0.0
 10
8.599167790429194
 20
-8.22164623703755
 30
0.0
 10
8.841273460397453
 20
-7.960718380484968
 30
0.0
 10
9.091628252820119
 20
-7.674164263642431
 30
0.0
 10
9.130052027224725
 20
-7.649489104156988
 30
0.0
 10
9.177846839332453
 20
-7.63424476355105
 30
0.0
 10
9.234475085958207
 20
-7.628962429090248
 30
0.0
 10
9.299375995766855
 20
-7.634149336279219
 30
0.0
 10
9.371966587830899
 20
-7.6502878650049455
 30
0.0
 10
9.451642663321572
 20
-7.677834671790151
 30
0.0
 10
9.53777982902395
 20
-7.717219859323145
 30
0.0
 10
9.629734551327795
 20
-7.768846184385067
 30
0.0
 10
9.726845239308465
 20
-7.833088305248189
 30
0.0
 10
9.828433355473365
 20
-7.910292069569603
 30
0.0
 10
9.854663424991957
 20
-7.931840753169284
 30
0.0
 10
9.860624178530072
 20
-7.936446036839958
 30
0.0
 10
9.875884847058634
 20
-7.947523562602983
 30
0.0
 10
9.90082980278843
 20
-7.964515075228622
 30
0.0
 10
9.935818167208716
 20
-7.9868453637572605
 30
0.0
 10
9.981183148173061
 20
-8.013923277667098
 30
0.0
 10
10.037231415334265
 20
-8.045142767302302
 30
0.0
 10
10.10424251477048
 20
-8.079883947168188
 30
0.0
 10
10.182468323616947
 20
-8.11751418068118
 30
0.0
 10
10.272132545436865
 20
-8.15738918491915
 30
0.0
 10
10.373430247117371
 20
-8.198854153769108
 30
0.0
 10
10.486527437504519
 20
-8.241244898979309
 30
0.0
 10
10.611560689618743
 20
-8.283889004562061
 30
0.0
 10
10.74863680495958
 20
-8.32610699808769
 30
0.0
 10
10.897832522391871
 20
-8.367213532224277
 30
0.0
 10
11.059194270879415
 20
-8.406518578015554
 30
0.0
 10
11.23273796681677
 20
-8.443328627281598
 30
0.0
 10
11.418448856240422
 20
-8.476947902692384
 30
0.0
 10
11.61628140218783
 20
-8.506679573903055
 30
0.0
 10
11.826159217416158
 20
-8.531826978130855
 30
0.0
 10
11.88796460597841
 20
-8.537362837173944
 30
0.0
 10
12.097998629805309
 20
-8.248275804094789
 30
0.0
 10
12.290368114555427
 20
-7.947145292196024
 30
0.0
 10
12.26263488472732
 20
-7.891634754872212
 30
0.0
 10
12.162548850277778
 20
-7.7054523846740315
 30
0.0
 10
12.062596073055106
 20
-7.53215746024055
 30
0.0
 10
11.96345296554869
 20
-7.371566568955661
 30
0.0
 10
11.865784825363042
 20
-7.223467519283601
 30
0.0
 10
11.770244723557653
 20
-7.08761984926909
 30
0.0
 10
11.67747241379073
 20
-6.963755375786381
 30
0.0
 10
11.588093263500461
 20
-6.8515787834465245
 30
0.0
 10
11.502717208668804
 20
-6.750768252558974
 30
0.0
 10
11.421937733494321
 20
-6.660976125156325
 30
0.0
 10
11.346330876292775
 20
-6.581829608167173
 30
0.0
 10
11.276454262971832
 20
-6.512931512777276
 30
0.0
 10
11.212846169303983
 20
-6.453861028914942
 30
0.0
 10
11.156024613268356
 20
-6.404174533819753
 30
0.0
 10
11.106486448705654
 20
-6.363406468113035
 30
0.0
 10
11.064706571321281
 20
-6.331069574147599
 30
0.0
 10
11.031145215559627
 20
-6.306664208551912
 30
0.0
 10
11.006199264995965
 20
-6.289640643072285
 30
0.0
 10
10.990319811501866
 20
-6.279486868112236
 30
0.0
 10
10.983855166024213
 20
-6.275620658175171
 30
0.0
 10
10.954213141676268
 20
-6.259076393175304
 30
0.0
 10
10.84523187775045
 20
-6.192716385004213
 30
0.0
 10
10.749952055657344
 20
-6.125788877094833
 30
0.0
 10
10.668299632476348
 20
-6.059051854520798
 30
0.0
 10
10.600167554951101
 20
-5.993258052960053
 30
0.0
 10
10.545416265921673
 20
-5.929153342389946
 30
0.0
 10
10.503872728932164
 20
-5.8674770955004485
 30
0.0
 10
10.475333442095158
 20
-5.808957491248292
 30
0.0
 10
10.45956200687385
 20
-5.754313889632063
 30
0.0
 10
10.456291157744495
 20
-5.704253570706915
 30
0.0
 10
10.46522283485208
 20
-5.659471039747016
 30
0.0
 10
10.640503663468987
 20
-5.321732361050455
 30
0.0
 10
10.794943421950471
 20
-5.001034898079379
 30
0.0
 10
10.949712344699721
 20
-4.653418206133439
 30
0.0
 10
10.979155927678674
 20
-4.618513688424558
 30
0.0
 10
11.020334002112394
 20
-4.589858842920632
 30
0.0
 10
11.072889419212027
 20
-4.568119719048066
 30
0.0
 10
11.136435831429088
 20
-4.553946307513909
 30
0.0
 10
11.21055834201069
 20
-4.547971394065184
 30
0.0
 10
11.294814196859777
 20
-4.550809437987741
 30
0.0
 10
11.388733517792959
 20
-4.563055476845192
 30
0.0
 10
11.49182007623795
 20
-4.585284058926465
 30
0.0
 10
11.603552106362997
 20
-4.618048204836386
 30
0.0
 10
11.723383156578956
 20
-4.66187839962799
 30
0.0
 10
11.75479948369755
 20
-4.674738286960572
 30
0.0
 10
11.761852848872131
 20
-4.6773820078504516
 30
0.0
 10
11.779700686754461
 20
-4.683469229211231
 30
0.0
 10
11.808545744358868
 20
-4.692353201828655
 30
0.0
 10
11.848561642007734
 20
-4.703378416834927
 30
0.0
 10
11.899892539389445
 20
-4.7158817721282915
 30
0.0
 10
11.96265284541257
 20
-4.729193750671686
 30
0.0
 10
12.03692697225026
 20
-4.742639609090663
 30
0.0
 10
12.122769133936814
 20
-4.755540574981087
 30
0.0
 10
12.2202031897887
 20
-4.767215051320551
 30
0.0
 10
12.329222532928544
 20
-4.776979826220079
 30
0.0
 10
12.44979002397116
 20
-4.784151287482008
 30
0.0
 10
12.581837970289156
 20
-4.788046637069868
 30
0.0
 10
12.72526815047659
 20
-4.787985109312958
 30
0.0
 10
12.879951884433497
 20
-4.783289185760883
 30
0.0
 10
13.045730148809733
 20
-4.773285808330514
 30
0.0
 10
13.222413737754577
 20
-4.757307588024865
 30
0.0
 10
13.409783468813451
 20
-4.734694007755573
 30
0.0
 10
13.60759043375346
 20
-4.704792617650185
 30
0.0
 10
13.815556294042604
 20
-4.666960221233778
 30
0.0
 10
13.876247565701497
 20
-4.654032679506819
 30
0.0
  0
LWPOLYLINE
  8
OpenJsCad
  90
91
  70
1
 10
0.003487823687206268
 20
-0.049878202512991215
 30
0.0
 10
3.061616997868383e-18
 20
-0.05
 30
0.0
 10
-0.003487823687206235
 20
-0.049878202512991215
 30
0.0
 10
-0.006958655048003292
 20
-0.04951340343707852
 30
0.0
 10
-0.01039558454088799
 20
-0.04890738003669028
 30
0.0
 10
-0.013781867790849986
 20
-0.048063084796915935
 30
0.0
 10
-0.017101007166283426
 20
-0.04698463103929543
 30
0.0
 10
-0.020336832153790004
 20
-0.045677272882130054
 30
0.0
 10
-0.02347357813929454
 20
-0.04414737964294635
 30
0.0
 10
-0.026495963211660287
 20
-0.04240240480782127
 30
0.0
 10
-0.029389262614623667
 20
-0.04045084971874737
 30
0.0
 10
-0.03213938048432698
 20
-0.03830222215594889
 30
0.0
 10
-0.03473291852294988
 20
-0.03596699001693254
 30
0.0
 10
-0.03715724127386973
 20
-0.03345653031794289
 30
0.0
 10
-0.03940053768033609
 20
-0.03078307376628293
 30
0.0
 10
-0.041451878627752105
 20
-0.027959645173537318
 30
0.0
 10
-0.04330127018922193
 20
-0.025000000000000012
 30
0.0
 10
-0.044939702314958356
 20
-0.021918557339453876
 30
0.0
 10
-0.046359192728339375
 20
-0.018730329670795604
 30
0.0
 10
-0.047552825814757685
 20
-0.015450849718747366
 30
0.0
 10
-0.04851478631379983
 20
-0.012096094779983375
 30
0.0
 10
-0.04924038765061041
 20
-0.008682408883346503
 30
0.0
 10
-0.04972609476841367
 20
-0.005226423163382653
 30
0.0
 10
-0.04996954135095479
 20
-0.0017449748351250672
 30
0.0
 10
-0.049969541350954785
 20
0.0017449748351250796
 30
0.0
 10
-0.04972609476841367
 20
0.005226423163382665
 30
0.0
 10
-0.0492403876506104
 20
0.008682408883346513
 30
0.0
 10
-0.048514786313799824
 20
0.012096094779983387
 30
0.0
 10
-0.04755282581475768
 20
0.015450849718747375
 30
0.0
 10
-0.04635919272833937
 20
0.01873032967079561
 30
0.0
 10
-0.04493970231495834
 20
0.021918557339453883
 30
0.0
 10
-0.043301270189221926
 20
0.02500000000000002
 30
0.0
 10
-0.04145187862775207
 20
0.02795964517353736
 30
0.0
 10
-0.039400537680336106
 20
0.030783073766282903
 30
0.0
 10
-0.037157241273869705
 20
0.03345653031794293
 30
0.0
 10
-0.034732918522949865
 20
0.03596699001693256
 30
0.0
 10
-0.03213938048432696
 20
0.0383022221559489
 30
0.0
 10
-0.029389262614623657
 20
0.04045084971874738
 30
0.0
 10
-0.026495963211660246
 20
0.04240240480782131
 30
0.0
 10
-0.023473578139294547
 20
0.04414737964294635
 30
0.0
 10
-0.020336832153789997
 20
0.045677272882130054
 30
0.0
 10
-0.017101007166283436
 20
0.04698463103929543
 30
0.0
 10
-0.013781867790849955
 20
0.04806308479691595
 30
0.0
 10
-0.010395584540887957
 20
0.04890738003669029
 30
0.0
 10
-0.006958655048003279
 20
0.04951340343707852
 30
0.0
 10
-0.0034878236872062447
 20
0.049878202512991215
 30
0.0
 10
3.061616997868383e-18
 20
0.05
 30
0.0
 10
0.0034878236872062734
 20
0.049878202512991215
 30
0.0
 10
0.006958655048003285
 20
0.04951340343707852
 30
0.0
 10
0.010395584540887962
 20
0.04890738003669029
 30
0.0
 10
0.01378186779084998
 20
0.048063084796915935
 30
0.0
 10
0.01710100716628344
 20
0.04698463103929542
 30
0.0
 10
0.020336832153790018
 20
0.04567727288213004
 30
0.0
 10
0.023473578139294553
 20
0.04414737964294634
 30
0.0
 10
0.026495963211660242
 20
0.0424024048078213
 30
0.0
 10
0.02938926261462366
 20
0.04045084971874737
 30
0.0
 10
0.032139380484326976
 20
0.038302222155948897
 30
0.0
 10
0.03473291852294986
 20
0.035966990016932564
 30
0.0
 10
0.03715724127386971
 20
0.03345653031794291
 30
0.0
 10
0.039400537680336106
 20
0.03078307376628292
 30
0.0
 10
0.04145187862775209
 20
0.02795964517353734
 30
0.0
 10
0.04330127018922194
 20
0.024999999999999994
 30
0.0
 10
0.04493970231495835
 20
0.02191855733945388
 30
0.0
 10
0.046359192728339375
 20
0.018730329670795607
 30
0.0
 10
0.047552825814757685
 20
0.015450849718747372
 30
0.0
 10
0.048514786313799824
 20
0.012096094779983394
 30
0.0
 10
0.0492403876506104
 20
0.008682408883346518
 30
0.0
 10
0.04972609476841367
 20
0.00522642316338267
 30
0.0
 10
0.04996954135095479
 20
0.0017449748351250397
 30
0.0
 10
0.04996954135095479
 20
-0.001744974835125051
 30
0.0
 10
0.049726094768413664
 20
-0.005226423163382669
 30
0.0
 10
0.0492403876506104
 20
-0.008682408883346518
 30
0.0
 10
0.048514786313799824
 20
-0.012096094779983392
 30
0.0
 10
0.04755282581475768
 20
-0.01545084971874737
 30
0.0
 10
0.046359192728339375
 20
-0.018730329670795597
 30
0.0
 10
0.044939702314958356
 20
-0.02191855733945387
 30
0.0
 10
0.04330127018922193
 20
-0.025000000000000005
 30
0.0
 10
0.04145187862775209
 20
-0.02795964517353734
 30
0.0
 10
0.039400537680336106
 20
-0.030783073766282913
 30
0.0
 10
0.037157241273869705
 20
-0.03345653031794291
 30
0.0
 10
0.034732918522949865
 20
-0.035966990016932564
 30
0.0
 10
0.03213938048432696
 20
-0.0383022221559489
 30
0.0
 10
0.02938926261462366
 20
-0.04045084971874738
 30
0.0
 10
0.02649596321166025
 20
-0.0424024048078213
 30
0.0
 10
0.023473578139294547
 20
-0.04414737964294635
 30
0.0
 10
0.02033683215379001
 20
-0.04567727288213005
 30
0.0
 10
0.01710100716628344
 20
-0.04698463103929543
 30
0.0
 10
0.013781867790849962
 20
-0.04806308479691595
 30
0.0
 10
0.01039558454088797
 20
-0.04890738003669029
 30
0.0
 10
0.006958655048003275
 20
-0.049513403437078524
 30
0.0
 10
0.003487823687206268
 20
-0.049878202512991215
 30
0.0
  0
LWPOLYLINE
  8
OpenJsCad
  90
613
  70
1
 10
12.485845730612471
 20
2.5915204675072667
 30
0.0
 10
12.399467772944583
 20
2.306770502085862
 30
0.0
 10
12.331898295901286
 20
2.0169808194702403
 30
0.0
 10
12.417464841431087
 20
1.9189571923271145
 30
0.0
 10
12.593617898619822
 20
1.7372973395370255
 30
0.0
 10
12.764512514596273
 20
1.5785938307051346
 30
0.0
 10
12.928268438514374
 20
1.441761367355933
 30
0.0
 10
13.08310648708855
 20
1.325582897484843
 30
0.0
 10
13.227357067592482
 20
1.2287173152397215
 30
0.0
 10
13.359468167066696
 20
1.1497076855017043
 30
0.0
 10
13.478012776538957
 20
1.0869899583164462
 30
0.0
 10
13.581695721171632
 20
1.0389021363751638
 30
0.0
 10
13.669359869641957
 20
1.0036938570338505
 30
0.0
 10
13.73999169843649
 20
0.9795363488261895
 30
0.0
 10
13.79272618925087
 20
0.9645327210438279
 30
0.0
 10
13.798952929992147
 20
0.9631086975702421
 30
0.0
 10
13.82871813998444
 20
0.9657747435361579
 30
0.0
 10
14.032449640916333
 20
0.9667772748968513
 30
0.0
 10
14.216214021276055
 20
0.9501255134837627
 30
0.0
 10
14.378775893373733
 20
0.9179313641691156
 30
0.0
 10
14.519067126770526
 20
0.8723847950029331
 30
0.0
 10
14.636191482348021
 20
0.8157420740452896
 30
0.0
 10
14.729428471433334
 20
0.750313743088401
 30
0.0
 10
14.798236425295608
 20
0.6784523762829029
 30
0.0
 10
14.842254764454324
 20
0.6025401770041576
 30
0.0
 10
14.861305457971635
 20
0.5249764569810513
 30
0.0
 10
14.84225476445437
 20
0.16146756997225964
 30
0.0
 10
14.84225476445437
 20
-0.1614675699722774
 30
0.0
 10
14.861305457972225
 20
-0.5249764569824793
 30
0.0
 10
14.84225476445437
 20
-0.6025401770042293
 30
0.0
 10
14.798236425295586
 20
-0.678452376282872
 30
0.0
 10
14.729428471391188
 20
-0.7503137429040665
 30
0.0
 10
14.636191482348117
 20
-0.8157420740458599
 30
0.0
 10
14.519067126771438
 20
-0.8723847950104417
 30
0.0
 10
14.378775893373671
 20
-0.9179313641681967
 30
0.0
 10
14.216214021276087
 20
-0.9501255134859338
 30
0.0
 10
14.032449640916338
 20
-0.9667772748968733
 30
0.0
 10
13.828718139984439
 20
-0.965774743536163
 30
0.0
 10
13.798952929991163
 20
-0.9631086975692275
 30
0.0
 10
13.792726189250967
 20
-0.9645327210438677
 30
0.0
 10
13.73999169843653
 20
-0.9795363488262461
 30
0.0
 10
13.669359869642001
 20
-1.0036938570339058
 30
0.0
 10
13.581695721171597
 20
-1.0389021363751272
 30
0.0
 10
13.478012776538996
 20
-1.0869899583163205
 30
0.0
 10
13.35946816706684
 20
-1.149707685501776
 30
0.0
 10
13.227357067592267
 20
-1.228717315239746
 30
0.0
 10
13.083106487089097
 20
-1.3255828974845172
 30
0.0
 10
12.928268438513417
 20
-1.4417613673567309
 30
0.0
 10
12.764512514596312
 20
-1.5785938307050997
 30
0.0
 10
12.59361789861979
 20
-1.7372973395370601
 30
0.0
 10
12.41746484143113
 20
-1.9189571923270723
 30
0.0
 10
12.331898295901288
 20
-2.016980819470243
 30
0.0
 10
12.39946777294458
 20
-2.30677050208586
 30
0.0
 10
12.485845730612468
 20
-2.591520467507266
 30
0.0
 10
12.608960346326919
 20
-2.6336281460194053
 30
0.0
 10
12.852343295201699
 20
-2.702873664788998
 30
0.0
 10
13.079694128423235
 20
-2.7548676271189176
 30
0.0
 10
13.289927150231104
 20
-2.791490054482679
 30
0.0
 10
13.482110068704294
 20
-2.814684536476761
 30
0.0
 10
13.655467527053911
 20
-2.826447301201441
 30
0.0
 10
13.809383910189485
 20
-2.8288160979610586
 30
0.0
 10
13.943405417066796
 20
-2.8238589382349835
 30
0.0
 10
14.057241392028509
 20
-2.8136627413324593
 30
0.0
 10
14.150764911275598
 20
-2.8003219314304126
 30
0.0
 10
14.224012623431248
 20
-2.7859270328331114
 30
0.0
 10
14.277183846023318
 20
-2.772553310234373
 30
0.0
 10
14.283288373424837
 20
-2.770673180367446
 30
0.0
 10
14.307732778444183
 20
-2.753481711837158
 30
0.0
 10
14.48366816812199
 20
-2.65074774374476
 30
0.0
 10
14.65113867053076
 20
-2.573286401966392
 30
0.0
 10
14.808018456111427
 20
-2.519886417077267
 30
0.0
 10
14.952287512744395
 20
-2.4891852863320096
 30
0.0
 10
15.08204154055521
 20
-2.4796771438320535
 30
0.0
 10
15.195501307153908
 20
-2.4897212460252787
 30
0.0
 10
15.29102142658381
 20
-2.5175510382983757
 30
0.0
 10
15.367098526167032
 20
-2.561283761751557
 30
0.0
 10
15.422378770724288
 20
-2.6189305669449356
 30
0.0
 10
15.587634829683022
 20
-2.943263844354588
 30
0.0
 10
15.74910239965529
 20
-3.22293387932124
 30
0.0
 10
15.947355227706563
 20
-3.528216463214555
 30
0.0
 10
15.969638703171267
 20
-3.604913961924341
 30
0.0
 10
15.96947380286668
 20
-3.6926650245361854
 30
0.0
 10
15.94581505011364
 20
-3.7893027705330065
 30
0.0
 10
15.897783614600865
 20
-3.8925838619505555
 30
0.0
 10
15.824672307751872
 20
-4.000200075033696
 30
0.0
 10
15.72594982028003
 20
-4.10979017767842
 30
0.0
 10
15.601264184015637
 20
-4.218952064889601
 30
0.0
 10
15.450445443018856
 20
-4.325255103469107
 30
0.0
 10
15.273507521980342
 20
-4.4262526363085914
 30
0.0
 10
15.24639707099372
 20
-4.438826377770206
 30
0.0
 10
15.24171656706725
 20
-4.443172988644928
 30
0.0
 10
15.2035489722575
 20
-4.482533756860612
 30
0.0
 10
15.154458768309514
 20
-4.538770687057841
 30
0.0
 10
15.096143528403623
 20
-4.613094025626079
 30
0.0
 10
15.030395375383213
 20
-4.706580773356117
 30
0.0
 10
14.959091595691348
 20
-4.820168223102421
 30
0.0
 10
14.884184842293461
 20
-4.954648119336391
 30
0.0
 10
14.80769296618945
 20
-5.11066146456432
 30
0.0
 10
14.731688517586608
 20
-5.2886939951343
 30
0.0
 10
14.658287959128387
 20
-5.489072346414943
 30
0.0
 10
14.589640634738712
 20
-5.711960924721411
 30
0.0
 10
14.527917538654044
 20
-5.957359500679633
 30
0.0
 10
14.502826550082712
 20
-6.085033724721633
 30
0.0
 10
14.706238275030442
 20
-6.3022142130997425
 30
0.0
 10
14.923418763408552
 20
-6.505625938047476
 30
0.0
 10
15.051092987450492
 20
-6.480534949476152
 30
0.0
 10
15.296491563408818
 20
-6.4188118533914595
 30
0.0
 10
15.51938014171519
 20
-6.3501645290018125
 30
0.0
 10
15.719758492997052
 20
-6.276763970543145
 30
0.0
 10
15.897791023565308
 20
-6.200759521941048
 30
0.0
 10
16.05380436879392
 20
-6.124267645836551
 30
0.0
 10
16.188284265027754
 20
-6.049360892438995
 30
0.0
 10
16.301871714773938
 20
-5.978057112746942
 30
0.0
 10
16.395358462504092
 20
-5.912308959726512
 30
0.0
 10
16.46968180107237
 20
-5.8539937198207355
 30
0.0
 10
16.5259187312696
 20
-5.8049035158727476
 30
0.0
 10
16.565279499485243
 20
-5.766735921063038
 30
0.0
 10
16.56962611035959
 20
-5.762055417135105
 30
0.0
 10
16.5821998518216
 20
-5.734944966149843
 30
0.0
 10
16.683197384661092
 20
-5.558007045111342
 30
0.0
 10
16.789500423242444
 20
-5.407188304115663
 30
0.0
 10
16.898662310450998
 20
-5.2825026678496405
 30
0.0
 10
17.008252413102532
 20
-5.1837801803828585
 30
0.0
 10
17.115868626180074
 20
-5.1106688735296855
 30
0.0
 10
17.219149717458613
 20
-5.062637437887878
 30
0.0
 10
17.31578746359398
 20
-5.038978685263471
 30
0.0
 10
17.40353852620588
 20
-5.038813784958994
 30
0.0
 10
17.48023602491657
 20
-5.061097260424845
 30
0.0
 10
17.78551860880896
 20
-5.2593500884749025
 30
0.0
 10
18.065188643775613
 20
-5.42081765844717
 30
0.0
 10
18.38952192118678
 20
-5.586073717406099
 30
0.0
 10
18.447168726378713
 20
-5.641353961963147
 30
0.0
 10
18.49090144983177
 20
-5.717431061546376
 30
0.0
 10
18.518731241924193
 20
-5.81295118092061
 30
0.0
 10
18.528775344298673
 20
-5.92641094757518
 30
0.0
 10
18.519267201805132
 20
-6.056164975388755
 30
0.0
 10
18.48856607105209
 20
-6.20043403201835
 30
0.0
 10
18.435166086165687
 20
-6.357313817600482
 30
0.0
 10
18.357704744385444
 20
-6.524784320008202
 30
0.0
 10
18.254970776293028
 20
-6.7007197096860045
 30
0.0
 10
18.237779307761368
 20
-6.7251641147056915
 30
0.0
 10
18.23589917789589
 20
-6.7312686421068015
 30
0.0
 10
18.22252545529714
 20
-6.784439864698929
 30
0.0
 10
18.208130556699842
 20
-6.857687576854576
 30
0.0
 10
18.194789746797674
 20
-6.951211096101686
 30
0.0
 10
18.184593549895112
 20
-7.065047071063291
 30
0.0
 10
18.179636390169257
 20
-7.199068577940612
 30
0.0
 10
18.182005186928656
 20
-7.352984961076468
 30
0.0
 10
18.193767951653413
 20
-7.526342419425253
 30
0.0
 10
18.21696243364772
 20
-7.7185253379003065
 30
0.0
 10
18.253584861011255
 20
-7.928758359706896
 30
0.0
 10
18.3055788233412
 20
-8.156109192928533
 30
0.0
 10
18.374824342110763
 20
-8.39949214180321
 30
0.0
 10
18.416932020622923
 20
-8.522606757517714
 30
0.0
 10
18.70168198604432
 20
-8.608984715185603
 30
0.0
 10
18.991471668659944
 20
-8.676554192228899
 30
0.0
 10
19.08949529580307
 20
-8.590987646699098
 30
0.0
 10
19.27115514859316
 20
-8.414834589510363
 30
0.0
 10
19.42985865742505
 20
-8.243939973533912
 30
0.0
 10
19.56669112077425
 20
-8.080184049615811
 30
0.0
 10
19.682869590645343
 20
-7.925346001041636
 30
0.0
 10
19.77973517289046
 20
-7.781095420537705
 30
0.0
 10
19.85874480262848
 20
-7.648984321063489
 30
0.0
 10
19.921462529813738
 20
-7.530439711591228
 30
0.0
 10
19.96955035175502
 20
-7.426756766958553
 30
0.0
 10
20.004758631096333
 20
-7.339092618488229
 30
0.0
 10
20.028916139303995
 20
-7.2684607896936955
 30
0.0
 10
20.043919767086358
 20
-7.215726298879316
 30
0.0
 10
20.045343790559944
 20
-7.209499558138039
 30
0.0
 10
20.042677744594027
 20
-7.179734348145745
 30
0.0
 10
20.041675213233333
 20
-6.976002847213851
 30
0.0
 10
20.058326974646423
 20
-6.792238466854131
 30
0.0
 10
20.090521123961068
 20
-6.629676594756453
 30
0.0
 10
20.136067693127252
 20
-6.48938536135966
 30
0.0
 10
20.192710414084896
 20
-6.372261005782163
 30
0.0
 10
20.258138745041784
 20
-6.279024016696852
 30
0.0
 10
20.330000111847284
 20
-6.210216062834578
 30
0.0
 10
20.405912311126027
 20
-6.166197723675861
 30
0.0
 10
20.483476031149134
 20
-6.147147030158551
 30
0.0
 10
20.846984918157926
 20
-6.166197723675814
 30
0.0
 10
21.169920058102463
 20
-6.166197723675814
 30
0.0
 10
21.533428945112664
 20
-6.14714703015796
 30
0.0
 10
21.610992665134415
 20
-6.166197723675814
 30
0.0
 10
21.68690486441306
 20
-6.210216062834599
 30
0.0
 10
21.75876623103425
 20
-6.279024016738997
 30
0.0
 10
21.824194562176046
 20
-6.372261005782069
 30
0.0
 10
21.880837283140625
 20
-6.489385361358748
 30
0.0
 10
21.926383852298382
 20
-6.629676594756514
 30
0.0
 10
21.958578001616118
 20
-6.792238466854097
 30
0.0
 10
21.97522976302706
 20
-6.976002847213847
 30
0.0
 10
21.974227231666347
 20
-7.179734348145746
 30
0.0
 10
21.97156118569941
 20
-7.209499558139022
 30
0.0
 10
21.972985209174052
 20
-7.215726298879219
 30
0.0
 10
21.987988836956433
 20
-7.268460789693655
 30
0.0
 10
22.01214634516409
 20
-7.339092618488185
 30
0.0
 10
22.047354624505314
 20
-7.426756766958588
 30
0.0
 10
22.095442446446505
 20
-7.53043971159119
 30
0.0
 10
22.158160173631963
 20
-7.648984321063346
 30
0.0
 10
22.23716980336993
 20
-7.781095420537918
 30
0.0
 10
22.3340353856147
 20
-7.925346001041088
 30
0.0
 10
22.450213855486915
 20
-8.080184049616769
 30
0.0
 10
22.587046318835284
 20
-8.243939973533873
 30
0.0
 10
22.745749827667247
 20
-8.414834589510397
 30
0.0
 10
22.927409680457256
 20
-8.590987646699057
 30
0.0
 10
23.025433307600427
 20
-8.676554192228897
 30
0.0
 10
23.315222990216043
 20
-8.608984715185604
 30
0.0
 10
23.59997295563745
 20
-8.522606757517718
 30
0.0
 10
23.64208063414959
 20
-8.399492141803266
 30
0.0
 10
23.71132615291918
 20
-8.156109192928486
 30
0.0
 10
23.7633201152491
 20
-7.928758359706948
 30
0.0
 10
23.79994254261286
 20
-7.718525337899081
 30
0.0
 10
23.823137024606943
 20
-7.526342419425891
 30
0.0
 10
23.834899789331626
 20
-7.352984961076273
 30
0.0
 10
23.83726858609124
 20
-7.199068577940701
 30
0.0
 10
23.832311426365166
 20
-7.06504707106339
 30
0.0
 10
23.822115229462643
 20
-6.951211096101675
 30
0.0
 10
23.808774419560596
 20
-6.857687576854586
 30
0.0
 10
23.794379520963297
 20
-6.784439864698937
 30
0.0
 10
23.781005798364557
 20
-6.731268642106867
 30
0.0
 10
23.77912566849763
 20
-6.725164114705349
 30
0.0
 10
23.761934199967342
 20
-6.700719709686001
 30
0.0
 10
23.659200231874944
 20
-6.524784320008195
 30
0.0
 10
23.581738890096577
 20
-6.357313817599426
 30
0.0
 10
23.528338905207452
 20
-6.200434032018757
 30
0.0
 10
23.497637774462195
 20
-6.056164975385792
 30
0.0
 10
23.488129631962238
 20
-5.926410947574976
 30
0.0
 10
23.498173734155465
 20
-5.812951180976279
 30
0.0
 10
23.52600352642856
 20
-5.7174310615463755
 30
0.0
 10
23.569736249881743
 20
-5.641353961963153
 30
0.0
 10
23.62738305507512
 20
-5.586073717405897
 30
0.0
 10
23.95171633248477
 20
-5.420817658447163
 30
0.0
 10
24.231386367451424
 20
-5.2593500884748945
 30
0.0
 10
24.53666895134474
 20
-5.0610972604236215
 30
0.0
 10
24.613366450054524
 20
-5.0388137849589185
 30
0.0
 10
24.70111751266637
 20
-5.038978685263506
 30
0.0
 10
24.79775525866319
 20
-5.062637438016545
 30
0.0
 10
24.90103635008074
 20
-5.1106688735293195
 30
0.0
 10
25.00865256316388
 20
-5.1837801803783154
 30
0.0
 10
25.118242665808605
 20
-5.282502667850155
 30
0.0
 10
25.227404553019785
 20
-5.407188304114549
 30
0.0
 10
25.333707591599293
 20
-5.55800704511133
 30
0.0
 10
25.434705124438775
 20
-5.734944966149843
 30
0.0
 10
25.44727886590039
 20
-5.762055417136465
 30
0.0
 10
25.451625476775114
 20
-5.766735921062935
 30
0.0
 10
25.490986244990797
 20
-5.804903515872685
 30
0.0
 10
25.547223175188027
 20
-5.8539937198206715
 30
0.0
 10
25.621546513756265
 20
-5.912308959726561
 30
0.0
 10
25.7150332614863
 20
-5.978057112746973
 30
0.0
 10
25.828620711232606
 20
-6.049360892438838
 30
0.0
 10
25.963100607466576
 20
-6.124267645836724
 30
0.0
 10
26.119113952694505
 20
-6.200759521940737
 30
0.0
 10
26.297146483264484
 20
-6.276763970543577
 30
0.0
 10
26.49752483454513
 20
-6.350164529001798
 30
0.0
 10
26.720413412851595
 20
-6.418811853391473
 30
0.0
 10
26.96581198880982
 20
-6.480534949476141
 30
0.0
 10
27.093486212851815
 20
-6.505625938047473
 30
0.0
 10
27.310666701229927
 20
-6.302214213099742
 30
0.0
 10
27.51407842617766
 20
-6.085033724721632
 30
0.0
 10
27.48898743760634
 20
-5.957359500679692
 30
0.0
 10
27.427264341521646
 20
-5.711960924721366
 30
0.0
 10
27.358617017131998
 20
-5.489072346414994
 30
0.0
 10
27.285216458673332
 20
-5.288693995133133
 30
0.0
 10
27.209212010071234
 20
-5.110661464564875
 30
0.0
 10
27.132720133966735
 20
-4.954648119336262
 30
0.0
 10
27.057813380569183
 20
-4.8201682231024305
 30
0.0
 10
26.986509600877127
 20
-4.7065807733562455
 30
0.0
 10
26.920761447856698
 20
-4.6130940256260935
 30
0.0
 10
26.86244620795092
 20
-4.538770687057815
 30
0.0
 10
26.813356004002934
 20
-4.482533756860583
 30
0.0
 10
26.775188409193227
 20
-4.4431729886449425
 30
0.0
 10
26.77050790526529
 20
-4.438826377770594
 30
0.0
 10
26.74339745428003
 20
-4.426252636308586
 30
0.0
 10
26.566459533241527
 20
-4.3252551034690905
 30
0.0
 10
26.41564079224585
 20
-4.218952064887738
 30
0.0
 10
26.290955155979827
 20
-4.109790177679186
 30
0.0
 10
26.192232668513043
 20
-4.000200075027649
 30
0.0
 10
26.11912136165987
 20
-3.8925838619501087
 30
0.0
 10
26.071089926018065
 20
-3.789302770671572
 30
0.0
 10
26.047431173393655
 20
-3.6926650245362023
 30
0.0
 10
26.047266273089182
 20
-3.6049139619243027
 30
0.0
 10
26.069549748555033
 20
-3.5282164632136137
 30
0.0
 10
26.26780257660509
 20
-3.222933879321225
 30
0.0
 10
26.429270146577355
 20
-2.943263844354573
 30
0.0
 10
26.594526205536283
 20
-2.618930566943404
 30
0.0
 10
26.649806450093333
 20
-2.561283761751471
 30
0.0
 10
26.72588354967656
 20
-2.5175510382984125
 30
0.0
 10
26.821403669050795
 20
-2.48972124620599
 30
0.0
 10
26.934863435705367
 20
-2.4796771438315126
 30
0.0
 10
27.064617463518942
 20
-2.489185286325051
 30
0.0
 10
27.208886520148535
 20
-2.5198864170780935
 30
0.0
 10
27.365766305730666
 20
-2.573286401964495
 30
0.0
 10
27.533236808138387
 20
-2.65074774374474
 30
0.0
 10
27.70917219781619
 20
-2.7534817118371544
 30
0.0
 10
27.733616602835877
 20
-2.7706731803688154
 30
0.0
 10
27.739721130236987
 20
-2.77255331023429
 30
0.0
 10
27.792892352829114
 20
-2.7859270328330425
 30
0.0
 10
27.866140064984762
 20
-2.8003219314303425
 30
0.0
 10
27.959663584231873
 20
-2.813662741332508
 30
0.0
 10
28.07349955919348
 20
-2.8238589382350723
 30
0.0
 10
28.207521066070797
 20
-2.8288160979609245
 30
0.0
 10
28.361437449206655
 20
-2.8264473012015263
 30
0.0
 10
28.534794907555437
 20
-2.8146845364767694
 30
0.0
 10
28.72697782603049
 20
-2.791490054482466
 30
0.0
 10
28.937210847837083
 20
-2.7548676271189283
 30
0.0
 10
29.164561681058718
 20
-2.7028736647889833
 30
0.0
 10
29.407944629933397
 20
-2.6336281460194213
 30
0.0
 10
29.531059245647903
 20
-2.5915204675072614
 30
0.0
 10
29.617437203315788
 20
-2.306770502085863
 30
0.0
 10
29.68500668035908
 20
-2.016980819470241
 30
0.0
 10
29.59944013482928
 20
-1.9189571923271158
 30
0.0
 10
29.42328707764055
 20
-1.7372973395370266
 30
0.0
 10
29.252392461664094
 20
-1.578593830705136
 30
0.0
 10
29.088636537745998
 20
-1.441761367355934
 30
0.0
 10
28.93379848917182
 20
-1.3255828974848438
 30
0.0
 10
28.789547908667892
 20
-1.2287173152397224
 30
0.0
 10
28.657436809193676
 20
-1.1497076855017052
 30
0.0
 10
28.538892199721413
 20
-1.086989958316447
 30
0.0
 10
28.435209255088736
 20
-1.0389021363751647
 30
0.0
 10
28.347545106618412
 20
-1.0036938570338514
 30
0.0
 10
28.27691327782388
 20
-0.9795363488261903
 30
0.0
 10
28.2241787870095
 20
-0.9645327210438288
 30
0.0
 10
28.217952046268223
 20
-0.963108697570243
 30
0.0
 10
28.188186836275932
 20
-0.9657747435361588
 30
0.0
 10
27.984455335344038
 20
-0.9667772748968522
 30
0.0
 10
27.800690954984315
 20
-0.9501255134837636
 30
0.0
 10
27.63812908288664
 20
-0.9179313641691165
 30
0.0
 10
27.497837849489848
 20
-0.872384795002934
 30
0.0
 10
27.38071349391235
 20
-0.8157420740452905
 30
0.0
 10
27.287476504827037
 20
-0.7503137430884019
 30
0.0
 10
27.218668550964765
 20
-0.6784523762829038
 30
0.0
 10
27.174650211806046
 20
-0.6025401770041585
 30
0.0
 10
27.155599518288735
 20
-0.5249764569810522
 30
0.0
 10
27.174650211806
 20
-0.1614675699722603
 30
0.0
 10
27.174650211806
 20
0.16146756997227674
 30
0.0
 10
27.155599518288145
 20
0.5249764569824786
 30
0.0
 10
27.174650211806
 20
0.6025401770042287
 30
0.0
 10
27.218668550964786
 20
0.6784523762828713
 30
0.0
 10
27.287476504869183
 20
0.7503137429040657
 30
0.0
 10
27.380713493912253
 20
0.8157420740458592
 30
0.0
 10
27.49783784948893
 20
0.872384795010441
 30
0.0
 10
27.6381290828867
 20
0.917931364168196
 30
0.0
 10
27.800690954984283
 20
0.9501255134859329
 30
0.0
 10
27.98445533534403
 20
0.9667772748968724
 30
0.0
 10
28.188186836275932
 20
0.9657747435361621
 30
0.0
 10
28.217952046269208
 20
0.9631086975692267
 30
0.0
 10
28.224178787009404
 20
0.9645327210438669
 30
0.0
 10
28.27691327782384
 20
0.9795363488262452
 30
0.0
 10
28.34754510661837
 20
1.0036938570339051
 30
0.0
 10
28.435209255088772
 20
1.0389021363751263
 30
0.0
 10
28.538892199721374
 20
1.0869899583163196
 30
0.0
 10
28.65743680919353
 20
1.1497076855017754
 30
0.0
 10
28.789547908668105
 20
1.228717315239745
 30
0.0
 10
28.933798489171274
 20
1.3255828974845163
 30
0.0
 10
29.088636537746954
 20
1.4417613673567298
 30
0.0
 10
29.25239246166406
 20
1.5785938307050986
 30
0.0
 10
29.42328707764058
 20
1.7372973395370592
 30
0.0
 10
29.599440134829244
 20
1.9189571923270712
 30
0.0
 10
29.68500668035908
 20
2.0169808194702417
 30
0.0
 10
29.617437203315788
 20
2.306770502085862
 30
0.0
 10
29.531059245647903
 20
2.5915204675072676
 30
0.0
 10
29.407944629933453
 20
2.633628146019407
 30
0.0
 10
29.16456168105867
 20
2.7028736647889993
 30
0.0
 10
28.937210847837136
 20
2.754867627118919
 30
0.0
 10
28.726977826029266
 20
2.7914900544826806
 30
0.0
 10
28.534794907556076
 20
2.8146845364767623
 30
0.0
 10
28.361437449206456
 20
2.826447301201443
 30
0.0
 10
28.207521066070885
 20
2.8288160979610604
 30
0.0
 10
28.073499559193575
 20
2.823858938234985
 30
0.0
 10
27.959663584231862
 20
2.8136627413324606
 30
0.0
 10
27.86614006498477
 20
2.800321931430414
 30
0.0
 10
27.79289235282912
 20
2.785927032833113
 30
0.0
 10
27.73972113023705
 20
2.772553310234375
 30
0.0
 10
27.733616602835532
 20
2.7706731803674467
 30
0.0
 10
27.709172197816187
 20
2.75348171183716
 30
0.0
 10
27.53323680813838
 20
2.6507477437447617
 30
0.0
 10
27.36576630572961
 20
2.5732864019663935
 30
0.0
 10
27.20888652014894
 20
2.5198864170772683
 30
0.0
 10
27.064617463515976
 20
2.4891852863320114
 30
0.0
 10
26.93486343570516
 20
2.4796771438320544
 30
0.0
 10
26.821403669106463
 20
2.48972124602528
 30
0.0
 10
26.72588354967656
 20
2.5175510382983766
 30
0.0
 10
26.649806450093337
 20
2.5612837617515583
 30
0.0
 10
26.59452620553608
 20
2.618930566944937
 30
0.0
 10
26.42927014657735
 20
2.9432638443545893
 30
0.0
 10
26.267802576605078
 20
3.2229338793212405
 30
0.0
 10
26.069549748553804
 20
3.528216463214557
 30
0.0
 10
26.0472662730891
 20
3.6049139619243418
 30
0.0
 10
26.04743117339369
 20
3.6926650245361867
 30
0.0
 10
26.07108992614673
 20
3.789302770533007
 30
0.0
 10
26.119121361659506
 20
3.8925838619505573
 30
0.0
 10
26.1922326685085
 20
4.000200075033698
 30
0.0
 10
26.29095515598034
 20
4.109790177678422
 30
0.0
 10
26.415640792244734
 20
4.218952064889602
 30
0.0
 10
26.566459533241513
 20
4.325255103469108
 30
0.0
 10
26.74339745428003
 20
4.426252636308592
 30
0.0
 10
26.770507905266648
 20
4.438826377770207
 30
0.0
 10
26.77518840919312
 20
4.443172988644929
 30
0.0
 10
26.81335600400287
 20
4.482533756860613
 30
0.0
 10
26.862446207950857
 20
4.538770687057843
 30
0.0
 10
26.920761447856744
 20
4.613094025626081
 30
0.0
 10
26.986509600877156
 20
4.706580773356118
 30
0.0
 10
27.057813380569023
 20
4.820168223102422
 30
0.0
 10
27.13272013396691
 20
4.954648119336392
 30
0.0
 10
27.20921201007092
 20
5.110661464564321
 30
0.0
 10
27.285216458673762
 20
5.2886939951343015
 30
0.0
 10
27.358617017131984
 20
5.489072346414945
 30
0.0
 10
27.427264341521656
 20
5.711960924721413
 30
0.0
 10
27.488987437606323
 20
5.957359500679635
 30
0.0
 10
27.514078426177658
 20
6.085033724721635
 30
0.0
 10
27.310666701229934
 20
6.302214213099742
 30
0.0
 10
27.093486212851822
 20
6.505625938047475
 30
0.0
 10
26.965811988809882
 20
6.480534949476151
 30
0.0
 10
26.720413412851556
 20
6.418811853391458
 30
0.0
 10
26.49752483454518
 20
6.350164529001811
 30
0.0
 10
26.29714648326332
 20
6.276763970543144
 30
0.0
 10
26.119113952695066
 20
6.200759521941046
 30
0.0
 10
25.96310060746645
 20
6.12426764583655
 30
0.0
 10
25.82862071123262
 20
6.049360892438995
 30
0.0
 10
25.715033261486433
 20
5.97805711274694
 30
0.0
 10
25.621546513756282
 20
5.912308959726509
 30
0.0
 10
25.547223175188
 20
5.853993719820734
 30
0.0
 10
25.490986244990772
 20
5.804903515872747
 30
0.0
 10
25.45162547677513
 20
5.766735921063036
 30
0.0
 10
25.447278865900785
 20
5.762055417135104
 30
0.0
 10
25.434705124438775
 20
5.7349449661498415
 30
0.0
 10
25.33370759159928
 20
5.558007045111341
 30
0.0
 10
25.227404553017927
 20
5.407188304115661
 30
0.0
 10
25.118242665809376
 20
5.28250266784964
 30
0.0
 10
25.00865256315784
 20
5.183780180382858
 30
0.0
 10
24.901036350080297
 20
5.1106688735296855
 30
0.0
 10
24.79775525880176
 20
5.062637437887877
 30
0.0
 10
24.70111751266639
 20
5.038978685263469
 30
0.0
 10
24.613366450054492
 20
5.038813784958994
 30
0.0
 10
24.536668951343803
 20
5.0610972604248445
 30
0.0
 10
24.231386367451414
 20
5.259350088474902
 30
0.0
 10
23.95171633248476
 20
5.420817658447171
 30
0.0
 10
23.627383055073594
 20
5.586073717406099
 30
0.0
 10
23.569736249881657
 20
5.641353961963147
 30
0.0
 10
23.526003526428603
 20
5.7174310615463755
 30
0.0
 10
23.498173734336177
 20
5.81295118092061
 30
0.0
 10
23.4881296319617
 20
5.92641094757518
 30
0.0
 10
23.49763777445524
 20
6.0561649753887545
 30
0.0
 10
23.528338905208283
 20
6.200434032018349
 30
0.0
 10
23.581738890094684
 20
6.357313817600482
 30
0.0
 10
23.659200231874927
 20
6.524784320008201
 30
0.0
 10
23.761934199967342
 20
6.7007197096860045
 30
0.0
 10
23.779125668499006
 20
6.7251641147056915
 30
0.0
 10
23.78100579836448
 20
6.7312686421068015
 30
0.0
 10
23.794379520963233
 20
6.784439864698928
 30
0.0
 10
23.80877441956053
 20
6.857687576854576
 30
0.0
 10
23.822115229462696
 20
6.951211096101686
 30
0.0
 10
23.832311426365262
 20
7.065047071063291
 30
0.0
 10
23.837268586091113
 20
7.199068577940612
 30
0.0
 10
23.834899789331715
 20
7.352984961076468
 30
0.0
 10
23.823137024606957
 20
7.526342419425253
 30
0.0
 10
23.799942542612655
 20
7.7185253379003065
 30
0.0
 10
23.76332011524912
 20
7.928758359706896
 30
0.0
 10
23.711326152919174
 20
8.156109192928533
 30
0.0
 10
23.64208063414961
 20
8.39949214180321
 30
0.0
 10
23.59997295563745
 20
8.522606757517714
 30
0.0
 10
23.31522299021605
 20
8.608984715185603
 30
0.0
 10
23.025433307600427
 20
8.676554192228899
 30
0.0
 10
22.927409680457302
 20
8.590987646699096
 30
0.0
 10
22.74574982766721
 20
8.414834589510363
 30
0.0
 10
22.58704631883532
 20
8.243939973533912
 30
0.0
 10
22.45021385548612
 20
8.080184049615811
 30
0.0
 10
22.33403538561503
 20
7.9253460010416354
 30
0.0
 10
22.23716980336991
 20
7.781095420537705
 30
0.0
 10
22.15816017363189
 20
7.648984321063488
 30
0.0
 10
22.095442446446633
 20
7.530439711591228
 30
0.0
 10
22.04735462450535
 20
7.426756766958553
 30
0.0
 10
22.012146345164037
 20
7.339092618488228
 30
0.0
 10
21.987988836956376
 20
7.268460789693695
 30
0.0
 10
21.972985209174016
 20
7.215726298879315
 30
0.0
 10
21.97156118570043
 20
7.209499558138038
 30
0.0
 10
21.974227231666344
 20
7.179734348145745
 30
0.0
 10
21.975229763027038
 20
6.97600284721385
 30
0.0
 10
21.95857800161395
 20
6.79223846685413
 30
0.0
 10
21.926383852299303
 20
6.629676594756452
 30
0.0
 10
21.88083728313312
 20
6.48938536135966
 30
0.0
 10
21.824194562175474
 20
6.372261005782162
 30
0.0
 10
21.758766231218587
 20
6.279024016696852
 30
0.0
 10
21.68690486441309
 20
6.210216062834578
 30
0.0
 10
21.610992665134344
 20
6.166197723675861
 30
0.0
 10
21.533428945111236
 20
6.147147030158551
 30
0.0
 10
21.169920058102445
 20
6.166197723675814
 30
0.0
 10
20.846984918157908
 20
6.166197723675814
 30
0.0
 10
20.483476031147706
 20
6.14714703015796
 30
0.0
 10
20.405912311125956
 20
6.166197723675814
 30
0.0
 10
20.330000111847315
 20
6.210216062834599
 30
0.0
 10
20.25813874522612
 20
6.2790240167389975
 30
0.0
 10
20.192710414084328
 20
6.372261005782069
 30
0.0
 10
20.136067693119745
 20
6.489385361358748
 30
0.0
 10
20.090521123961988
 20
6.629676594756514
 30
0.0
 10
20.058326974644253
 20
6.792238466854097
 30
0.0
 10
20.04167521323331
 20
6.976002847213847
 30
0.0
 10
20.042677744594023
 20
7.179734348145747
 30
0.0
 10
20.04534379056096
 20
7.209499558139022
 30
0.0
 10
20.04391976708632
 20
7.215726298879219
 30
0.0
 10
20.02891613930394
 20
7.268460789693655
 30
0.0
 10
20.00475863109628
 20
7.339092618488185
 30
0.0
 10
19.96955035175506
 20
7.426756766958588
 30
0.0
 10
19.921462529813866
 20
7.53043971159119
 30
0.0
 10
19.85874480262841
 20
7.648984321063346
 30
0.0
 10
19.77973517289044
 20
7.781095420537918
 30
0.0
 10
19.68286959064567
 20
7.925346001041088
 30
0.0
 10
19.566691120773456
 20
8.080184049616769
 30
0.0
 10
19.429858657425086
 20
8.243939973533873
 30
0.0
 10
19.271155148593127
 20
8.414834589510397
 30
0.0
 10
19.089495295803115
 20
8.590987646699057
 30
0.0
 10
18.991471668659944
 20
8.676554192228897
 30
0.0
 10
18.701681986044324
 20
8.608984715185604
 30
0.0
 10
18.416932020622916
 20
8.522606757517718
 30
0.0
 10
18.374824342110777
 20
8.399492141803266
 30
0.0
 10
18.305578823341186
 20
8.156109192928486
 30
0.0
 10
18.253584861011266
 20
7.928758359706949
 30
0.0
 10
18.216962433647506
 20
7.71852533789908
 30
0.0
 10
18.193767951653424
 20
7.52634241942589
 30
0.0
 10
18.18200518692874
 20
7.352984961076272
 30
0.0
 10
18.179636390169126
 20
7.1990685779407
 30
0.0
 10
18.1845935498952
 20
7.065047071063389
 30
0.0
 10
18.194789746797724
 20
6.951211096101675
 30
0.0
 10
18.20813055669977
 20
6.857687576854585
 30
0.0
 10
18.222525455297074
 20
6.784439864698936
 30
0.0
 10
18.23589917789581
 20
6.731268642106866
 30
0.0
 10
18.23777930776274
 20
6.725164114705348
 30
0.0
 10
18.254970776293025
 20
6.700719709686001
 30
0.0
 10
18.357704744385423
 20
6.5247843200081945
 30
0.0
 10
18.435166086163793
 20
6.357313817599426
 30
0.0
 10
18.488566071052915
 20
6.200434032018756
 30
0.0
 10
18.519267201798172
 20
6.056164975385792
 30
0.0
 10
18.528775344298133
 20
5.9264109475749756
 30
0.0
 10
18.518731242104906
 20
5.812951180976278
 30
0.0
 10
18.49090144983181
 20
5.717431061546374
 30
0.0
 10
18.447168726378628
 20
5.641353961963153
 30
0.0
 10
18.38952192118525
 20
5.586073717405896
 30
0.0
 10
18.065188643775596
 20
5.420817658447163
 30
0.0
 10
17.785518608808946
 20
5.259350088474893
 30
0.0
 10
17.480236024915627
 20
5.061097260423621
 30
0.0
 10
17.403538526205843
 20
5.038813784958917
 30
0.0
 10
17.315787463594
 20
5.038978685263504
 30
0.0
 10
17.21914971759718
 20
5.062637438016544
 30
0.0
 10
17.115868626179626
 20
5.1106688735293195
 30
0.0
 10
17.008252413096486
 20
5.183780180378314
 30
0.0
 10
16.898662310451762
 20
5.282502667850153
 30
0.0
 10
16.789500423240582
 20
5.407188304114548
 30
0.0
 10
16.683197384661078
 20
5.558007045111328
 30
0.0
 10
16.582199851821592
 20
5.7349449661498415
 30
0.0
 10
16.569626110359977
 20
5.762055417136464
 30
0.0
 10
16.565279499485257
 20
5.766735921062934
 30
0.0
 10
16.52591873126957
 20
5.804903515872684
 30
0.0
 10
16.46968180107234
 20
5.8539937198206715
 30
0.0
 10
16.395358462504106
 20
5.91230895972656
 30
0.0
 10
16.301871714774066
 20
5.978057112746972
 30
0.0
 10
16.188284265027765
 20
6.049360892438836
 30
0.0
 10
16.05380436879379
 20
6.124267645836723
 30
0.0
 10
15.897791023565865
 20
6.200759521940736
 30
0.0
 10
15.719758492995883
 20
6.276763970543576
 30
0.0
 10
15.51938014171524
 20
6.3501645290017965
 30
0.0
 10
15.296491563408772
 20
6.418811853391471
 30
0.0
 10
15.05109298745055
 20
6.480534949476137
 30
0.0
 10
14.92341876340855
 20
6.505625938047472
 30
0.0
 10
14.706238275030447
 20
6.302214213099746
 30
0.0
 10
14.502826550082712
 20
6.085033724721636
 30
0.0
 10
14.527917538654036
 20
5.957359500679695
 30
0.0
 10
14.589640634738728
 20
5.71196092472137
 30
0.0
 10
14.658287959128376
 20
5.489072346414997
 30
0.0
 10
14.731688517587042
 20
5.288693995133135
 30
0.0
 10
14.80769296618914
 20
5.110661464564879
 30
0.0
 10
14.884184842293637
 20
4.954648119336267
 30
0.0
 10
14.959091595691191
 20
4.820168223102434
 30
0.0
 10
15.030395375383245
 20
4.706580773356248
 30
0.0
 10
15.096143528403676
 20
4.613094025626098
 30
0.0
 10
15.154458768309453
 20
4.538770687057818
 30
0.0
 10
15.20354897225744
 20
4.482533756860588
 30
0.0
 10
15.241716567067149
 20
4.443172988644947
 30
0.0
 10
15.246397070995084
 20
4.438826377770597
 30
0.0
 10
15.273507521980346
 20
4.426252636308589
 30
0.0
 10
15.450445443018845
 20
4.325255103469093
 30
0.0
 10
15.601264184014525
 20
4.21895206488774
 30
0.0
 10
15.725949820280546
 20
4.109790177679189
 30
0.0
 10
15.824672307747328
 20
4.000200075027653
 30
0.0
 10
15.8977836146005
 20
3.8925838619501114
 30
0.0
 10
15.94581505024231
 20
3.7893027706715747
 30
0.0
 10
15.969473802866716
 20
3.692665024536205
 30
0.0
 10
15.969638703171192
 20
3.6049139619243062
 30
0.0
 10
15.94735522770534
 20
3.5282164632136173
 30
0.0
 10
15.749102399655284
 20
3.2229338793212285
 30
0.0
 10
15.587634829683015
 20
2.943263844354577
 30
0.0
 10
15.422378770724087
 20
2.6189305669434075
 30
0.0
 10
15.367098526167041
 20
2.5612837617514748
 30
0.0
 10
15.29102142658381
 20
2.517551038298416
 30
0.0
 10
15.195501307209575
 20
2.4897212462059928
 30
0.0
 10
15.082041540555007
 20
2.479677143831516
 30
0.0
 10
14.952287512741432
 20
2.4891852863250543
 30
0.0
 10
14.808018456111837
 20
2.519886417078098
 30
0.0
 10
14.651138670529704
 20
2.5732864019644994
 30
0.0
 10
14.483668168121985
 20
2.650747743744743
 30
0.0
 10
14.307732778444182
 20
2.753481711837159
 30
0.0
 10
14.283288373424494
 20
2.77067318036882
 30
0.0
 10
14.277183846023386
 20
2.7725533102342945
 30
0.0
 10
14.224012623431257
 20
2.785927032833047
 30
0.0
 10
14.15076491127561
 20
2.800321931430347
 30
0.0
 10
14.0572413920285
 20
2.8136627413325126
 30
0.0
 10
13.943405417066895
 20
2.8238589382350767
 30
0.0
 10
13.809383910189574
 20
2.8288160979609294
 30
0.0
 10
13.655467527053718
 20
2.8264473012015308
 30
0.0
 10
13.482110068704934
 20
2.8146845364767734
 30
0.0
 10
13.28992715022988
 20
2.7914900544824706
 30
0.0
 10
13.079694128423291
 20
2.754867627118933
 30
0.0
 10
12.852343295201656
 20
2.7028736647889886
 30
0.0
 10
12.608960346326976
 20
2.6336281460194266
 30
0.0
 10
12.485845730612471
 20
2.5915204675072667
 30
0.0
  0
LWPOLYLINE
  8
OpenJsCad
  90
91
  70
1
 10
20.992174080407327
 20
0.047275928779965844
 30
0.0
 10
20.99551153587506
 20
0.04829629131445342
 30
0.0
 10
20.998912038361357
 20
0.049081359172383196
 30
0.0
 10
21.00235902095993
 20
0.049627307582066106
 30
0.0
 10
21.005835690318037
 20
0.0499314767377287
 30
0.0
 10
21.00932510845205
 20
0.049992384757819565
 30
0.0
 10
21.01281027526757
 20
0.04980973490458728
 30
0.0
 10
21.016274211382196
 20
0.0493844170297569
 30
0.0
 10
21.01970004084738
 20
0.048718503239261766
 30
0.0
 10
21.02307107336632
 20
0.047815237798151757
 30
0.0
 10
21.02637088560745
 20
0.0466790213248601
 30
0.0
 10
21.02958340121722
 20
0.0453153893518325
 30
0.0
 10
21.032692969142502
 20
0.04373098535696979
 30
0.0
 10
21.035684439880935
 20
0.041933528397271186
 30
0.0
 10
21.038543239287787
 20
0.03993177550236466
 30
0.0
 10
21.04125543957971
 20
0.037735479011138585
 30
0.0
 10
21.043807827189514
 20
0.03535533905932739
 30
0.0
 10
21.046187967141325
 20
0.03280295144952537
 30
0.0
 10
21.04838426363255
 20
0.03009075115760242
 30
0.0
 10
21.050386016527458
 20
0.027231951750751354
 30
0.0
 10
21.052183473487155
 20
0.024240481012316843
 30
0.0
 10
21.053767877482017
 20
0.02113091308703496
 30
0.0
 10
21.055131509455045
 20
0.017918397477264994
 30
0.0
 10
21.056267725928336
 20
0.014618585236136858
 30
0.0
 10
21.057170991369446
 20
0.01124755271719322
 30
0.0
 10
21.05783690515994
 20
0.007821723252011553
 30
0.0
 10
21.058262223034774
 20
0.004357787137382914
 30
0.0
 10
21.058444872888003
 20
0.0008726203218641752
 30
0.0
 10
21.058383964867915
 20
-0.0026167978121471955
 30
0.0
 10
21.058079795712253
 20
-0.006093467170257381
 30
0.0
 10
21.05753384730257
 20
-0.009540449768827253
 30
0.0
 10
21.05674877944464
 20
-0.012940952255126058
 30
0.0
 10
21.055728416910153
 20
-0.016278407722857855
 30
0.0
 10
21.05447773080281
 20
-0.019536556424463673
 30
0.0
 10
21.053002814339603
 20
-0.022699524986977356
 30
0.0
 10
21.05131085316529
 20
-0.025751903745502715
 30
0.0
 10
21.049410090344637
 20
-0.028678821817552304
 30
0.0
 10
21.047309786203034
 20
-0.03146601955249188
 30
0.0
 10
21.045020173211142
 20
-0.03409991800312493
 30
0.0
 10
21.04255240613331
 20
-0.03656768508095853
 30
0.0
 10
21.03991850768268
 20
-0.03885729807284856
 30
0.0
 10
21.03713130994774
 20
-0.04095760221444959
 30
0.0
 10
21.034204391875686
 20
-0.04285836503510562
 30
0.0
 10
21.03115201311716
 20
-0.0445503262094184
 30
0.0
 10
21.027989044554648
 20
-0.046025242672622015
 30
0.0
 10
21.024730895853043
 20
-0.04727592877996585
 30
0.0
 10
21.02139344038531
 20
-0.04829629131445342
 30
0.0
 10
21.017992937899013
 20
-0.0490813591723832
 30
0.0
 10
21.01454595530044
 20
-0.049627307582066106
 30
0.0
 10
21.011069285942334
 20
-0.0499314767377287
 30
0.0
 10
21.00757986780832
 20
-0.049992384757819565
 30
0.0
 10
21.004094700992802
 20
-0.04980973490458728
 30
0.0
 10
21.000630764878174
 20
-0.049384417029756884
 30
0.0
 10
20.99720493541299
 20
-0.04871850323926176
 30
0.0
 10
20.99383390289405
 20
-0.04781523779815178
 30
0.0
 10
20.990534090652922
 20
-0.04667902132486009
 30
0.0
 10
20.98732157504315
 20
-0.04531538935183249
 30
0.0
 10
20.98421200711787
 20
-0.043730985356969794
 30
0.0
 10
20.981220536379436
 20
-0.04193352839727121
 30
0.0
 10
20.978361736972584
 20
-0.03993177550236465
 30
0.0
 10
20.97564953668066
 20
-0.0377354790111386
 30
0.0
 10
20.973097149070856
 20
-0.035355339059327376
 30
0.0
 10
20.970717009119046
 20
-0.03280295144952537
 30
0.0
 10
20.96852071262782
 20
-0.030090751157602423
 30
0.0
 10
20.966518959732912
 20
-0.027231951750751358
 30
0.0
 10
20.964721502773216
 20
-0.02424048101231686
 30
0.0
 10
20.963137098778354
 20
-0.021130913087034974
 30
0.0
 10
20.961773466805326
 20
-0.01791839747726501
 30
0.0
 10
20.960637250332034
 20
-0.01461858523613683
 30
0.0
 10
20.959733984890924
 20
-0.01124755271719325
 30
0.0
 10
20.95906807110043
 20
-0.007821723252011548
 30
0.0
 10
20.958642753225597
 20
-0.004357787137382909
 30
0.0
 10
20.958460103372367
 20
-0.00087262032186417
 30
0.0
 10
20.958521011392456
 20
0.0026167978121471903
 30
0.0
 10
20.958825180548118
 20
0.0060934671702573655
 30
0.0
 10
20.9593711289578
 20
0.009540449768827236
 30
0.0
 10
20.96015619681573
 20
0.012940952255126042
 30
0.0
 10
20.961176559350218
 20
0.01627840772285783
 30
0.0
 10
20.96242724545756
 20
0.019536556424463683
 30
0.0
 10
20.963902161920767
 20
0.022699524986977342
 30
0.0
 10
20.96559412309508
 20
0.025751903745502715
 30
0.0
 10
20.967494885915734
 20
0.028678821817552304
 30
0.0
 10
20.969595190057337
 20
0.03146601955249188
 30
0.0
 10
20.971884803049228
 20
0.034099918003124924
 30
0.0
 10
20.97435257012706
 20
0.03656768508095853
 30
0.0
 10
20.976986468577692
 20
0.038857298072848545
 30
0.0
 10
20.97977366631263
 20
0.04095760221444959
 30
0.0
 10
20.982700584384684
 20
0.04285836503510562
 30
0.0
 10
20.98575296314321
 20
0.0445503262094184
 30
0.0
 10
20.988915931705723
 20
0.04602524267262202
 30
0.0
 10
20.992174080407327
 20
0.047275928779965844
 30
0.0
  0
ENDSEC
  0
EOF
