**ABCDEFGHIJKLMNOPQRSTUVWXYZabcdefghijklmnopqrstuvwxyz**************************
**PARASOLID !"#$%&'()*+,-./:;<=>?@[\]^_`{|}~0123456789**************************
**PART1;
MC=AMD64;
MC_MODEL=Intel64 Family 6 Model 26 Stepping 5, GenuineIntel;
MC_ID=unknown;
OS=Windows_NT;
OS_RELEASE=unknown;
FRU=Parasolid Version 24.1, build 231,  7-17-2012;
APPL=SolidWorks 2013-2012270;
SITE=;
USER=unknown;
FORMAT=text;
GUISE=transmit;
KEY=makeProjectedPlanarWire;
FILE=makeProjectedPlanarWire.x_t;
DATE=Sun Apr 12 18:40:42 2015;
**PART2;
SCH=SCH_2401231_20000;
USFLD_SIZE=0;
**PART3;
**END_OF_HEADER*****************************************************************
T51 : TRANSMIT FILE created by modeller version 240123123 SCH_2401231_20000_1300
6189 0 12 27 CCCCCCCCCCCCCCCCCCCCCCCA16 index_map_offset0 0 1 dA9 index_map82 0
 A17 node_id_index_map82 0 A20 schema_embedding_map82 0 Z1 643 0 0 0 0 0 0 1e3 1
e-8 0 2 0 1 0 3 1 3 4 5 6 7 8 9 0 0 0 0 13 255 3 45 0 1 0 10 0 0 7 10 50 255 4 2
 0 10 0 0 0 +0 0 .004 0 0 1 1 0 0 31 255 5 24 0 11 12 0 0 --.0350702133094709 .0
0843676981862267 .004 0 0 1 1 0 0 .017217224328879 29 255 6 43 0 9 13 0 .0084615
591028564 .0055192252818785 .004 19 255 7 44 0 1 0 0 3 V16 255 8 28 0 ?14 0 11 1
2 15 15 1 18 255 9 41 0 16 0 17 6 ?1 17 255 16 0 0 0 0 9 18 19 0 14 -18 17 38 0
 20 9 21 13 ?1 17 20 0 22 14 23 17 24 11 0 25 +18 21 35 0 23 17 26 27 ?1 29 13 4
0 0 17 27 6 -.0181019857217982 .0055192252818785 .004 29 27 37 0 21 28 13 -.0180
148334012053 .010791940677748 .004 29 28 34 0 26 0 27 .00837440678226351 .010791
940677748 .004 18 26 32 0 18 21 0 28 ?1 17 18 0 22 23 14 26 16 19 0 29 +15 255 2
2 7 0 18 10 0 17 23 0 22 20 18 21 29 15 0 24 +17 14 0 22 18 20 9 25 8 0 0 +16 19
 13 0 ?18 15 30 31 0 0 1 17 29 0 0 0 0 26 23 15 0 0 -16 15 18 0 ?23 11 19 12 8 8
 1 16 11 23 0 ?20 8 15 5 0 0 1 31 12 19 0 15 31 5 0 +-.00482021330947089 .007936
76981862266 .004 0 0 1 1 0 0 .0135 31 31 14 0 19 32 12 0 -.0254297866905291 .008
43676981862267 .004 0 0 1 1 0 0 .017217224328879 31 32 9 0 30 0 31 0 +-.00482021
330947089 .00793676981862266 .004 0 0 1 1 0 0 .0115 16 30 8 0 ?33 19 0 32 0 0 1
 17 33 0 0 0 0 0 34 30 0 0 +17 34 0 35 34 34 0 33 30 0 0 -15 35 6 0 34 10 22 14
 255 10 1 0 ?0 0 35 3 4 +0 0 0 0 3 17 25 0 0 0 0 17 14 8 0 0 -17 24 0 0 0 0 21 2
0 11 0 0 -1 0 
