**ABCDEFGHIJKLMNOPQRSTUVWXYZabcdefghijklmnopqrstuvwxyz**************************
**PARASOLID !"#$%&'()*+,-./:;<=>?@[\]^_`{|}~0123456789**************************
**PART1;
MC=AMD64;
MC_MODEL=Intel64 Family 6 Model 70 Stepping 1, GenuineIntel;
MC_ID=unknown;
OS=Windows_NT;
OS_RELEASE=unknown;
FRU=Parasolid Version 28.0, build 191,  8-24-2015;
APPL=SOLIDWORKS 2016-2015334;
SITE=;
USER=unknown;
FORMAT=text;
GUISE=transmit;
KEY=makeProjectedPlanarWire;
FILE=makeProjectedPlanarWire.x_t;
DATE=Sat Apr 22 14:07:00 2017;
**PART2;
SCH=SCH_2800191_28002;
USFLD_SIZE=0;
**PART3;
**END_OF_HEADER*****************************************************************
T51 : TRANSMIT FILE created by modeller version 280019123 SCH_2800191_28002_1300
6200 0 12 30 CCCCCCCCCCCCCDI5 owner1040 0 CCCCCCCCCA13 boundary_mesh1006 0 A16 i
ndex_map_offset0 0 1 dA9 index_map82 0 A17 node_id_index_map82 0 A20 schema_embe
dding_map82 0 A5 child12 0 A14 lowest_node_id0 0 1 dZ1 300 0 0 0 0 0 0 1e3 1e-8
 0 2 0 1 0 3 1 3 4 5 6 7 8 9 0 0 0 0 0 0 0 13 255 3 73 0 1 0 10 0 0 7 10 50 255
 4 2 0 10 0 0 0 +0 .055 0 0 1 0 0 0 1 31 255 5 44 0 8 11 0 0 -.0326596069396907
 .055 .0848798426260306 0 1 0 0 0 1 .01 29 255 6 71 0 9 12 0 .02265960693969075
 .055 .0848798426260306 19 8 CCCCCCCA5 owner12 0 Z7 72 0 1 0 0 3 V0 16 255 8 43
 0 ?13 0 14 5 0 0 1 18 255 9 69 0 15 0 16 6 ?1 17 255 15 0 0 0 0 9 17 18 0 13 -1
8 16 66 0 19 9 20 12 ?1 17 19 0 21 13 22 16 23 14 0 24 -18 20 63 0 22 16 25 26 ?
1 29 12 68 0 16 26 6 .0330631582799019 .055 .0948716966239538 29 26 65 0 20 27 1
2 .03306315827990195 .055 -.003048472555693545 29 27 62 0 25 28 26 .022659606939
69075 .055 .00694338144222966 18 25 60 0 17 20 29 27 ?1 29 28 59 0 29 30 27 .019
25359714666785 .055 .0868706548857885 18 29 57 0 31 25 32 28 ?1 29 30 56 0 32 33
 28 .01925359714666785 .055 .00495256918247176 18 32 54 0 34 29 35 30 ?1 29 33 5
3 0 35 36 30 .02880672895979 .055 -.00503744126915223 18 35 51 0 37 32 38 33 ?1
 29 36 50 0 38 0 33 .02880672895979 .055 .0968606653374124 18 38 48 0 39 35 0 36
 ?1 17 39 0 40 37 41 38 31 42 0 43 -15 255 40 6 0 39 10 21 17 37 0 40 34 39 35 4
3 44 0 45 +17 41 0 40 39 34 29 46 47 0 0 -17 31 0 0 0 0 29 39 42 0 41 +16 42 8 0
 ?31 44 0 48 0 0 1 17 43 0 0 0 0 38 37 44 0 0 -16 44 13 0 ?37 49 42 50 0 0 1 16
 49 18 0 ?45 47 44 51 0 0 1 31 50 14 0 44 48 51 0 +.03108575671286705 .055 .0459
116120341301 0 1 0 0 0 1 .051 31 48 9 0 42 0 50 0 -.02925359714666785 .055 .0868
706548857885 0 1 0 0 0 1 .01 31 51 19 0 49 50 52 0 -.02925359714666785 .055 .004
95256918247176 0 1 0 0 0 1 .01 30 255 52 24 0 47 51 53 0 +.01925359714666785 .05
5 0 0 0 -1 16 47 23 0 ?46 18 49 52 0 0 1 30 53 29 0 18 52 54 0 +.022659606939690
75 .055 0 0 0 -1 16 18 28 0 ?17 55 47 53 0 0 1 31 54 34 0 55 53 11 0 -.032659606
93969075 .055 .00694338144222966 0 1 0 0 0 1 .01 16 55 33 0 ?22 14 18 54 0 0 1 3
1 11 39 0 14 54 5 0 +.03108575671286705 .055 .0459116120341301 0 1 0 0 0 1 .049
 16 14 38 0 ?23 8 55 11 0 0 1 17 23 0 0 0 0 20 19 14 0 0 +17 22 0 21 19 17 20 56
 55 0 23 +15 21 7 0 17 10 0 17 17 0 21 22 13 25 15 18 0 56 +17 56 0 0 0 0 25 22
 55 0 0 -17 13 0 21 17 19 9 24 8 0 0 +17 24 0 0 0 0 16 13 8 0 0 -14 255 10 1 0 ?
0 0 40 3 4 +0 0 0 0 3 17 46 0 0 0 0 32 41 47 0 0 +17 45 0 0 0 0 35 34 49 0 0 +17
 34 0 40 41 37 32 45 49 0 46 -1 0 
